{"glyphs":{"0":{"ha":876,"x_min":68,"x_max":839,"o":"m 360 -14 q 143 55 218 -14 q 68 258 68 124 q 79 365 68 303 q 131 608 100 488 q 279 892 176 797 q 547 986 382 986 q 763 916 688 986 q 839 711 839 846 q 829 608 839 658 q 778 365 808 486 q 628 80 731 174 q 360 -14 526 -14 m 365 101 q 542 167 472 101 q 646 372 611 232 q 694 601 675 488 q 706 711 706 668 q 667 833 706 794 q 543 872 628 872 q 365 807 435 872 q 263 601 296 742 q 213 372 235 494 q 201 264 201 306 q 240 140 201 179 q 365 101 279 101 z "},"1":{"ha":585,"x_min":89,"x_max":593,"o":"m 292 0 q 270 9 278 0 q 265 32 263 18 l 429 803 l 165 629 q 143 621 153 621 q 121 635 128 621 l 93 685 q 89 697 89 692 q 110 729 89 715 l 463 963 q 478 970 472 968 q 496 972 485 972 l 564 972 q 585 964 578 972 q 590 940 593 956 l 396 32 q 383 9 393 18 q 358 0 372 0 l 292 0 z "},"2":{"ha":811,"x_min":4,"x_max":808,"o":"m 32 0 q 11 9 18 0 q 7 32 4 18 l 17 74 q 64 135 22 106 l 431 436 q 603 579 553 524 q 667 697 653 635 q 672 747 672 721 q 634 840 672 807 q 524 872 596 872 q 382 824 442 872 q 294 693 322 775 q 275 669 288 678 q 251 661 263 661 l 185 661 q 165 669 172 661 q 161 689 158 676 q 231 831 179 763 q 365 944 282 900 q 549 988 447 988 q 744 928 681 988 q 808 769 808 868 q 801 700 808 729 q 726 543 783 614 q 560 394 668 472 l 229 117 l 665 117 q 686 108 679 117 q 690 85 693 100 l 681 32 q 666 9 678 18 q 640 0 654 0 l 32 0 z "},"3":{"ha":831,"x_min":38,"x_max":854,"o":"m 340 -14 q 172 16 240 -14 q 71 95 104 46 q 38 201 38 144 q 40 232 38 213 q 53 252 43 244 q 76 260 64 260 l 139 260 q 172 229 169 260 q 230 129 175 158 q 365 100 285 100 q 535 148 465 100 q 624 285 604 196 q 629 331 629 307 q 453 454 629 454 l 322 454 q 301 463 308 454 q 296 486 293 471 l 304 522 q 328 558 311 546 l 661 858 l 250 858 q 230 867 236 858 q 226 889 224 875 l 236 939 q 250 963 239 954 q 275 972 261 972 l 825 972 q 847 963 840 972 q 851 939 854 954 l 842 893 q 821 861 838 878 l 485 557 l 507 557 q 696 503 628 554 q 764 353 764 451 q 756 281 764 321 q 677 124 736 190 q 530 22 618 57 q 340 -14 442 -14 z "},"4":{"ha":861,"x_min":10,"x_max":800,"o":"m 476 0 q 455 9 463 0 q 450 32 447 18 l 494 235 l 38 235 q 17 243 24 235 q 13 267 10 251 l 24 318 q 31 339 26 332 q 43 356 35 346 l 592 949 q 647 972 613 972 l 747 972 q 768 963 761 972 q 772 940 775 954 l 647 351 l 772 351 q 793 342 786 351 q 797 319 800 333 l 786 267 q 774 244 785 253 q 749 235 763 235 l 622 235 l 579 32 q 566 9 576 18 q 542 0 556 0 l 476 0 m 190 349 l 519 349 l 618 817 l 190 349 z "},"5":{"ha":821,"x_min":25,"x_max":811,"o":"m 324 -14 q 160 17 226 -14 q 59 101 93 49 q 25 219 25 154 q 28 251 25 229 q 39 272 29 264 q 61 279 49 279 l 129 279 q 161 249 163 279 q 204 138 156 175 q 328 100 253 100 q 502 158 426 100 q 599 317 578 215 q 606 374 606 351 q 560 482 606 444 q 433 519 515 519 q 347 506 383 519 q 274 469 311 493 q 238 451 251 457 q 210 444 224 444 l 143 444 q 122 454 129 444 q 119 476 115 464 l 261 938 q 276 963 265 954 q 303 972 288 972 l 783 972 q 804 963 797 972 q 810 940 811 954 l 797 889 q 784 867 794 875 q 760 858 774 858 l 360 858 l 274 579 q 349 613 306 599 q 458 626 392 626 q 661 561 582 626 q 740 382 740 496 q 733 311 740 343 q 594 70 701 154 q 324 -14 486 -14 z "},"6":{"ha":833,"x_min":60,"x_max":790,"o":"m 356 -14 q 137 59 214 -14 q 60 246 60 132 q 68 319 60 282 q 218 575 93 439 l 563 944 q 587 965 576 958 q 614 972 597 972 l 682 972 q 700 963 694 972 q 703 942 706 954 q 698 930 701 935 q 693 924 694 925 l 429 640 q 513 649 467 649 q 662 615 599 649 q 758 522 725 581 q 790 392 790 464 q 782 321 790 358 q 706 155 764 232 q 556 32 647 78 q 356 -14 465 -14 m 379 101 q 551 159 474 101 q 650 319 628 217 q 656 371 656 343 q 603 494 656 450 q 471 538 551 538 q 300 479 378 538 q 201 319 222 421 q 196 265 196 293 q 247 144 196 188 q 379 101 299 101 z "},"7":{"ha":708,"x_min":117,"x_max":806,"o":"m 140 0 q 122 9 128 0 q 119 31 117 18 q 125 43 119 35 l 644 856 l 186 856 q 165 864 172 856 q 161 888 158 872 l 172 939 q 185 963 175 954 q 211 972 196 972 l 778 972 q 799 963 793 972 q 803 939 806 954 l 793 892 q 769 838 789 865 l 257 35 q 235 9 244 18 q 210 0 225 0 l 140 0 z "},"8":{"ha":876,"x_min":42,"x_max":833,"o":"m 358 -14 q 191 16 263 -14 q 81 101 119 46 q 42 228 42 156 q 47 281 42 257 q 119 424 64 363 q 253 518 175 486 q 193 587 215 546 q 171 679 171 628 q 176 726 171 693 q 303 917 200 847 q 549 986 407 986 q 754 927 675 986 q 833 768 833 868 q 829 724 833 747 q 777 604 817 654 q 671 518 738 554 q 748 440 719 492 q 776 329 776 389 q 771 276 776 300 q 635 63 743 139 q 358 -14 526 -14 m 463 567 q 582 592 525 568 q 674 660 639 617 q 708 758 708 703 q 665 846 708 814 q 544 878 622 878 q 369 824 440 878 q 297 683 297 771 q 339 597 297 628 q 463 567 381 567 m 363 94 q 500 124 436 94 q 603 204 564 153 q 642 318 642 256 q 591 423 642 385 q 456 461 540 461 q 319 434 385 461 q 214 356 254 407 q 174 240 174 306 q 225 133 174 172 q 363 94 276 94 z "},"9":{"ha":821,"x_min":118,"x_max":832,"o":"m 201 0 q 183 9 189 0 q 181 31 178 18 q 190 49 182 40 l 467 346 q 388 338 432 338 q 189 410 260 339 q 118 589 118 482 q 126 658 118 624 q 199 817 144 742 q 343 939 254 892 q 543 986 432 986 q 758 913 685 986 q 832 731 832 840 q 825 661 832 690 q 769 526 808 585 q 671 406 729 468 l 321 28 q 271 0 297 0 l 201 0 m 429 447 q 596 506 521 447 q 692 658 671 564 q 697 707 697 681 q 647 827 697 782 q 519 872 597 872 q 405 846 460 872 q 310 771 350 819 q 258 658 271 722 q 253 608 253 636 q 302 491 253 535 q 429 447 351 447 z "},"\u0000":{"ha":0,"x_min":0,"x_max":0,"o":""},"\r":{"ha":349,"x_min":0,"x_max":0,"o":""}," ":{"ha":349,"x_min":0,"x_max":0,"o":""},"A":{"ha":932,"x_min":-56,"x_max":829,"o":"m -29 0 q -49 8 -42 0 q -56 26 -56 15 q -51 43 -56 35 l 485 942 q 535 972 504 972 l 635 972 q 672 942 668 972 l 826 43 q 822 11 829 22 q 799 0 814 0 l 733 0 q 710 8 718 0 q 699 31 701 15 l 661 224 l 203 224 l 81 24 q 42 0 67 0 l -29 0 m 267 339 l 647 339 l 563 838 l 267 339 z "},"Á":{"ha":932,"x_min":-56,"x_max":858,"o":"m -29 0 q -49 8 -42 0 q -56 26 -56 15 q -51 43 -56 35 l 485 942 q 535 972 504 972 l 635 972 q 672 942 668 972 l 826 43 q 822 11 829 22 q 799 0 814 0 l 733 0 q 710 8 718 0 q 699 31 701 15 l 661 224 l 203 224 l 81 24 q 42 0 67 0 l -29 0 m 267 339 l 647 339 l 563 838 l 267 339 m 557 1042 q 538 1060 538 1042 q 549 1079 540 1072 l 681 1207 q 707 1226 696 1221 q 738 1232 718 1232 l 836 1232 q 853 1226 847 1232 q 858 1211 858 1219 q 846 1189 856 1194 l 657 1057 q 633 1044 643 1047 q 608 1042 624 1042 l 557 1042 z "},"Ă":{"ha":932,"x_min":-56,"x_max":828,"o":"m -29 0 q -49 8 -42 0 q -56 26 -56 15 q -51 43 -56 35 l 485 942 q 535 972 504 972 l 635 972 q 672 942 668 972 l 826 43 q 822 11 829 22 q 799 0 814 0 l 733 0 q 710 8 718 0 q 699 31 701 15 l 661 224 l 203 224 l 81 24 q 42 0 67 0 l -29 0 m 267 339 l 647 339 l 563 838 l 267 339 m 600 1029 q 486 1067 525 1029 q 447 1164 447 1106 q 451 1200 447 1182 q 463 1219 454 1211 q 483 1226 471 1226 l 524 1226 q 542 1219 536 1226 q 544 1200 547 1211 q 542 1172 542 1181 q 556 1127 542 1144 q 604 1110 571 1110 q 672 1135 646 1110 q 707 1200 697 1161 q 718 1219 710 1211 q 739 1226 726 1226 l 779 1226 q 797 1219 792 1226 q 800 1200 803 1211 q 600 1029 765 1029 z "},"Â":{"ha":932,"x_min":-56,"x_max":828,"o":"m -29 0 q -49 8 -42 0 q -56 26 -56 15 q -51 43 -56 35 l 485 942 q 535 972 504 972 l 635 972 q 672 942 668 972 l 826 43 q 822 11 829 22 q 799 0 814 0 l 733 0 q 710 8 718 0 q 699 31 701 15 l 661 224 l 203 224 l 81 24 q 42 0 67 0 l -29 0 m 267 339 l 647 339 l 563 838 l 267 339 m 394 1042 q 379 1057 379 1042 q 392 1078 379 1068 l 553 1211 q 579 1228 569 1225 q 603 1232 589 1232 l 644 1232 q 667 1228 658 1232 q 686 1211 675 1225 l 790 1079 q 796 1058 799 1069 q 788 1047 794 1051 q 774 1042 782 1042 l 736 1042 q 707 1051 721 1042 l 613 1131 l 485 1051 q 473 1046 482 1050 q 453 1042 464 1042 l 394 1042 z "},"Ä":{"ha":932,"x_min":-56,"x_max":828,"o":"m -29 0 q -49 8 -42 0 q -56 26 -56 15 q -51 43 -56 35 l 485 942 q 535 972 504 972 l 635 972 q 672 942 668 972 l 826 43 q 822 11 829 22 q 799 0 814 0 l 733 0 q 710 8 718 0 q 699 31 701 15 l 661 224 l 203 224 l 81 24 q 42 0 67 0 l -29 0 m 267 339 l 647 339 l 563 838 l 267 339 m 418 1042 q 398 1050 404 1042 q 394 1072 392 1058 l 410 1146 q 423 1169 413 1160 q 447 1178 433 1178 l 521 1178 q 542 1169 535 1178 q 546 1146 549 1160 l 531 1072 q 517 1050 528 1058 q 492 1042 506 1042 l 418 1042 m 693 1042 q 672 1050 679 1042 q 668 1072 665 1058 l 683 1146 q 697 1169 686 1160 q 722 1178 708 1178 l 794 1178 q 815 1169 808 1178 q 819 1146 822 1160 l 804 1072 q 790 1050 801 1058 q 765 1042 779 1042 l 693 1042 z "},"À":{"ha":932,"x_min":-56,"x_max":828,"o":"m -29 0 q -49 8 -42 0 q -56 26 -56 15 q -51 43 -56 35 l 485 942 q 535 972 504 972 l 635 972 q 672 942 668 972 l 826 43 q 822 11 829 22 q 799 0 814 0 l 733 0 q 710 8 718 0 q 699 31 701 15 l 661 224 l 203 224 l 81 24 q 42 0 67 0 l -29 0 m 267 339 l 647 339 l 563 838 l 267 339 m 579 1042 q 555 1044 564 1042 q 536 1057 546 1047 l 408 1185 q 401 1201 401 1192 q 410 1223 401 1214 q 433 1232 419 1232 l 529 1232 q 556 1227 549 1232 q 575 1207 564 1222 l 651 1082 q 654 1068 654 1074 q 647 1049 654 1057 q 628 1042 639 1042 l 579 1042 z "},"Ā":{"ha":932,"x_min":-56,"x_max":828,"o":"m -29 0 q -49 8 -42 0 q -56 26 -56 15 q -51 43 -56 35 l 485 942 q 535 972 504 972 l 635 972 q 672 942 668 972 l 826 43 q 822 11 829 22 q 799 0 814 0 l 733 0 q 710 8 718 0 q 699 31 701 15 l 661 224 l 203 224 l 81 24 q 42 0 67 0 l -29 0 m 267 339 l 647 339 l 563 838 l 267 339 m 433 1042 q 413 1050 419 1042 q 410 1072 407 1058 l 419 1122 q 432 1144 421 1136 q 457 1153 443 1153 l 774 1153 q 794 1144 788 1153 q 799 1122 801 1136 l 789 1072 q 775 1050 786 1058 q 750 1042 764 1042 l 433 1042 z "},"Ą":{"ha":928,"x_min":-37,"x_max":839,"o":"m 693 -306 q 577 -267 617 -306 q 538 -161 538 -229 q 543 -107 538 -133 q 601 8 557 -37 q 704 64 644 53 q 699 79 699 69 l 672 224 l 214 224 l 93 24 q 78 8 89 15 q 54 0 68 0 l -12 0 q -31 8 -24 0 q -35 28 -37 17 q -32 33 -33 29 q -28 43 -31 38 l 507 942 q 558 972 526 972 l 647 972 q 685 942 681 972 l 839 43 q 838 28 839 31 q 825 8 836 17 q 803 0 814 0 l 763 0 q 686 -29 719 0 q 642 -107 653 -58 q 639 -135 639 -117 q 660 -191 639 -171 q 719 -211 682 -211 l 739 -211 q 760 -220 753 -211 q 764 -243 767 -229 l 757 -274 q 743 -297 754 -287 q 718 -306 732 -306 l 693 -306 m 278 339 l 658 339 l 574 838 l 278 339 z "},"Å":{"ha":932,"x_min":-56,"x_max":828,"o":"m -29 0 q -49 8 -42 0 q -56 26 -56 15 q -51 43 -56 35 l 485 942 q 535 972 504 972 l 635 972 q 672 942 668 972 l 826 43 q 822 11 829 22 q 799 0 814 0 l 733 0 q 710 8 718 0 q 699 31 701 15 l 661 224 l 203 224 l 81 24 q 42 0 67 0 l -29 0 m 267 339 l 647 339 l 563 838 l 267 339 m 594 1028 q 523 1052 551 1028 q 494 1115 494 1076 q 497 1136 494 1122 q 547 1215 508 1183 q 633 1246 585 1246 q 704 1222 676 1246 q 732 1158 732 1197 q 729 1136 732 1153 q 681 1058 719 1089 q 594 1028 642 1028 m 600 1094 q 640 1110 624 1094 q 657 1149 657 1126 q 625 1178 657 1178 q 587 1163 603 1178 q 571 1125 571 1147 q 578 1103 571 1111 q 600 1094 586 1094 z "},"Ã":{"ha":932,"x_min":-56,"x_max":828,"o":"m -29 0 q -49 8 -42 0 q -56 26 -56 15 q -51 43 -56 35 l 485 942 q 535 972 504 972 l 635 972 q 672 942 668 972 l 826 43 q 822 11 829 22 q 799 0 814 0 l 733 0 q 710 8 718 0 q 699 31 701 15 l 661 224 l 203 224 l 81 24 q 42 0 67 0 l -29 0 m 267 339 l 647 339 l 563 838 l 267 339 m 675 1035 q 632 1042 650 1035 q 592 1063 614 1049 q 568 1076 581 1069 q 543 1082 556 1082 q 516 1076 526 1082 q 496 1058 506 1069 q 468 1042 482 1042 l 425 1042 q 410 1049 415 1042 q 407 1064 406 1056 q 453 1151 414 1110 q 543 1192 492 1192 q 587 1184 568 1192 q 626 1163 606 1176 q 650 1149 638 1156 q 675 1143 663 1143 q 703 1149 693 1143 q 722 1167 713 1156 q 750 1185 735 1185 l 793 1185 q 808 1178 803 1185 q 811 1163 813 1172 q 788 1105 807 1135 q 738 1055 768 1075 q 675 1035 708 1035 z "},"Æ":{"ha":1326,"x_min":-46,"x_max":1360,"o":"m -18 0 q -46 25 -46 0 q -39 49 -46 38 l 493 943 q 539 972 510 972 l 1331 972 q 1353 963 1346 972 q 1357 939 1360 954 l 1347 889 q 1333 867 1343 875 q 1308 858 1322 858 l 842 858 l 775 549 l 1210 549 q 1232 540 1225 549 q 1236 515 1239 531 l 1226 468 q 1213 445 1224 454 q 1188 436 1203 436 l 751 436 l 682 115 l 1160 115 q 1182 106 1175 115 q 1186 82 1189 96 l 1175 32 q 1162 9 1172 18 q 1136 0 1151 0 l 563 0 q 541 9 549 0 q 536 32 533 18 l 578 224 l 211 224 l 89 24 q 50 0 75 0 l -18 0 m 274 339 l 601 339 l 711 850 l 576 850 l 274 339 z "},"Ǽ":{"ha":1326,"x_min":-46,"x_max":1358,"o":"m -18 0 q -46 25 -46 0 q -39 49 -46 38 l 493 943 q 539 972 510 972 l 1331 972 q 1353 963 1346 972 q 1357 939 1360 954 l 1347 889 q 1333 867 1343 875 q 1308 858 1322 858 l 842 858 l 775 549 l 1210 549 q 1232 540 1225 549 q 1236 515 1239 531 l 1226 468 q 1213 445 1224 454 q 1188 436 1203 436 l 751 436 l 682 115 l 1160 115 q 1182 106 1175 115 q 1186 82 1189 96 l 1175 32 q 1162 9 1172 18 q 1136 0 1151 0 l 563 0 q 541 9 549 0 q 536 32 533 18 l 578 224 l 211 224 l 89 24 q 50 0 75 0 l -18 0 m 274 339 l 601 339 l 711 850 l 576 850 l 274 339 m 824 1042 q 804 1060 804 1042 q 815 1079 807 1072 l 947 1207 q 974 1226 963 1221 q 1004 1232 985 1232 l 1103 1232 q 1119 1226 1114 1232 q 1125 1211 1125 1219 q 1113 1189 1122 1194 l 924 1057 q 900 1044 910 1047 q 875 1042 890 1042 l 824 1042 z "},"B":{"ha":931,"x_min":39,"x_max":900,"o":"m 67 0 q 46 9 53 0 q 42 32 39 18 l 233 939 q 247 963 236 954 q 272 972 258 972 l 647 972 q 833 915 765 972 q 900 768 900 858 q 894 717 900 740 q 831 583 876 632 q 731 511 785 533 q 801 439 775 483 q 828 335 828 394 q 822 281 828 307 q 706 78 794 156 q 463 0 618 0 l 67 0 m 538 560 q 685 601 625 560 q 760 715 744 643 q 765 758 765 746 q 619 863 765 863 l 350 863 l 285 560 l 538 560 m 460 110 q 609 158 546 110 q 688 281 672 207 q 693 331 693 304 q 535 451 693 451 l 261 451 l 189 110 l 460 110 z "},"C":{"ha":922,"x_min":67,"x_max":918,"o":"m 393 -14 q 150 63 233 -14 q 67 275 67 140 q 75 363 67 317 q 128 610 92 463 q 284 886 172 786 q 581 986 396 986 q 767 951 692 986 q 881 858 843 917 q 918 726 918 799 q 914 676 918 701 q 886 649 910 649 l 813 649 q 781 679 779 649 q 782 706 782 689 q 575 872 782 872 q 375 806 457 872 q 260 603 293 740 q 210 369 231 488 q 201 285 201 324 q 397 101 201 101 q 577 144 503 101 q 697 293 651 188 q 713 317 704 310 q 736 324 722 324 l 810 324 q 829 316 822 324 q 832 296 836 308 q 688 75 794 164 q 393 -14 582 -14 z "},"Ć":{"ha":922,"x_min":67,"x_max":918,"o":"m 393 -14 q 150 63 233 -14 q 67 275 67 140 q 75 363 67 317 q 128 610 92 463 q 284 886 172 786 q 581 986 396 986 q 767 951 692 986 q 881 858 843 917 q 918 726 918 799 q 914 676 918 701 q 886 649 910 649 l 813 649 q 781 679 779 649 q 782 706 782 689 q 575 872 782 872 q 375 806 457 872 q 260 603 293 740 q 210 369 231 488 q 201 285 201 324 q 397 101 201 101 q 577 144 503 101 q 697 293 651 188 q 713 317 704 310 q 736 324 722 324 l 810 324 q 829 316 822 324 q 832 296 836 308 q 688 75 794 164 q 393 -14 582 -14 m 564 1042 q 544 1060 544 1042 q 556 1079 547 1072 l 688 1207 q 714 1226 703 1221 q 744 1232 725 1232 l 843 1232 q 860 1226 854 1232 q 865 1211 865 1219 q 853 1189 863 1194 l 664 1057 q 640 1044 650 1047 q 615 1042 631 1042 l 564 1042 z "},"Č":{"ha":922,"x_min":67,"x_max":918,"o":"m 393 -14 q 150 63 233 -14 q 67 275 67 140 q 75 363 67 317 q 128 610 92 463 q 284 886 172 786 q 581 986 396 986 q 767 951 692 986 q 881 858 843 917 q 918 726 918 799 q 914 676 918 701 q 886 649 910 649 l 813 649 q 781 679 779 649 q 782 706 782 689 q 575 872 782 872 q 375 806 457 872 q 260 603 293 740 q 210 369 231 488 q 201 285 201 324 q 397 101 201 101 q 577 144 503 101 q 697 293 651 188 q 713 317 704 310 q 736 324 722 324 l 810 324 q 829 316 822 324 q 832 296 836 308 q 688 75 794 164 q 393 -14 582 -14 m 585 1042 q 563 1045 571 1042 q 543 1063 554 1049 l 439 1194 q 433 1215 431 1204 q 441 1227 435 1222 q 456 1232 447 1232 l 493 1232 q 522 1222 507 1232 l 617 1143 l 744 1222 q 756 1228 747 1224 q 776 1232 765 1232 l 833 1232 q 850 1217 850 1232 q 838 1196 850 1207 l 676 1063 q 649 1045 660 1049 q 626 1042 639 1042 l 585 1042 z "},"Ç":{"ha":924,"x_min":86,"x_max":936,"o":"m 333 -306 q 257 -287 289 -306 q 225 -250 225 -269 q 233 -235 225 -242 l 260 -215 q 274 -210 267 -210 q 290 -218 279 -210 q 313 -232 301 -226 q 346 -237 325 -237 q 394 -219 372 -237 q 415 -174 415 -200 q 402 -146 415 -156 q 368 -136 389 -136 q 330 -142 351 -136 q 301 -149 308 -149 q 285 -140 292 -149 l 267 -115 q 264 -107 264 -110 q 272 -87 264 -99 q 281 -74 279 -76 l 322 -8 q 144 79 203 8 q 86 265 86 150 q 94 363 86 311 q 147 610 115 490 q 309 885 192 785 q 611 986 426 986 q 794 951 721 986 q 901 857 867 915 q 936 728 936 799 q 932 676 936 701 q 920 656 931 664 q 897 649 910 649 l 826 649 q 806 656 813 649 q 799 679 800 663 q 744 829 797 786 q 586 872 692 872 q 278 603 346 872 q 229 369 249 476 q 221 289 221 326 q 424 101 221 101 q 599 144 528 101 q 717 293 671 188 q 733 317 724 310 q 757 324 743 324 l 828 324 q 848 316 840 324 q 851 296 856 308 q 772 144 831 215 q 617 30 713 74 q 399 -14 522 -14 l 354 -78 q 408 -67 374 -67 q 470 -90 447 -67 q 493 -151 493 -114 q 449 -260 493 -215 q 333 -306 406 -306 z "},"Ĉ":{"ha":922,"x_min":67,"x_max":918,"o":"m 393 -14 q 150 63 233 -14 q 67 275 67 140 q 75 363 67 317 q 128 610 92 463 q 284 886 172 786 q 581 986 396 986 q 767 951 692 986 q 881 858 843 917 q 918 726 918 799 q 914 676 918 701 q 886 649 910 649 l 813 649 q 781 679 779 649 q 782 706 782 689 q 575 872 782 872 q 375 806 457 872 q 260 603 293 740 q 210 369 231 488 q 201 285 201 324 q 397 101 201 101 q 577 144 503 101 q 697 293 651 188 q 713 317 704 310 q 736 324 722 324 l 810 324 q 829 316 822 324 q 832 296 836 308 q 688 75 794 164 q 393 -14 582 -14 m 406 1042 q 390 1057 390 1042 q 403 1078 390 1068 l 564 1211 q 590 1228 581 1225 q 614 1232 600 1232 l 656 1232 q 678 1228 669 1232 q 697 1211 686 1225 l 801 1079 q 807 1058 810 1069 q 799 1047 806 1051 q 785 1042 793 1042 l 747 1042 q 718 1051 732 1042 l 624 1131 l 496 1051 q 484 1046 493 1050 q 464 1042 475 1042 l 406 1042 z "},"Ċ":{"ha":922,"x_min":67,"x_max":918,"o":"m 393 -14 q 150 63 233 -14 q 67 275 67 140 q 75 363 67 317 q 128 610 92 463 q 284 886 172 786 q 581 986 396 986 q 767 951 692 986 q 881 858 843 917 q 918 726 918 799 q 914 676 918 701 q 886 649 910 649 l 813 649 q 781 679 779 649 q 782 706 782 689 q 575 872 782 872 q 375 806 457 872 q 260 603 293 740 q 210 369 231 488 q 201 285 201 324 q 397 101 201 101 q 577 144 503 101 q 697 293 651 188 q 713 317 704 310 q 736 324 722 324 l 810 324 q 829 316 822 324 q 832 296 836 308 q 688 75 794 164 q 393 -14 582 -14 m 556 1042 q 535 1050 542 1042 q 532 1072 529 1058 l 550 1160 q 563 1183 553 1174 q 588 1192 574 1192 l 675 1192 q 696 1183 689 1192 q 700 1160 703 1174 l 682 1072 q 668 1050 679 1058 q 643 1042 657 1042 l 556 1042 z "},"D":{"ha":954,"x_min":39,"x_max":914,"o":"m 67 0 q 46 9 53 0 q 42 32 39 18 l 233 939 q 247 963 236 954 q 272 972 258 972 l 569 972 q 824 899 733 972 q 914 686 914 825 q 906 596 914 644 q 858 378 878 463 q 773 163 826 244 q 630 40 719 81 q 403 0 540 0 l 67 0 m 404 115 q 622 176 549 115 q 728 383 694 238 q 772 590 757 508 q 782 681 782 638 q 728 815 782 772 q 556 858 674 858 l 349 858 l 189 115 l 404 115 z "},"Ð":{"ha":968,"x_min":32,"x_max":928,"o":"m 81 0 q 59 9 67 0 q 54 32 51 18 l 140 436 l 58 436 q 38 445 44 436 q 35 468 32 454 l 43 510 q 56 533 44 524 q 82 542 67 542 l 164 542 l 247 939 q 260 963 250 954 q 286 972 271 972 l 583 972 q 837 899 746 972 q 928 688 928 825 q 918 596 928 640 q 872 378 896 479 q 787 163 840 244 q 644 40 733 81 q 417 0 554 0 l 81 0 m 417 115 q 577 142 514 115 q 679 227 640 169 q 742 383 718 285 q 786 590 760 463 q 796 679 796 638 q 741 815 796 771 q 568 858 686 858 l 361 858 l 294 542 l 481 542 q 501 533 494 542 q 506 510 508 525 l 497 468 q 484 445 496 454 q 458 436 472 436 l 271 436 l 203 115 l 417 115 z "},"Ď":{"ha":954,"x_min":40,"x_max":914,"o":"m 67 0 q 46 9 53 0 q 42 32 39 18 l 233 939 q 247 963 236 954 q 272 972 258 972 l 569 972 q 824 899 733 972 q 914 686 914 825 q 906 596 914 644 q 858 378 878 463 q 773 163 826 244 q 630 40 719 81 q 403 0 540 0 l 67 0 m 404 115 q 622 176 549 115 q 728 383 694 238 q 772 590 757 508 q 782 681 782 638 q 728 815 782 772 q 556 858 674 858 l 349 858 l 189 115 l 404 115 m 536 1042 q 514 1045 522 1042 q 494 1063 506 1049 l 390 1194 q 385 1215 382 1204 q 392 1227 386 1222 q 407 1232 399 1232 l 444 1232 q 474 1222 458 1232 l 568 1143 l 696 1222 q 708 1228 699 1224 q 728 1232 717 1232 l 785 1232 q 801 1217 801 1232 q 789 1196 801 1207 l 628 1063 q 601 1045 611 1049 q 578 1042 590 1042 l 536 1042 z "},"Đ":{"ha":968,"x_min":32,"x_max":928,"o":"m 81 0 q 59 9 67 0 q 54 32 51 18 l 140 436 l 58 436 q 38 445 44 436 q 35 468 32 454 l 43 510 q 56 533 44 524 q 82 542 67 542 l 164 542 l 247 939 q 260 963 250 954 q 286 972 271 972 l 583 972 q 837 899 746 972 q 928 688 928 825 q 918 596 928 640 q 872 378 896 479 q 787 163 840 244 q 644 40 733 81 q 417 0 554 0 l 81 0 m 417 115 q 577 142 514 115 q 679 227 640 169 q 742 383 718 285 q 786 590 760 463 q 796 679 796 638 q 741 815 796 771 q 568 858 686 858 l 361 858 l 294 542 l 481 542 q 501 533 494 542 q 506 510 508 525 l 497 468 q 484 445 496 454 q 458 436 472 436 l 271 436 l 203 115 l 417 115 z "},"E":{"ha":839,"x_min":39,"x_max":871,"o":"m 67 0 q 46 9 53 0 q 42 32 39 18 l 233 939 q 247 963 236 954 q 272 972 258 972 l 843 972 q 865 963 858 972 q 868 939 871 954 l 858 889 q 844 867 856 875 q 819 858 833 858 l 346 858 l 279 549 l 722 549 q 743 540 736 549 q 747 515 750 531 l 738 468 q 724 445 735 454 q 699 436 714 436 l 256 436 l 188 115 l 672 115 q 693 106 686 115 q 697 82 700 97 l 688 32 q 674 9 685 18 q 649 0 663 0 l 67 0 z "},"É":{"ha":839,"x_min":40,"x_max":869,"o":"m 67 0 q 46 9 53 0 q 42 32 39 18 l 233 939 q 247 963 236 954 q 272 972 258 972 l 843 972 q 865 963 858 972 q 868 939 871 954 l 858 889 q 844 867 856 875 q 819 858 833 858 l 346 858 l 279 549 l 722 549 q 743 540 736 549 q 747 515 750 531 l 738 468 q 724 445 735 454 q 699 436 714 436 l 256 436 l 188 115 l 672 115 q 693 106 686 115 q 697 82 700 97 l 688 32 q 674 9 685 18 q 649 0 663 0 l 67 0 m 525 1042 q 506 1060 506 1042 q 517 1079 508 1072 l 649 1207 q 675 1226 664 1221 q 706 1232 686 1232 l 804 1232 q 821 1226 815 1232 q 826 1211 826 1219 q 814 1189 824 1194 l 625 1057 q 601 1044 611 1047 q 576 1042 592 1042 l 525 1042 z "},"Ĕ":{"ha":839,"x_min":40,"x_max":869,"o":"m 67 0 q 46 9 53 0 q 42 32 39 18 l 233 939 q 247 963 236 954 q 272 972 258 972 l 843 972 q 865 963 858 972 q 868 939 871 954 l 858 889 q 844 867 856 875 q 819 858 833 858 l 346 858 l 279 549 l 722 549 q 743 540 736 549 q 747 515 750 531 l 738 468 q 724 445 735 454 q 699 436 714 436 l 256 436 l 188 115 l 672 115 q 693 106 686 115 q 697 82 700 97 l 688 32 q 674 9 685 18 q 649 0 663 0 l 67 0 m 565 1029 q 451 1067 490 1029 q 413 1164 413 1106 q 417 1200 413 1182 q 428 1219 419 1211 q 449 1226 436 1226 l 489 1226 q 507 1219 501 1226 q 510 1200 513 1211 q 507 1172 507 1181 q 522 1127 507 1144 q 569 1110 536 1110 q 637 1135 611 1110 q 672 1200 663 1161 q 683 1219 675 1211 q 704 1226 692 1226 l 744 1226 q 763 1219 757 1226 q 765 1200 768 1211 q 565 1029 731 1029 z "},"Ě":{"ha":839,"x_min":40,"x_max":869,"o":"m 67 0 q 46 9 53 0 q 42 32 39 18 l 233 939 q 247 963 236 954 q 272 972 258 972 l 843 972 q 865 963 858 972 q 868 939 871 954 l 858 889 q 844 867 856 875 q 819 858 833 858 l 346 858 l 279 549 l 722 549 q 743 540 736 549 q 747 515 750 531 l 738 468 q 724 445 735 454 q 699 436 714 436 l 256 436 l 188 115 l 672 115 q 693 106 686 115 q 697 82 700 97 l 688 32 q 674 9 685 18 q 649 0 663 0 l 67 0 m 543 1042 q 521 1045 529 1042 q 501 1063 513 1049 l 397 1194 q 392 1215 389 1204 q 399 1227 393 1222 q 414 1232 406 1232 l 451 1232 q 481 1222 465 1232 l 575 1143 l 703 1222 q 715 1228 706 1224 q 735 1232 724 1232 l 792 1232 q 808 1217 808 1232 q 796 1196 808 1207 l 635 1063 q 608 1045 618 1049 q 585 1042 597 1042 l 543 1042 z "},"Ê":{"ha":839,"x_min":40,"x_max":869,"o":"m 67 0 q 46 9 53 0 q 42 32 39 18 l 233 939 q 247 963 236 954 q 272 972 258 972 l 843 972 q 865 963 858 972 q 868 939 871 954 l 858 889 q 844 867 856 875 q 819 858 833 858 l 346 858 l 279 549 l 722 549 q 743 540 736 549 q 747 515 750 531 l 738 468 q 724 445 735 454 q 699 436 714 436 l 256 436 l 188 115 l 672 115 q 693 106 686 115 q 697 82 700 97 l 688 32 q 674 9 685 18 q 649 0 663 0 l 67 0 m 367 1042 q 351 1057 351 1042 q 364 1078 351 1068 l 525 1211 q 551 1228 542 1225 q 575 1232 561 1232 l 617 1232 q 639 1228 631 1232 q 658 1211 647 1225 l 763 1079 q 768 1058 771 1069 q 760 1047 767 1051 q 746 1042 754 1042 l 708 1042 q 679 1051 693 1042 l 585 1131 l 457 1051 q 445 1046 454 1050 q 425 1042 436 1042 l 367 1042 z "},"Ë":{"ha":839,"x_min":40,"x_max":869,"o":"m 67 0 q 46 9 53 0 q 42 32 39 18 l 233 939 q 247 963 236 954 q 272 972 258 972 l 843 972 q 865 963 858 972 q 868 939 871 954 l 858 889 q 844 867 856 875 q 819 858 833 858 l 346 858 l 279 549 l 722 549 q 743 540 736 549 q 747 515 750 531 l 738 468 q 724 445 735 454 q 699 436 714 436 l 256 436 l 188 115 l 672 115 q 693 106 686 115 q 697 82 700 97 l 688 32 q 674 9 685 18 q 649 0 663 0 l 67 0 m 392 1042 q 372 1050 378 1042 q 368 1072 365 1058 l 383 1146 q 397 1169 386 1160 q 421 1178 407 1178 l 494 1178 q 515 1169 508 1178 q 519 1146 522 1160 l 504 1072 q 490 1050 501 1058 q 465 1042 479 1042 l 392 1042 m 667 1042 q 646 1050 653 1042 q 642 1072 639 1058 l 657 1146 q 671 1169 660 1160 q 696 1178 682 1178 l 768 1178 q 789 1169 782 1178 q 793 1146 796 1160 l 778 1072 q 764 1050 775 1058 q 739 1042 753 1042 l 667 1042 z "},"Ė":{"ha":839,"x_min":40,"x_max":869,"o":"m 67 0 q 46 9 53 0 q 42 32 39 18 l 233 939 q 247 963 236 954 q 272 972 258 972 l 843 972 q 865 963 858 972 q 868 939 871 954 l 858 889 q 844 867 856 875 q 819 858 833 858 l 346 858 l 279 549 l 722 549 q 743 540 736 549 q 747 515 750 531 l 738 468 q 724 445 735 454 q 699 436 714 436 l 256 436 l 188 115 l 672 115 q 693 106 686 115 q 697 82 700 97 l 688 32 q 674 9 685 18 q 649 0 663 0 l 67 0 m 522 1042 q 502 1050 508 1042 q 499 1072 496 1058 l 517 1160 q 530 1183 519 1174 q 554 1192 540 1192 l 642 1192 q 663 1183 656 1192 q 667 1160 669 1174 l 649 1072 q 635 1050 646 1058 q 610 1042 624 1042 l 522 1042 z "},"È":{"ha":839,"x_min":40,"x_max":869,"o":"m 67 0 q 46 9 53 0 q 42 32 39 18 l 233 939 q 247 963 236 954 q 272 972 258 972 l 843 972 q 865 963 858 972 q 868 939 871 954 l 858 889 q 844 867 856 875 q 819 858 833 858 l 346 858 l 279 549 l 722 549 q 743 540 736 549 q 747 515 750 531 l 738 468 q 724 445 735 454 q 699 436 714 436 l 256 436 l 188 115 l 672 115 q 693 106 686 115 q 697 82 700 97 l 688 32 q 674 9 685 18 q 649 0 663 0 l 67 0 m 569 1042 q 545 1044 554 1042 q 526 1057 536 1047 l 399 1185 q 392 1201 392 1192 q 401 1223 392 1214 q 424 1232 410 1232 l 519 1232 q 547 1227 539 1232 q 565 1207 554 1222 l 642 1082 q 644 1068 644 1074 q 637 1049 644 1057 q 618 1042 629 1042 l 569 1042 z "},"Ē":{"ha":839,"x_min":40,"x_max":869,"o":"m 67 0 q 46 9 53 0 q 42 32 39 18 l 233 939 q 247 963 236 954 q 272 972 258 972 l 843 972 q 865 963 858 972 q 868 939 871 954 l 858 889 q 844 867 856 875 q 819 858 833 858 l 346 858 l 279 549 l 722 549 q 743 540 736 549 q 747 515 750 531 l 738 468 q 724 445 735 454 q 699 436 714 436 l 256 436 l 188 115 l 672 115 q 693 106 686 115 q 697 82 700 97 l 688 32 q 674 9 685 18 q 649 0 663 0 l 67 0 m 417 1042 q 397 1050 403 1042 q 393 1072 390 1058 l 403 1122 q 415 1144 404 1136 q 440 1153 426 1153 l 757 1153 q 778 1144 771 1153 q 782 1122 785 1136 l 772 1072 q 758 1050 769 1058 q 733 1042 747 1042 l 417 1042 z "},"Ę":{"ha":839,"x_min":39,"x_max":871,"o":"m 561 -306 q 444 -266 485 -306 q 403 -158 403 -226 q 408 -104 403 -131 q 456 0 421 -43 l 67 0 q 46 9 53 0 q 42 32 39 18 l 233 939 q 247 963 236 954 q 272 972 258 972 l 843 972 q 865 963 858 972 q 868 939 871 954 l 858 889 q 844 867 856 875 q 819 858 833 858 l 346 858 l 279 549 l 722 549 q 743 540 736 549 q 747 515 750 531 l 738 468 q 724 445 735 454 q 699 436 714 436 l 256 436 l 188 115 l 672 115 q 693 106 686 115 q 697 82 700 97 l 688 32 q 674 9 685 18 q 649 0 663 0 l 621 0 q 548 -32 579 -3 q 507 -107 517 -61 q 504 -135 504 -117 q 526 -191 504 -171 q 585 -211 547 -211 l 604 -211 q 625 -220 618 -211 q 629 -243 632 -229 l 622 -274 q 609 -297 619 -287 q 585 -306 599 -306 l 561 -306 z "},"F":{"ha":813,"x_min":39,"x_max":865,"o":"m 67 0 q 46 9 53 0 q 42 32 39 18 l 233 939 q 247 963 236 954 q 272 972 258 972 l 836 972 q 858 963 851 972 q 863 939 865 954 l 851 888 q 838 865 849 874 q 813 856 828 856 l 347 856 l 276 526 l 714 526 q 735 518 728 526 q 739 494 742 510 l 728 442 q 715 419 725 428 q 689 410 704 410 l 251 410 l 171 32 q 157 9 168 18 q 132 0 146 0 l 67 0 z "},"G":{"ha":943,"x_min":86,"x_max":942,"o":"m 403 -14 q 167 60 247 -14 q 86 267 86 135 q 94 357 86 310 q 150 618 117 485 q 313 887 192 788 q 615 986 435 986 q 801 948 728 986 q 908 855 874 910 q 942 746 942 800 q 939 721 942 738 q 927 700 936 708 q 904 692 918 692 l 828 692 q 810 697 815 692 q 801 718 804 703 q 744 827 794 782 q 590 872 693 872 q 394 808 474 872 q 282 611 315 744 q 228 364 251 492 q 221 290 221 319 q 428 101 221 101 q 631 166 546 101 q 742 360 715 231 l 754 419 l 542 419 q 522 428 528 419 q 518 453 515 438 l 526 494 q 540 518 529 508 q 565 528 551 528 l 876 528 q 899 518 892 528 q 903 494 906 508 l 874 363 q 785 165 850 250 q 622 33 721 79 q 403 -14 524 -14 z "},"Ğ":{"ha":940,"x_min":86,"x_max":942,"o":"m 403 -14 q 167 60 247 -14 q 86 267 86 135 q 94 357 86 310 q 150 618 117 485 q 313 887 192 788 q 615 986 435 986 q 801 948 728 986 q 908 855 874 910 q 942 746 942 800 q 939 721 942 738 q 927 700 936 708 q 904 692 918 692 l 828 692 q 810 697 815 692 q 801 718 804 703 q 744 827 794 782 q 590 872 693 872 q 394 808 474 872 q 282 611 315 744 q 228 364 251 492 q 221 290 221 319 q 428 101 221 101 q 631 166 546 101 q 742 360 715 231 l 754 419 l 542 419 q 522 428 528 419 q 518 453 515 438 l 526 494 q 540 518 529 508 q 565 528 551 528 l 876 528 q 899 518 892 528 q 903 494 906 508 l 874 363 q 785 165 850 250 q 622 33 721 79 q 403 -14 524 -14 m 600 1029 q 486 1067 525 1029 q 447 1164 447 1106 q 451 1200 447 1182 q 463 1219 454 1211 q 483 1226 471 1226 l 524 1226 q 542 1219 536 1226 q 544 1200 547 1211 q 542 1172 542 1181 q 556 1127 542 1144 q 604 1110 571 1110 q 672 1135 646 1110 q 707 1200 697 1161 q 718 1219 710 1211 q 739 1226 726 1226 l 779 1226 q 797 1219 792 1226 q 800 1200 803 1211 q 600 1029 765 1029 z "},"Ĝ":{"ha":940,"x_min":86,"x_max":942,"o":"m 403 -14 q 167 60 247 -14 q 86 267 86 135 q 94 357 86 310 q 150 618 117 485 q 313 887 192 788 q 615 986 435 986 q 801 948 728 986 q 908 855 874 910 q 942 746 942 800 q 939 721 942 738 q 927 700 936 708 q 904 692 918 692 l 828 692 q 810 697 815 692 q 801 718 804 703 q 744 827 794 782 q 590 872 693 872 q 394 808 474 872 q 282 611 315 744 q 228 364 251 492 q 221 290 221 319 q 428 101 221 101 q 631 166 546 101 q 742 360 715 231 l 754 419 l 542 419 q 522 428 528 419 q 518 453 515 438 l 526 494 q 540 518 529 508 q 565 528 551 528 l 876 528 q 899 518 892 528 q 903 494 906 508 l 874 363 q 785 165 850 250 q 622 33 721 79 q 403 -14 524 -14 m 396 1042 q 381 1057 381 1042 q 393 1078 381 1068 l 554 1211 q 581 1228 571 1225 q 604 1232 590 1232 l 646 1232 q 668 1228 660 1232 q 688 1211 676 1225 l 792 1079 q 797 1058 800 1069 q 790 1047 796 1051 q 775 1042 783 1042 l 738 1042 q 708 1051 722 1042 l 614 1131 l 486 1051 q 474 1046 483 1050 q 454 1042 465 1042 l 396 1042 z "},"Ģ":{"ha":940,"x_min":86,"x_max":942,"o":"m 403 -14 q 167 60 247 -14 q 86 267 86 135 q 94 357 86 310 q 150 618 117 485 q 313 887 192 788 q 615 986 435 986 q 801 948 728 986 q 908 855 874 910 q 942 746 942 800 q 939 721 942 738 q 927 700 936 708 q 904 692 918 692 l 828 692 q 810 697 815 692 q 801 718 804 703 q 744 827 794 782 q 590 872 693 872 q 394 808 474 872 q 282 611 315 744 q 228 364 251 492 q 221 290 221 319 q 428 101 221 101 q 631 166 546 101 q 742 360 715 231 l 754 419 l 542 419 q 522 428 528 419 q 518 453 515 438 l 526 494 q 540 518 529 508 q 565 528 551 528 l 876 528 q 899 518 892 528 q 903 494 906 508 l 874 363 q 785 165 850 250 q 622 33 721 79 q 403 -14 524 -14 m 240 -301 q 227 -296 232 -301 q 222 -283 222 -290 q 225 -271 222 -279 l 285 -110 q 332 -69 300 -69 l 419 -69 q 434 -76 429 -69 q 436 -92 439 -83 q 428 -115 433 -103 l 335 -269 q 315 -293 325 -285 q 289 -301 304 -301 l 240 -301 z "},"Ġ":{"ha":940,"x_min":86,"x_max":942,"o":"m 403 -14 q 167 60 247 -14 q 86 267 86 135 q 94 357 86 310 q 150 618 117 485 q 313 887 192 788 q 615 986 435 986 q 801 948 728 986 q 908 855 874 910 q 942 746 942 800 q 939 721 942 738 q 927 700 936 708 q 904 692 918 692 l 828 692 q 810 697 815 692 q 801 718 804 703 q 744 827 794 782 q 590 872 693 872 q 394 808 474 872 q 282 611 315 744 q 228 364 251 492 q 221 290 221 319 q 428 101 221 101 q 631 166 546 101 q 742 360 715 231 l 754 419 l 542 419 q 522 428 528 419 q 518 453 515 438 l 526 494 q 540 518 529 508 q 565 528 551 528 l 876 528 q 899 518 892 528 q 903 494 906 508 l 874 363 q 785 165 850 250 q 622 33 721 79 q 403 -14 524 -14 m 553 1042 q 533 1050 539 1042 q 529 1072 526 1058 l 547 1160 q 560 1183 550 1174 q 585 1192 571 1192 l 672 1192 q 693 1183 686 1192 q 697 1160 700 1174 l 679 1072 q 665 1050 676 1058 q 640 1042 654 1042 l 553 1042 z "},"H":{"ha":990,"x_min":39,"x_max":982,"o":"m 67 0 q 46 9 53 0 q 42 32 39 18 l 233 939 q 247 963 236 954 q 272 972 258 972 l 339 972 q 361 963 354 972 q 365 939 368 954 l 282 553 l 767 553 l 849 939 q 863 963 851 954 q 888 972 874 972 l 954 972 q 976 963 969 972 q 979 939 982 954 l 788 32 q 774 9 785 18 q 749 0 763 0 l 682 0 q 660 9 668 0 q 656 32 653 18 l 742 432 l 258 432 l 172 32 q 158 9 169 18 q 133 0 147 0 l 67 0 z "},"Ħ":{"ha":1000,"x_min":39,"x_max":1044,"o":"m 1015 810 q 1038 801 1031 810 q 1042 776 1044 792 l 1035 744 q 1021 722 1032 731 q 994 713 1010 713 l 932 713 l 788 32 q 774 9 785 18 q 749 0 763 0 l 682 0 q 660 9 668 0 q 656 32 653 18 l 742 432 l 258 432 l 172 32 q 158 9 169 18 q 133 0 147 0 l 67 0 q 46 9 53 0 q 42 32 39 18 l 186 713 l 131 713 q 110 722 117 713 q 107 744 104 731 l 114 776 q 127 801 117 792 q 153 810 138 810 l 206 810 l 233 939 q 247 963 236 954 q 272 972 258 972 l 339 972 q 361 963 354 972 q 365 939 368 954 l 338 810 l 821 810 l 849 939 q 863 963 851 954 q 888 972 874 972 l 954 972 q 976 963 969 972 q 979 939 982 954 l 951 810 l 1015 810 m 767 553 l 800 713 l 317 713 l 282 553 l 767 553 z "},"Ĥ":{"ha":990,"x_min":40,"x_max":981,"o":"m 67 0 q 46 9 53 0 q 42 32 39 18 l 233 939 q 247 963 236 954 q 272 972 258 972 l 339 972 q 361 963 354 972 q 365 939 368 954 l 282 553 l 767 553 l 849 939 q 863 963 851 954 q 888 972 874 972 l 954 972 q 976 963 969 972 q 979 939 982 954 l 788 32 q 774 9 785 18 q 749 0 763 0 l 682 0 q 660 9 668 0 q 656 32 653 18 l 742 432 l 258 432 l 172 32 q 158 9 169 18 q 133 0 147 0 l 67 0 m 413 1042 q 397 1057 397 1042 q 410 1078 397 1068 l 571 1211 q 597 1228 588 1225 q 621 1232 607 1232 l 663 1232 q 685 1228 676 1232 q 704 1211 693 1225 l 808 1079 q 814 1058 817 1069 q 806 1047 813 1051 q 792 1042 800 1042 l 754 1042 q 725 1051 739 1042 l 631 1131 l 503 1051 q 491 1046 500 1050 q 471 1042 482 1042 l 413 1042 z "},"I":{"ha":376,"x_min":38,"x_max":369,"o":"m 65 0 q 44 9 51 0 q 40 32 38 18 l 235 940 q 247 963 236 954 q 272 972 258 972 l 342 972 q 363 963 356 972 q 368 940 369 954 l 174 32 q 160 9 171 18 q 136 0 150 0 l 65 0 z "},"Ĳ":{"ha":869,"x_min":39,"x_max":871,"o":"m 67 0 q 46 9 53 0 q 42 32 39 18 l 235 940 q 247 963 236 954 q 272 972 258 972 l 342 972 q 363 963 356 972 q 368 940 369 954 l 174 32 q 160 9 171 18 q 136 0 150 0 l 67 0 m 307 -14 q 286 -6 293 -14 q 282 18 279 3 l 293 72 q 307 96 296 86 q 332 106 318 106 q 515 175 442 106 q 614 365 588 244 l 736 940 q 749 963 738 954 q 774 972 760 972 l 842 972 q 864 963 857 972 q 868 939 871 954 l 744 356 q 603 80 706 174 q 307 -14 501 -14 z "},"Í":{"ha":376,"x_min":39,"x_max":585,"o":"m 65 0 q 44 9 51 0 q 40 32 38 18 l 235 940 q 247 963 236 954 q 272 972 258 972 l 342 972 q 363 963 356 972 q 368 940 369 954 l 174 32 q 160 9 171 18 q 136 0 150 0 l 65 0 m 283 1042 q 264 1060 264 1042 q 275 1079 267 1072 l 407 1207 q 433 1226 422 1221 q 464 1232 444 1232 l 563 1232 q 579 1226 574 1232 q 585 1211 585 1219 q 572 1189 582 1194 l 383 1057 q 360 1044 369 1047 q 335 1042 350 1042 l 283 1042 z "},"Ĭ":{"ha":376,"x_min":39,"x_max":531,"o":"m 65 0 q 44 9 51 0 q 40 32 38 18 l 235 940 q 247 963 236 954 q 272 972 258 972 l 342 972 q 363 963 356 972 q 368 940 369 954 l 174 32 q 160 9 171 18 q 136 0 150 0 l 65 0 m 331 1029 q 217 1067 256 1029 q 178 1164 178 1106 q 182 1200 178 1182 q 193 1219 185 1211 q 214 1226 201 1226 l 254 1226 q 272 1219 267 1226 q 275 1200 278 1211 q 272 1172 272 1181 q 287 1127 272 1144 q 335 1110 301 1110 q 402 1135 376 1110 q 438 1200 428 1161 q 449 1219 440 1211 q 469 1226 457 1226 l 510 1226 q 528 1219 522 1226 q 531 1200 533 1211 q 331 1029 496 1029 z "},"Î":{"ha":376,"x_min":39,"x_max":525,"o":"m 65 0 q 44 9 51 0 q 40 32 38 18 l 235 940 q 247 963 236 954 q 272 972 258 972 l 342 972 q 363 963 356 972 q 368 940 369 954 l 174 32 q 160 9 171 18 q 136 0 150 0 l 65 0 m 124 1042 q 108 1057 108 1042 q 121 1078 108 1068 l 282 1211 q 308 1228 299 1225 q 332 1232 318 1232 l 374 1232 q 396 1228 388 1232 q 415 1211 404 1225 l 519 1079 q 525 1058 528 1069 q 517 1047 524 1051 q 503 1042 511 1042 l 465 1042 q 436 1051 450 1042 l 342 1131 l 214 1051 q 202 1046 211 1050 q 182 1042 193 1042 l 124 1042 z "},"Ï":{"ha":376,"x_min":39,"x_max":550,"o":"m 65 0 q 44 9 51 0 q 40 32 38 18 l 235 940 q 247 963 236 954 q 272 972 258 972 l 342 972 q 363 963 356 972 q 368 940 369 954 l 174 32 q 160 9 171 18 q 136 0 150 0 l 65 0 m 147 1042 q 127 1050 133 1042 q 124 1072 121 1058 l 139 1146 q 152 1169 142 1160 q 176 1178 163 1178 l 250 1178 q 271 1169 264 1178 q 275 1146 278 1160 l 260 1072 q 246 1050 257 1058 q 221 1042 235 1042 l 147 1042 m 422 1042 q 401 1050 408 1042 q 397 1072 394 1058 l 413 1146 q 426 1169 415 1160 q 451 1178 438 1178 l 524 1178 q 544 1169 538 1178 q 549 1146 551 1160 l 533 1072 q 519 1050 531 1058 q 494 1042 508 1042 l 422 1042 z "},"İ":{"ha":376,"x_min":39,"x_max":422,"o":"m 65 0 q 44 9 51 0 q 40 32 38 18 l 235 940 q 247 963 236 954 q 272 972 258 972 l 342 972 q 363 963 356 972 q 368 940 369 954 l 174 32 q 160 9 171 18 q 136 0 150 0 l 65 0 m 276 1042 q 256 1050 263 1042 q 253 1072 250 1058 l 271 1160 q 284 1183 274 1174 q 308 1192 294 1192 l 396 1192 q 417 1183 410 1192 q 421 1160 424 1174 l 403 1072 q 389 1050 400 1058 q 364 1042 378 1042 l 276 1042 z "},"Ì":{"ha":376,"x_min":39,"x_max":390,"o":"m 65 0 q 44 9 51 0 q 40 32 38 18 l 235 940 q 247 963 236 954 q 272 972 258 972 l 342 972 q 363 963 356 972 q 368 940 369 954 l 174 32 q 160 9 171 18 q 136 0 150 0 l 65 0 m 315 1042 q 291 1044 300 1042 q 272 1057 282 1047 l 144 1185 q 138 1201 138 1192 q 147 1223 138 1214 q 169 1232 156 1232 l 265 1232 q 292 1227 285 1232 q 311 1207 300 1222 l 388 1082 q 390 1068 390 1074 q 383 1049 390 1057 q 364 1042 375 1042 l 315 1042 z "},"Ī":{"ha":376,"x_min":39,"x_max":529,"o":"m 65 0 q 44 9 51 0 q 40 32 38 18 l 235 940 q 247 963 236 954 q 272 972 258 972 l 342 972 q 363 963 356 972 q 368 940 369 954 l 174 32 q 160 9 171 18 q 136 0 150 0 l 65 0 m 164 1042 q 144 1050 150 1042 q 140 1072 138 1058 l 150 1122 q 163 1144 151 1136 q 188 1153 174 1153 l 504 1153 q 525 1144 518 1153 q 529 1122 532 1136 l 519 1072 q 506 1050 517 1058 q 481 1042 494 1042 l 164 1042 z "},"Į":{"ha":397,"x_min":-71,"x_max":410,"o":"m 85 -306 q -31 -267 8 -306 q -71 -161 -71 -229 q -65 -107 -71 -133 q -7 8 -51 -37 q 100 64 38 53 l 97 74 q 94 92 92 79 l 274 940 q 288 963 276 954 q 313 972 299 972 l 382 972 q 403 964 396 972 q 407 940 410 956 l 214 32 q 200 9 211 18 q 175 0 189 0 l 156 0 q 68 -38 104 0 q 32 -136 32 -76 q 53 -192 32 -172 q 111 -212 74 -212 l 131 -212 q 151 -221 144 -212 q 156 -243 158 -229 l 149 -275 q 135 -297 146 -289 q 110 -306 124 -306 l 85 -306 z "},"Ĩ":{"ha":376,"x_min":39,"x_max":536,"o":"m 65 0 q 44 9 51 0 q 40 32 38 18 l 235 940 q 247 963 236 954 q 272 972 258 972 l 342 972 q 363 963 356 972 q 368 940 369 954 l 174 32 q 160 9 171 18 q 136 0 150 0 l 65 0 m 400 1035 q 357 1042 375 1035 q 317 1063 339 1049 q 293 1076 306 1069 q 268 1082 281 1082 q 241 1076 251 1082 q 221 1058 231 1069 q 193 1042 207 1042 l 150 1042 q 135 1049 140 1042 q 132 1064 131 1056 q 178 1151 139 1110 q 268 1192 217 1192 q 312 1184 293 1192 q 351 1163 331 1176 q 375 1149 363 1156 q 400 1143 388 1143 q 428 1149 418 1143 q 447 1167 438 1156 q 475 1185 460 1185 l 518 1185 q 533 1178 528 1185 q 536 1163 538 1172 q 513 1105 532 1135 q 463 1055 493 1075 q 400 1035 433 1035 z "},"J":{"ha":872,"x_min":18,"x_max":874,"o":"m 328 -14 q 175 13 246 -14 q 61 97 104 40 q 18 233 18 153 q 21 279 18 264 q 32 301 24 293 q 53 310 40 310 l 126 310 q 148 301 140 310 q 154 278 156 293 q 153 249 153 268 q 333 101 153 101 q 519 169 450 101 q 614 358 588 238 l 719 856 l 225 856 q 203 865 211 856 q 199 888 196 874 l 211 940 q 224 963 213 954 q 249 972 235 972 l 844 972 q 867 963 860 972 q 871 939 874 954 l 747 356 q 610 82 710 178 q 328 -14 510 -14 z "},"Ĵ":{"ha":872,"x_min":18,"x_max":872,"o":"m 328 -14 q 175 13 246 -14 q 61 97 104 40 q 18 233 18 153 q 21 279 18 264 q 32 301 24 293 q 53 310 40 310 l 126 310 q 148 301 140 310 q 154 278 156 293 q 153 249 153 268 q 333 101 153 101 q 519 169 450 101 q 614 358 588 238 l 719 856 l 225 856 q 203 865 211 856 q 199 888 196 874 l 211 940 q 224 963 213 954 q 249 972 235 972 l 844 972 q 867 963 860 972 q 871 939 874 954 l 747 356 q 610 82 710 178 q 328 -14 510 -14 m 369 1042 q 354 1057 354 1042 q 367 1078 354 1068 l 528 1211 q 554 1228 544 1225 q 578 1232 564 1232 l 619 1232 q 642 1228 633 1232 q 661 1211 650 1225 l 765 1079 q 771 1058 774 1069 q 763 1047 769 1051 q 749 1042 757 1042 l 711 1042 q 682 1051 696 1042 l 588 1131 l 460 1051 q 448 1046 457 1050 q 428 1042 439 1042 l 369 1042 z "},"K":{"ha":815,"x_min":39,"x_max":868,"o":"m 67 0 q 46 9 53 0 q 42 32 39 18 l 233 939 q 247 963 236 954 q 271 972 257 972 l 338 972 q 360 963 353 972 q 364 939 367 954 l 293 604 l 711 950 q 735 966 722 960 q 768 972 747 972 l 842 972 q 861 964 854 972 q 868 944 868 956 q 860 925 868 933 l 354 503 l 714 47 q 721 28 721 39 q 712 8 721 17 q 692 0 703 0 l 622 0 q 575 22 590 0 l 254 424 l 171 32 q 158 9 168 18 q 135 0 149 0 l 67 0 z "},"Ķ":{"ha":815,"x_min":40,"x_max":868,"o":"m 67 0 q 46 9 53 0 q 42 32 39 18 l 233 939 q 247 963 236 954 q 271 972 257 972 l 338 972 q 360 963 353 972 q 364 939 367 954 l 293 604 l 711 950 q 735 966 722 960 q 768 972 747 972 l 842 972 q 861 964 854 972 q 868 944 868 956 q 860 925 868 933 l 354 503 l 714 47 q 721 28 721 39 q 712 8 721 17 q 692 0 703 0 l 622 0 q 575 22 590 0 l 254 424 l 171 32 q 158 9 168 18 q 135 0 149 0 l 67 0 m 214 -301 q 201 -296 206 -301 q 196 -283 196 -290 q 199 -271 196 -279 l 258 -110 q 306 -69 274 -69 l 393 -69 q 408 -76 403 -69 q 410 -92 413 -83 q 401 -115 407 -103 l 308 -269 q 288 -293 299 -285 q 263 -301 278 -301 l 214 -301 z "},"L":{"ha":769,"x_min":39,"x_max":683,"o":"m 67 0 q 46 9 53 0 q 42 32 39 18 l 235 940 q 247 963 236 954 q 272 972 258 972 l 340 972 q 362 964 354 972 q 367 940 369 956 l 190 117 l 654 117 q 676 108 669 117 q 681 85 683 99 l 669 32 q 656 9 667 18 q 631 0 644 0 l 67 0 z "},"Ĺ":{"ha":769,"x_min":40,"x_max":682,"o":"m 67 0 q 46 9 53 0 q 42 32 39 18 l 235 940 q 247 963 236 954 q 272 972 258 972 l 340 972 q 362 964 354 972 q 367 940 369 956 l 190 117 l 654 117 q 676 108 669 117 q 681 85 683 99 l 669 32 q 656 9 667 18 q 631 0 644 0 l 67 0 m 283 1042 q 264 1060 264 1042 q 275 1079 267 1072 l 407 1207 q 433 1226 422 1221 q 464 1232 444 1232 l 563 1232 q 579 1226 574 1232 q 585 1211 585 1219 q 572 1189 582 1194 l 383 1057 q 360 1044 369 1047 q 335 1042 350 1042 l 283 1042 z "},"Ľ":{"ha":771,"x_min":40,"x_max":682,"o":"m 479 754 q 466 760 471 754 q 461 772 461 765 q 464 785 461 776 l 524 946 q 571 986 539 986 l 658 986 q 673 979 668 986 q 675 964 678 972 q 667 940 672 953 l 574 786 q 553 763 564 771 q 528 754 543 754 l 479 754 m 67 0 q 46 9 53 0 q 42 32 39 18 l 235 940 q 247 963 236 954 q 272 972 258 972 l 340 972 q 362 964 354 972 q 367 940 369 956 l 190 117 l 654 117 q 676 108 669 117 q 681 85 683 99 l 669 32 q 656 9 667 18 q 631 0 644 0 l 67 0 z "},"Ļ":{"ha":769,"x_min":40,"x_max":682,"o":"m 67 0 q 46 9 53 0 q 42 32 39 18 l 235 940 q 247 963 236 954 q 272 972 258 972 l 340 972 q 362 964 354 972 q 367 940 369 956 l 190 117 l 654 117 q 676 108 669 117 q 681 85 683 99 l 669 32 q 656 9 667 18 q 631 0 644 0 l 67 0 m 206 -301 q 192 -296 197 -301 q 188 -283 188 -290 q 190 -271 188 -279 l 250 -110 q 297 -69 265 -69 l 385 -69 q 399 -76 394 -69 q 401 -92 404 -83 q 393 -115 399 -103 l 300 -269 q 280 -293 290 -285 q 254 -301 269 -301 l 206 -301 z "},"Ŀ":{"ha":769,"x_min":39,"x_max":683,"o":"m 67 0 q 46 9 53 0 q 42 32 39 18 l 235 940 q 247 963 236 954 q 272 972 258 972 l 340 972 q 362 964 354 972 q 367 940 369 956 l 190 117 l 654 117 q 676 108 669 117 q 681 85 683 99 l 669 32 q 656 9 667 18 q 631 0 644 0 l 67 0 m 463 433 q 442 442 449 433 q 438 465 435 451 l 457 551 q 469 574 460 565 q 493 583 479 583 l 581 583 q 601 574 594 583 q 606 551 608 565 l 586 465 q 573 442 583 451 q 549 433 563 433 l 463 433 z "},"Ł":{"ha":781,"x_min":10,"x_max":694,"o":"m 78 0 q 57 9 64 0 q 53 32 50 18 l 129 390 l 51 363 q 33 358 39 358 q 15 365 21 358 q 11 385 10 372 l 22 432 q 33 454 25 447 q 60 468 42 461 l 153 501 l 246 940 q 258 963 247 954 q 283 972 269 972 l 351 972 q 373 964 365 972 q 378 940 381 956 l 294 553 l 513 631 q 532 635 525 635 q 550 628 544 635 q 553 610 556 622 l 543 563 q 533 540 540 547 q 506 526 525 533 l 272 442 l 201 117 l 667 117 q 688 108 681 117 q 692 85 694 99 l 681 32 q 667 9 678 18 q 643 0 657 0 l 78 0 z "},"M":{"ha":1104,"x_min":39,"x_max":1097,"o":"m 68 0 q 47 9 54 0 q 42 32 39 18 l 233 939 q 247 963 236 954 q 274 972 258 972 l 340 972 q 362 965 354 972 q 371 951 369 958 l 547 383 l 965 951 q 1003 972 981 972 l 1068 972 q 1090 963 1083 972 q 1094 939 1097 954 l 901 32 q 888 9 899 18 q 863 0 876 0 l 799 0 q 777 9 785 0 q 772 32 769 18 l 915 704 l 592 263 q 542 233 569 233 l 501 233 q 476 241 485 233 q 463 263 467 249 l 318 735 l 169 32 q 156 9 167 18 q 132 0 146 0 l 68 0 z "},"N":{"ha":967,"x_min":39,"x_max":958,"o":"m 67 0 q 46 9 53 0 q 42 32 39 18 l 233 939 q 247 963 236 954 q 271 972 257 972 l 331 972 q 361 953 354 972 l 678 228 l 829 939 q 842 963 832 954 q 868 972 853 972 l 931 972 q 952 963 946 972 q 956 939 958 954 l 764 33 q 751 9 761 18 q 726 0 740 0 l 667 0 q 636 19 644 0 l 319 738 l 169 32 q 156 9 167 18 q 131 0 144 0 l 67 0 z "},"Ń":{"ha":967,"x_min":40,"x_max":957,"o":"m 67 0 q 46 9 53 0 q 42 32 39 18 l 233 939 q 247 963 236 954 q 271 972 257 972 l 331 972 q 361 953 354 972 l 678 228 l 829 939 q 842 963 832 954 q 868 972 853 972 l 931 972 q 952 963 946 972 q 956 939 958 954 l 764 33 q 751 9 761 18 q 726 0 740 0 l 667 0 q 636 19 644 0 l 319 738 l 169 32 q 156 9 167 18 q 131 0 144 0 l 67 0 m 557 1042 q 538 1060 538 1042 q 549 1079 540 1072 l 681 1207 q 707 1226 696 1221 q 738 1232 718 1232 l 836 1232 q 853 1226 847 1232 q 858 1211 858 1219 q 846 1189 856 1194 l 657 1057 q 633 1044 643 1047 q 608 1042 624 1042 l 557 1042 z "},"Ň":{"ha":967,"x_min":40,"x_max":957,"o":"m 67 0 q 46 9 53 0 q 42 32 39 18 l 233 939 q 247 963 236 954 q 271 972 257 972 l 331 972 q 361 953 354 972 l 678 228 l 829 939 q 842 963 832 954 q 868 972 853 972 l 931 972 q 952 963 946 972 q 956 939 958 954 l 764 33 q 751 9 761 18 q 726 0 740 0 l 667 0 q 636 19 644 0 l 319 738 l 169 32 q 156 9 167 18 q 131 0 144 0 l 67 0 m 586 1042 q 564 1045 572 1042 q 544 1063 556 1049 l 440 1194 q 435 1215 432 1204 q 442 1227 436 1222 q 457 1232 449 1232 l 494 1232 q 524 1222 508 1232 l 618 1143 l 746 1222 q 758 1228 749 1224 q 778 1232 767 1232 l 835 1232 q 851 1217 851 1232 q 839 1196 851 1207 l 678 1063 q 651 1045 661 1049 q 628 1042 640 1042 l 586 1042 z "},"Ņ":{"ha":967,"x_min":40,"x_max":957,"o":"m 67 0 q 46 9 53 0 q 42 32 39 18 l 233 939 q 247 963 236 954 q 271 972 257 972 l 331 972 q 361 953 354 972 l 678 228 l 829 939 q 842 963 832 954 q 868 972 853 972 l 931 972 q 952 963 946 972 q 956 939 958 954 l 764 33 q 751 9 761 18 q 726 0 740 0 l 667 0 q 636 19 644 0 l 319 738 l 169 32 q 156 9 167 18 q 131 0 144 0 l 67 0 m 261 -301 q 248 -296 253 -301 q 243 -283 243 -290 q 246 -271 243 -279 l 306 -110 q 353 -69 321 -69 l 440 -69 q 455 -76 450 -69 q 457 -92 460 -83 q 449 -115 454 -103 l 356 -269 q 335 -293 346 -285 q 310 -301 325 -301 l 261 -301 z "},"Ŋ":{"ha":963,"x_min":58,"x_max":976,"o":"m 449 -312 q 428 -304 435 -312 q 424 -281 421 -296 l 435 -228 q 449 -205 438 -214 q 474 -196 460 -196 l 488 -196 q 588 -160 556 -196 q 635 -58 621 -124 l 650 18 l 336 729 l 188 32 q 174 9 185 18 q 149 0 163 0 l 85 0 q 65 9 71 0 q 61 32 58 18 l 253 939 q 267 963 256 954 q 292 972 278 972 l 353 972 q 382 953 378 972 l 697 236 l 846 939 q 860 963 849 954 q 885 972 871 972 l 947 972 q 969 963 963 972 q 974 939 976 954 l 761 -60 q 457 -312 707 -312 l 449 -312 z "},"Ñ":{"ha":967,"x_min":40,"x_max":957,"o":"m 67 0 q 46 9 53 0 q 42 32 39 18 l 233 939 q 247 963 236 954 q 271 972 257 972 l 331 972 q 361 953 354 972 l 678 228 l 829 939 q 842 963 832 954 q 868 972 853 972 l 931 972 q 952 963 946 972 q 956 939 958 954 l 764 33 q 751 9 761 18 q 726 0 740 0 l 667 0 q 636 19 644 0 l 319 738 l 169 32 q 156 9 167 18 q 131 0 144 0 l 67 0 m 685 1035 q 642 1042 660 1035 q 601 1063 624 1049 q 578 1076 590 1069 q 553 1082 565 1082 q 526 1076 536 1082 q 506 1058 515 1069 q 478 1042 492 1042 l 435 1042 q 420 1049 425 1042 q 417 1064 415 1056 q 463 1151 424 1110 q 553 1192 501 1192 q 597 1184 578 1192 q 636 1163 615 1176 q 660 1149 647 1156 q 685 1143 672 1143 q 713 1149 703 1143 q 732 1167 722 1156 q 760 1185 744 1185 l 803 1185 q 817 1178 813 1185 q 821 1163 822 1172 q 797 1105 817 1135 q 748 1055 778 1075 q 685 1035 718 1035 z "},"O":{"ha":938,"x_min":67,"x_max":901,"o":"m 390 -14 q 154 59 242 -14 q 67 274 67 132 q 76 368 67 310 q 126 603 103 511 q 288 890 172 793 q 579 986 403 986 q 815 912 728 986 q 901 696 901 838 q 893 603 901 653 q 842 368 871 481 q 681 81 796 176 q 390 -14 565 -14 m 396 101 q 594 169 511 101 q 711 375 676 236 q 758 597 740 499 q 767 688 767 647 q 718 828 767 783 q 574 872 669 872 q 375 805 457 872 q 258 597 293 738 q 211 375 235 506 q 201 283 201 317 q 250 145 201 189 q 396 101 299 101 z "},"Ó":{"ha":938,"x_min":67,"x_max":901,"o":"m 390 -14 q 154 59 242 -14 q 67 274 67 132 q 76 368 67 310 q 126 603 103 511 q 288 890 172 793 q 579 986 403 986 q 815 912 728 986 q 901 696 901 838 q 893 603 901 653 q 842 368 871 481 q 681 81 796 176 q 390 -14 565 -14 m 396 101 q 594 169 511 101 q 711 375 676 236 q 758 597 740 499 q 767 688 767 647 q 718 828 767 783 q 574 872 669 872 q 375 805 457 872 q 258 597 293 738 q 211 375 235 506 q 201 283 201 317 q 250 145 201 189 q 396 101 299 101 m 544 1042 q 525 1060 525 1042 q 536 1079 528 1072 l 668 1207 q 694 1226 683 1221 q 725 1232 706 1232 l 824 1232 q 840 1226 835 1232 q 846 1211 846 1219 q 833 1189 843 1194 l 644 1057 q 621 1044 631 1047 q 596 1042 611 1042 l 544 1042 z "},"Ŏ":{"ha":938,"x_min":67,"x_max":901,"o":"m 390 -14 q 154 59 242 -14 q 67 274 67 132 q 76 368 67 310 q 126 603 103 511 q 288 890 172 793 q 579 986 403 986 q 815 912 728 986 q 901 696 901 838 q 893 603 901 653 q 842 368 871 481 q 681 81 796 176 q 390 -14 565 -14 m 396 101 q 594 169 511 101 q 711 375 676 236 q 758 597 740 499 q 767 688 767 647 q 718 828 767 783 q 574 872 669 872 q 375 805 457 872 q 258 597 293 738 q 211 375 235 506 q 201 283 201 317 q 250 145 201 189 q 396 101 299 101 m 599 1029 q 485 1067 524 1029 q 446 1164 446 1106 q 450 1200 446 1182 q 461 1219 453 1211 q 482 1226 469 1226 l 522 1226 q 540 1219 535 1226 q 543 1200 546 1211 q 540 1172 540 1181 q 555 1127 540 1144 q 603 1110 569 1110 q 670 1135 644 1110 q 706 1200 696 1161 q 717 1219 708 1211 q 738 1226 725 1226 l 778 1226 q 796 1219 790 1226 q 799 1200 801 1211 q 599 1029 764 1029 z "},"Ô":{"ha":938,"x_min":67,"x_max":901,"o":"m 390 -14 q 154 59 242 -14 q 67 274 67 132 q 76 368 67 310 q 126 603 103 511 q 288 890 172 793 q 579 986 403 986 q 815 912 728 986 q 901 696 901 838 q 893 603 901 653 q 842 368 871 481 q 681 81 796 176 q 390 -14 565 -14 m 396 101 q 594 169 511 101 q 711 375 676 236 q 758 597 740 499 q 767 688 767 647 q 718 828 767 783 q 574 872 669 872 q 375 805 457 872 q 258 597 293 738 q 211 375 235 506 q 201 283 201 317 q 250 145 201 189 q 396 101 299 101 m 400 1042 q 385 1057 385 1042 q 397 1078 385 1068 l 558 1211 q 585 1228 575 1225 q 608 1232 594 1232 l 650 1232 q 672 1228 664 1232 q 692 1211 681 1225 l 796 1079 q 801 1058 804 1069 q 794 1047 800 1051 q 779 1042 788 1042 l 742 1042 q 713 1051 726 1042 l 618 1131 l 490 1051 q 478 1046 488 1050 q 458 1042 469 1042 l 400 1042 z "},"Ö":{"ha":938,"x_min":67,"x_max":901,"o":"m 390 -14 q 154 59 242 -14 q 67 274 67 132 q 76 368 67 310 q 126 603 103 511 q 288 890 172 793 q 579 986 403 986 q 815 912 728 986 q 901 696 901 838 q 893 603 901 653 q 842 368 871 481 q 681 81 796 176 q 390 -14 565 -14 m 396 101 q 594 169 511 101 q 711 375 676 236 q 758 597 740 499 q 767 688 767 647 q 718 828 767 783 q 574 872 669 872 q 375 805 457 872 q 258 597 293 738 q 211 375 235 506 q 201 283 201 317 q 250 145 201 189 q 396 101 299 101 m 422 1042 q 402 1050 408 1042 q 399 1072 396 1058 l 414 1146 q 427 1169 417 1160 q 451 1178 438 1178 l 525 1178 q 546 1169 539 1178 q 550 1146 553 1160 l 535 1072 q 521 1050 532 1058 q 496 1042 510 1042 l 422 1042 m 697 1042 q 676 1050 683 1042 q 672 1072 669 1058 l 688 1146 q 701 1169 690 1160 q 726 1178 713 1178 l 799 1178 q 819 1169 813 1178 q 824 1146 826 1160 l 808 1072 q 794 1050 806 1058 q 769 1042 783 1042 l 697 1042 z "},"Ò":{"ha":938,"x_min":67,"x_max":901,"o":"m 390 -14 q 154 59 242 -14 q 67 274 67 132 q 76 368 67 310 q 126 603 103 511 q 288 890 172 793 q 579 986 403 986 q 815 912 728 986 q 901 696 901 838 q 893 603 901 653 q 842 368 871 481 q 681 81 796 176 q 390 -14 565 -14 m 396 101 q 594 169 511 101 q 711 375 676 236 q 758 597 740 499 q 767 688 767 647 q 718 828 767 783 q 574 872 669 872 q 375 805 457 872 q 258 597 293 738 q 211 375 235 506 q 201 283 201 317 q 250 145 201 189 q 396 101 299 101 m 585 1042 q 560 1044 569 1042 q 542 1057 551 1047 l 414 1185 q 407 1201 407 1192 q 416 1223 407 1214 q 439 1232 425 1232 l 535 1232 q 562 1227 554 1232 q 581 1207 569 1222 l 657 1082 q 660 1068 660 1074 q 652 1049 660 1057 q 633 1042 644 1042 l 585 1042 z "},"Ő":{"ha":938,"x_min":67,"x_max":914,"o":"m 390 -14 q 154 59 242 -14 q 67 274 67 132 q 76 368 67 310 q 126 603 103 511 q 288 890 172 793 q 579 986 403 986 q 815 912 728 986 q 901 696 901 838 q 893 603 901 653 q 842 368 871 481 q 681 81 796 176 q 390 -14 565 -14 m 396 101 q 594 169 511 101 q 711 375 676 236 q 758 597 740 499 q 767 688 767 647 q 718 828 767 783 q 574 872 669 872 q 375 805 457 872 q 258 597 293 738 q 211 375 235 506 q 201 283 201 317 q 250 145 201 189 q 396 101 299 101 m 450 1042 q 431 1058 431 1042 q 439 1076 431 1065 l 524 1206 q 547 1226 533 1219 q 581 1232 560 1232 l 664 1232 q 686 1211 686 1232 q 676 1189 686 1201 l 538 1061 q 492 1042 515 1042 l 450 1042 m 678 1042 q 658 1058 658 1042 q 667 1076 661 1068 l 753 1206 q 810 1232 769 1232 l 892 1232 q 909 1226 903 1232 q 914 1211 915 1221 q 904 1189 914 1199 l 767 1061 q 719 1042 744 1042 l 678 1042 z "},"Ō":{"ha":938,"x_min":67,"x_max":901,"o":"m 390 -14 q 154 59 242 -14 q 67 274 67 132 q 76 368 67 310 q 126 603 103 511 q 288 890 172 793 q 579 986 403 986 q 815 912 728 986 q 901 696 901 838 q 893 603 901 653 q 842 368 871 481 q 681 81 796 176 q 390 -14 565 -14 m 396 101 q 594 169 511 101 q 711 375 676 236 q 758 597 740 499 q 767 688 767 647 q 718 828 767 783 q 574 872 669 872 q 375 805 457 872 q 258 597 293 738 q 211 375 235 506 q 201 283 201 317 q 250 145 201 189 q 396 101 299 101 m 440 1042 q 420 1050 426 1042 q 417 1072 414 1058 l 426 1122 q 439 1144 428 1136 q 464 1153 450 1153 l 781 1153 q 801 1144 794 1153 q 806 1122 808 1136 l 796 1072 q 782 1050 793 1058 q 757 1042 771 1042 l 440 1042 z "},"Ø":{"ha":969,"x_min":8,"x_max":1038,"o":"m 417 -14 q 106 258 106 -14 q 107 293 106 281 l 50 274 q 32 269 40 269 q 14 276 19 269 q 11 294 8 282 l 21 342 q 32 365 24 358 q 58 379 40 372 l 121 400 q 164 603 140 510 q 333 889 210 792 q 629 986 456 986 q 859 912 778 986 q 936 694 940 838 l 993 714 q 1013 718 1004 718 q 1033 693 1038 718 l 1024 646 q 1012 624 1019 631 q 985 610 1004 617 l 928 589 q 881 368 913 503 q 716 81 835 176 q 417 -14 597 -14 m 801 646 q 803 676 803 657 q 750 824 803 775 q 604 872 697 872 q 412 804 493 872 q 296 597 331 736 q 264 453 274 506 l 801 646 m 440 101 q 633 169 553 101 q 749 375 714 236 q 785 538 771 464 l 243 343 q 240 296 240 310 q 293 149 240 197 q 440 101 346 101 z "},"Ǿ":{"ha":967,"x_min":10,"x_max":1033,"o":"m 569 1042 q 550 1060 550 1042 q 561 1079 553 1072 l 693 1207 q 719 1226 708 1221 q 750 1232 731 1232 l 849 1232 q 865 1226 860 1232 q 871 1211 871 1219 q 858 1189 868 1194 l 669 1057 q 646 1044 656 1047 q 621 1042 636 1042 l 569 1042 m 417 -14 q 106 258 106 -14 q 107 293 106 281 l 50 274 q 32 269 40 269 q 14 276 19 269 q 11 294 8 282 l 21 342 q 32 365 24 358 q 58 379 40 372 l 121 400 q 164 603 140 510 q 333 889 210 792 q 629 986 456 986 q 859 912 778 986 q 936 694 940 838 l 993 714 q 1013 718 1004 718 q 1033 693 1038 718 l 1024 646 q 1012 624 1019 631 q 985 610 1004 617 l 928 589 q 881 368 913 503 q 716 81 835 176 q 417 -14 597 -14 m 801 646 q 803 676 803 657 q 750 824 803 775 q 604 872 697 872 q 412 804 493 872 q 296 597 331 736 q 264 453 274 506 l 801 646 m 440 101 q 633 169 553 101 q 749 375 714 236 q 785 538 771 464 l 243 343 q 240 296 240 310 q 293 149 240 197 q 440 101 346 101 z "},"Õ":{"ha":938,"x_min":67,"x_max":901,"o":"m 390 -14 q 154 59 242 -14 q 67 274 67 132 q 76 368 67 310 q 126 603 103 511 q 288 890 172 793 q 579 986 403 986 q 815 912 728 986 q 901 696 901 838 q 893 603 901 653 q 842 368 871 481 q 681 81 796 176 q 390 -14 565 -14 m 396 101 q 594 169 511 101 q 711 375 676 236 q 758 597 740 499 q 767 688 767 647 q 718 828 767 783 q 574 872 669 872 q 375 805 457 872 q 258 597 293 738 q 211 375 235 506 q 201 283 201 317 q 250 145 201 189 q 396 101 299 101 m 686 1035 q 643 1042 661 1035 q 603 1063 625 1049 q 579 1076 592 1069 q 554 1082 567 1082 q 527 1076 538 1082 q 507 1058 517 1069 q 479 1042 493 1042 l 436 1042 q 422 1049 426 1042 q 418 1064 417 1056 q 464 1151 425 1110 q 554 1192 503 1192 q 598 1184 579 1192 q 638 1163 617 1176 q 661 1149 649 1156 q 686 1143 674 1143 q 714 1149 704 1143 q 733 1167 724 1156 q 761 1185 746 1185 l 804 1185 q 819 1178 814 1185 q 822 1163 824 1172 q 799 1105 818 1135 q 749 1055 779 1075 q 686 1035 719 1035 z "},"Œ":{"ha":1269,"x_min":71,"x_max":1304,"o":"m 415 0 q 161 73 251 0 q 71 283 71 146 q 81 376 71 329 q 126 594 103 493 q 213 808 158 726 q 356 931 267 890 q 583 972 446 972 l 1275 972 q 1297 963 1290 972 q 1301 939 1304 954 l 1292 889 q 1277 867 1288 875 q 1253 858 1267 858 l 829 858 l 763 549 l 1154 549 q 1176 540 1169 549 q 1181 515 1183 531 l 1171 468 q 1158 445 1168 454 q 1132 436 1147 436 l 740 436 l 671 115 l 1104 115 q 1126 106 1119 115 q 1131 82 1133 96 l 1119 32 q 1106 9 1117 18 q 1081 0 1096 0 l 415 0 m 543 115 l 701 858 l 583 858 q 422 831 486 858 q 319 746 358 804 q 257 589 281 688 q 213 382 238 507 q 203 293 203 324 q 256 158 203 201 q 429 115 310 115 l 543 115 z "},"P":{"ha":892,"x_min":39,"x_max":906,"o":"m 67 0 q 46 9 53 0 q 42 32 39 18 l 233 939 q 247 963 236 954 q 272 972 258 972 l 614 972 q 828 916 751 972 q 906 751 906 860 q 897 676 906 717 q 767 456 867 531 q 510 382 668 382 l 249 382 l 174 32 q 160 9 171 18 q 136 0 150 0 l 67 0 m 507 494 q 677 542 608 494 q 764 676 746 589 q 772 743 772 714 q 733 831 772 801 q 600 860 694 860 l 350 860 l 271 494 l 507 494 z "},"Þ":{"ha":896,"x_min":39,"x_max":865,"o":"m 67 0 q 46 9 53 0 q 42 32 39 18 l 235 940 q 247 963 236 954 q 272 972 258 972 l 342 972 q 363 964 356 972 q 368 940 371 956 l 335 783 l 574 783 q 788 727 711 783 q 865 563 865 671 q 857 488 865 528 q 728 267 826 342 q 471 193 629 193 l 208 193 l 174 32 q 160 9 171 18 q 136 0 150 0 l 67 0 m 468 306 q 637 353 568 306 q 725 488 706 400 q 733 554 733 525 q 694 642 733 613 q 560 671 656 671 l 310 671 l 232 306 l 468 306 z "},"Q":{"ha":938,"x_min":86,"x_max":922,"o":"m 661 -90 q 639 -83 647 -90 q 626 -67 631 -75 q 621 -58 622 -60 l 581 21 q 399 -14 501 -14 q 166 53 246 -14 q 86 258 86 121 q 97 368 86 304 q 146 603 115 472 q 315 889 192 792 q 611 986 438 986 q 840 915 758 986 q 922 707 922 844 q 911 603 922 663 q 863 368 889 472 q 700 83 814 175 l 765 -47 q 767 -62 768 -53 q 753 -82 764 -74 q 732 -90 743 -90 l 661 -90 m 422 101 q 615 169 535 101 q 731 375 696 236 q 778 597 760 493 q 786 676 786 642 q 733 824 786 775 q 586 872 679 872 q 394 804 475 872 q 278 597 313 736 q 232 375 249 472 q 224 294 224 332 q 276 149 224 197 q 422 101 329 101 z "},"R":{"ha":908,"x_min":58,"x_max":914,"o":"m 85 0 q 65 9 71 0 q 61 32 58 18 l 253 939 q 267 963 256 954 q 292 972 278 972 l 631 972 q 840 918 765 972 q 914 758 914 864 q 906 682 914 724 q 817 508 883 576 q 649 414 750 440 l 785 43 q 786 28 788 33 q 773 8 783 17 q 751 0 763 0 l 690 0 q 660 10 669 0 q 644 38 651 19 l 517 393 l 268 393 l 192 32 q 177 9 189 18 q 151 0 165 0 l 85 0 m 526 507 q 772 683 736 507 q 778 733 778 707 q 600 860 778 860 l 367 860 l 293 507 l 526 507 z "},"Ŕ":{"ha":908,"x_min":60,"x_max":914,"o":"m 85 0 q 65 9 71 0 q 61 32 58 18 l 253 939 q 267 963 256 954 q 292 972 278 972 l 631 972 q 840 918 765 972 q 914 758 914 864 q 906 682 914 724 q 817 508 883 576 q 649 414 750 440 l 785 43 q 786 28 788 33 q 773 8 783 17 q 751 0 763 0 l 690 0 q 660 10 669 0 q 644 38 651 19 l 517 393 l 268 393 l 192 32 q 177 9 189 18 q 151 0 165 0 l 85 0 m 526 507 q 772 683 736 507 q 778 733 778 707 q 600 860 778 860 l 367 860 l 293 507 l 526 507 m 496 1042 q 476 1060 476 1042 q 488 1079 479 1072 l 619 1207 q 646 1226 635 1221 q 676 1232 657 1232 l 775 1232 q 792 1226 786 1232 q 797 1211 797 1219 q 785 1189 794 1194 l 596 1057 q 572 1044 582 1047 q 547 1042 563 1042 l 496 1042 z "},"Ř":{"ha":908,"x_min":60,"x_max":914,"o":"m 85 0 q 65 9 71 0 q 61 32 58 18 l 253 939 q 267 963 256 954 q 292 972 278 972 l 631 972 q 840 918 765 972 q 914 758 914 864 q 906 682 914 724 q 817 508 883 576 q 649 414 750 440 l 785 43 q 786 28 788 33 q 773 8 783 17 q 751 0 763 0 l 690 0 q 660 10 669 0 q 644 38 651 19 l 517 393 l 268 393 l 192 32 q 177 9 189 18 q 151 0 165 0 l 85 0 m 526 507 q 772 683 736 507 q 778 733 778 707 q 600 860 778 860 l 367 860 l 293 507 l 526 507 m 521 1042 q 499 1045 507 1042 q 479 1063 490 1049 l 375 1194 q 369 1215 367 1204 q 377 1227 371 1222 q 392 1232 383 1232 l 429 1232 q 458 1222 443 1232 l 553 1143 l 681 1222 q 692 1228 683 1224 q 713 1232 701 1232 l 769 1232 q 786 1217 786 1232 q 774 1196 786 1207 l 613 1063 q 585 1045 596 1049 q 563 1042 575 1042 l 521 1042 z "},"Ŗ":{"ha":908,"x_min":60,"x_max":914,"o":"m 85 0 q 65 9 71 0 q 61 32 58 18 l 253 939 q 267 963 256 954 q 292 972 278 972 l 631 972 q 840 918 765 972 q 914 758 914 864 q 906 682 914 724 q 817 508 883 576 q 649 414 750 440 l 785 43 q 786 28 788 33 q 773 8 783 17 q 751 0 763 0 l 690 0 q 660 10 669 0 q 644 38 651 19 l 517 393 l 268 393 l 192 32 q 177 9 189 18 q 151 0 165 0 l 85 0 m 526 507 q 772 683 736 507 q 778 733 778 707 q 600 860 778 860 l 367 860 l 293 507 l 526 507 m 240 -301 q 227 -296 232 -301 q 222 -283 222 -290 q 225 -271 222 -279 l 285 -110 q 332 -69 300 -69 l 419 -69 q 434 -76 429 -69 q 436 -92 439 -83 q 428 -115 433 -103 l 335 -269 q 315 -293 325 -285 q 289 -301 304 -301 l 240 -301 z "},"S":{"ha":858,"x_min":21,"x_max":840,"o":"m 353 -14 q 170 17 244 -14 q 58 101 96 49 q 21 218 21 154 q 22 244 21 235 q 33 265 25 257 q 53 272 40 272 l 125 272 q 156 244 150 272 q 205 144 154 186 q 357 101 256 101 q 546 143 475 101 q 633 258 617 185 q 636 286 636 268 q 610 349 636 324 q 535 394 583 374 q 390 446 486 415 q 207 537 265 485 q 149 672 149 589 q 156 738 149 708 q 278 919 181 851 q 533 986 376 986 q 700 953 631 986 q 805 869 769 921 q 840 763 840 817 q 838 736 840 753 q 807 707 832 707 l 733 707 q 714 714 722 707 q 704 735 706 721 q 658 833 708 793 q 528 872 608 872 q 366 835 432 872 q 285 726 300 797 q 281 694 281 710 q 331 610 281 642 q 506 539 381 578 q 708 446 644 497 q 771 310 771 394 q 764 250 771 285 q 631 53 736 119 q 353 -14 525 -14 z "},"Ś":{"ha":858,"x_min":21,"x_max":840,"o":"m 353 -14 q 170 17 244 -14 q 58 101 96 49 q 21 218 21 154 q 22 244 21 235 q 33 265 25 257 q 53 272 40 272 l 125 272 q 156 244 150 272 q 205 144 154 186 q 357 101 256 101 q 546 143 475 101 q 633 258 617 185 q 636 286 636 268 q 610 349 636 324 q 535 394 583 374 q 390 446 486 415 q 207 537 265 485 q 149 672 149 589 q 156 738 149 708 q 278 919 181 851 q 533 986 376 986 q 700 953 631 986 q 805 869 769 921 q 840 763 840 817 q 838 736 840 753 q 807 707 832 707 l 733 707 q 714 714 722 707 q 704 735 706 721 q 658 833 708 793 q 528 872 608 872 q 366 835 432 872 q 285 726 300 797 q 281 694 281 710 q 331 610 281 642 q 506 539 381 578 q 708 446 644 497 q 771 310 771 394 q 764 250 771 285 q 631 53 736 119 q 353 -14 525 -14 m 507 1042 q 488 1060 488 1042 q 499 1079 490 1072 l 631 1207 q 657 1226 646 1221 q 688 1232 668 1232 l 786 1232 q 803 1226 797 1232 q 808 1211 808 1219 q 796 1189 806 1194 l 607 1057 q 583 1044 593 1047 q 558 1042 574 1042 l 507 1042 z "},"Š":{"ha":858,"x_min":21,"x_max":840,"o":"m 353 -14 q 170 17 244 -14 q 58 101 96 49 q 21 218 21 154 q 22 244 21 235 q 33 265 25 257 q 53 272 40 272 l 125 272 q 156 244 150 272 q 205 144 154 186 q 357 101 256 101 q 546 143 475 101 q 633 258 617 185 q 636 286 636 268 q 610 349 636 324 q 535 394 583 374 q 390 446 486 415 q 207 537 265 485 q 149 672 149 589 q 156 738 149 708 q 278 919 181 851 q 533 986 376 986 q 700 953 631 986 q 805 869 769 921 q 840 763 840 817 q 838 736 840 753 q 807 707 832 707 l 733 707 q 714 714 722 707 q 704 735 706 721 q 658 833 708 793 q 528 872 608 872 q 366 835 432 872 q 285 726 300 797 q 281 694 281 710 q 331 610 281 642 q 506 539 381 578 q 708 446 644 497 q 771 310 771 394 q 764 250 771 285 q 631 53 736 119 q 353 -14 525 -14 m 528 1042 q 506 1045 514 1042 q 486 1063 497 1049 l 382 1194 q 376 1215 374 1204 q 384 1227 378 1222 q 399 1232 390 1232 l 436 1232 q 465 1222 450 1232 l 560 1143 l 688 1222 q 699 1228 690 1224 q 719 1232 708 1232 l 776 1232 q 793 1217 793 1232 q 781 1196 793 1207 l 619 1063 q 592 1045 603 1049 q 569 1042 582 1042 l 528 1042 z "},"Ş":{"ha":861,"x_min":40,"x_max":863,"o":"m 297 -306 q 221 -287 253 -306 q 189 -250 189 -269 q 197 -235 189 -242 l 224 -215 q 238 -210 231 -210 q 254 -218 243 -210 q 277 -232 265 -226 q 310 -237 289 -237 q 358 -219 336 -237 q 379 -174 379 -200 q 366 -146 379 -156 q 332 -136 353 -136 q 294 -142 315 -136 q 265 -149 272 -149 q 249 -140 256 -149 l 231 -115 q 228 -107 228 -110 q 235 -87 228 -99 q 244 -74 243 -76 l 286 -8 q 103 66 167 6 q 40 208 40 126 q 43 244 40 232 q 56 264 46 256 q 79 272 67 272 l 147 272 q 175 244 172 272 q 226 144 175 186 q 386 101 276 101 q 572 143 504 101 q 654 258 639 185 q 657 286 657 268 q 631 349 657 324 q 556 394 606 374 q 413 446 507 415 q 224 533 283 486 q 165 661 165 581 q 174 725 165 690 q 242 859 189 800 q 378 952 294 918 q 567 986 463 986 q 732 953 665 986 q 831 870 799 921 q 863 765 863 819 q 860 736 863 756 q 847 715 857 724 q 825 707 838 707 l 756 707 q 735 714 744 707 q 726 735 726 721 q 681 833 731 794 q 542 872 631 872 q 384 835 447 872 q 306 726 321 799 q 303 696 303 715 q 326 634 303 660 q 395 588 349 608 q 526 539 442 567 q 732 449 669 496 q 794 322 794 403 q 788 263 794 300 q 645 60 760 133 q 363 -14 531 -14 l 318 -78 q 372 -67 338 -67 q 434 -90 411 -67 q 457 -151 457 -114 q 413 -260 457 -215 q 297 -306 369 -306 z "},"Ŝ":{"ha":858,"x_min":21,"x_max":840,"o":"m 353 -14 q 170 17 244 -14 q 58 101 96 49 q 21 218 21 154 q 22 244 21 235 q 33 265 25 257 q 53 272 40 272 l 125 272 q 156 244 150 272 q 205 144 154 186 q 357 101 256 101 q 546 143 475 101 q 633 258 617 185 q 636 286 636 268 q 610 349 636 324 q 535 394 583 374 q 390 446 486 415 q 207 537 265 485 q 149 672 149 589 q 156 738 149 708 q 278 919 181 851 q 533 986 376 986 q 700 953 631 986 q 805 869 769 921 q 840 763 840 817 q 838 736 840 753 q 807 707 832 707 l 733 707 q 714 714 722 707 q 704 735 706 721 q 658 833 708 793 q 528 872 608 872 q 366 835 432 872 q 285 726 300 797 q 281 694 281 710 q 331 610 281 642 q 506 539 381 578 q 708 446 644 497 q 771 310 771 394 q 764 250 771 285 q 631 53 736 119 q 353 -14 525 -14 m 353 1042 q 338 1057 338 1042 q 350 1078 338 1068 l 511 1211 q 538 1228 528 1225 q 561 1232 547 1232 l 603 1232 q 625 1228 617 1232 q 644 1211 633 1225 l 749 1079 q 754 1058 757 1069 q 747 1047 753 1051 q 732 1042 740 1042 l 694 1042 q 665 1051 679 1042 l 571 1131 l 443 1051 q 431 1046 440 1050 q 411 1042 422 1042 l 353 1042 z "},"Ș":{"ha":858,"x_min":21,"x_max":840,"o":"m 353 -14 q 170 17 244 -14 q 58 101 96 49 q 21 218 21 154 q 22 244 21 235 q 33 265 25 257 q 53 272 40 272 l 125 272 q 156 244 150 272 q 205 144 154 186 q 357 101 256 101 q 546 143 475 101 q 633 258 617 185 q 636 286 636 268 q 610 349 636 324 q 535 394 583 374 q 390 446 486 415 q 207 537 265 485 q 149 672 149 589 q 156 738 149 708 q 278 919 181 851 q 533 986 376 986 q 700 953 631 986 q 805 869 769 921 q 840 763 840 817 q 838 736 840 753 q 807 707 832 707 l 733 707 q 714 714 722 707 q 704 735 706 721 q 658 833 708 793 q 528 872 608 872 q 366 835 432 872 q 285 726 300 797 q 281 694 281 710 q 331 610 281 642 q 506 539 381 578 q 708 446 644 497 q 771 310 771 394 q 764 250 771 285 q 631 53 736 119 q 353 -14 525 -14 m 189 -301 q 176 -296 181 -301 q 171 -283 171 -290 q 174 -271 171 -279 l 233 -110 q 281 -69 249 -69 l 368 -69 q 383 -76 378 -69 q 385 -92 388 -83 q 376 -115 382 -103 l 283 -269 q 263 -293 274 -285 q 238 -301 253 -301 l 189 -301 z "},"T":{"ha":793,"x_min":129,"x_max":876,"o":"m 275 0 q 254 9 261 0 q 250 32 247 18 l 425 853 l 157 853 q 136 862 143 853 q 132 885 129 871 l 143 939 q 156 963 146 954 q 182 972 167 972 l 847 972 q 869 963 863 972 q 874 939 876 954 l 861 885 q 848 862 858 871 q 824 853 838 853 l 557 853 l 381 32 q 367 9 378 18 q 343 0 357 0 l 275 0 z "},"Ŧ":{"ha":810,"x_min":136,"x_max":883,"o":"m 283 0 q 262 9 269 0 q 257 32 254 18 l 350 465 l 192 465 q 172 474 178 465 q 168 497 165 483 l 175 531 q 189 555 178 546 q 214 564 200 564 l 371 564 l 432 853 l 165 853 q 144 862 151 853 q 139 885 136 871 l 150 939 q 164 963 153 954 q 189 972 175 972 l 856 972 q 877 963 871 972 q 881 939 883 954 l 869 885 q 856 862 867 871 q 831 853 844 853 l 564 853 l 503 564 l 658 564 q 681 554 674 564 q 685 531 688 544 l 678 497 q 664 474 675 483 q 638 465 653 465 l 481 465 l 389 32 q 375 9 386 18 q 350 0 364 0 l 283 0 z "},"Ť":{"ha":793,"x_min":131,"x_max":875,"o":"m 275 0 q 254 9 261 0 q 250 32 247 18 l 425 853 l 157 853 q 136 862 143 853 q 132 885 129 871 l 143 939 q 156 963 146 954 q 182 972 167 972 l 847 972 q 869 963 863 972 q 874 939 876 954 l 861 885 q 848 862 858 871 q 824 853 838 853 l 557 853 l 381 32 q 367 9 378 18 q 343 0 357 0 l 275 0 m 511 1042 q 489 1045 497 1042 q 469 1063 481 1049 l 365 1194 q 360 1215 357 1204 q 367 1227 361 1222 q 382 1232 374 1232 l 419 1232 q 449 1222 433 1232 l 543 1143 l 671 1222 q 683 1228 674 1224 q 703 1232 692 1232 l 760 1232 q 776 1217 776 1232 q 764 1196 776 1207 l 603 1063 q 576 1045 586 1049 q 553 1042 565 1042 l 511 1042 z "},"Ț":{"ha":793,"x_min":131,"x_max":875,"o":"m 275 0 q 254 9 261 0 q 250 32 247 18 l 425 853 l 157 853 q 136 862 143 853 q 132 885 129 871 l 143 939 q 156 963 146 954 q 182 972 167 972 l 847 972 q 869 963 863 972 q 874 939 876 954 l 861 885 q 848 862 858 871 q 824 853 838 853 l 557 853 l 381 32 q 367 9 378 18 q 343 0 357 0 l 275 0 m 160 -301 q 147 -296 151 -301 q 142 -283 142 -290 q 144 -271 142 -279 l 204 -110 q 251 -69 219 -69 l 339 -69 q 353 -76 349 -69 q 356 -92 358 -83 q 347 -115 353 -103 l 254 -269 q 234 -293 244 -285 q 208 -301 224 -301 l 160 -301 z "},"U":{"ha":972,"x_min":92,"x_max":974,"o":"m 407 -14 q 173 53 254 -14 q 92 254 92 119 q 106 375 92 311 l 225 939 q 239 963 228 954 q 264 972 250 972 l 331 972 q 352 963 346 972 q 356 939 358 954 l 235 372 q 222 267 222 314 q 268 143 222 183 q 413 103 314 103 q 613 169 535 103 q 719 372 690 236 l 840 939 q 854 963 843 954 q 881 972 865 972 l 947 972 q 967 963 961 972 q 971 939 974 954 l 851 375 q 701 80 808 174 q 407 -14 593 -14 z "},"Ú":{"ha":972,"x_min":92,"x_max":972,"o":"m 407 -14 q 173 53 254 -14 q 92 254 92 119 q 106 375 92 311 l 225 939 q 239 963 228 954 q 264 972 250 972 l 331 972 q 352 963 346 972 q 356 939 358 954 l 235 372 q 222 267 222 314 q 268 143 222 183 q 413 103 314 103 q 613 169 535 103 q 719 372 690 236 l 840 939 q 854 963 843 954 q 881 972 865 972 l 947 972 q 967 963 961 972 q 971 939 974 954 l 851 375 q 701 80 808 174 q 407 -14 593 -14 m 565 1042 q 546 1060 546 1042 q 557 1079 549 1072 l 689 1207 q 715 1226 704 1221 q 746 1232 726 1232 l 844 1232 q 861 1226 856 1232 q 867 1211 867 1219 q 854 1189 864 1194 l 665 1057 q 642 1044 651 1047 q 617 1042 632 1042 l 565 1042 z "},"Ŭ":{"ha":972,"x_min":92,"x_max":972,"o":"m 407 -14 q 173 53 254 -14 q 92 254 92 119 q 106 375 92 311 l 225 939 q 239 963 228 954 q 264 972 250 972 l 331 972 q 352 963 346 972 q 356 939 358 954 l 235 372 q 222 267 222 314 q 268 143 222 183 q 413 103 314 103 q 613 169 535 103 q 719 372 690 236 l 840 939 q 854 963 843 954 q 881 972 865 972 l 947 972 q 967 963 961 972 q 971 939 974 954 l 851 375 q 701 80 808 174 q 407 -14 593 -14 m 606 1029 q 492 1067 531 1029 q 453 1164 453 1106 q 457 1200 453 1182 q 468 1219 460 1211 q 489 1226 476 1226 l 529 1226 q 547 1219 542 1226 q 550 1200 553 1211 q 547 1172 547 1181 q 562 1127 547 1144 q 610 1110 576 1110 q 677 1135 651 1110 q 713 1200 703 1161 q 724 1219 715 1211 q 744 1226 732 1226 l 785 1226 q 803 1219 797 1226 q 806 1200 808 1211 q 606 1029 771 1029 z "},"Û":{"ha":972,"x_min":92,"x_max":972,"o":"m 407 -14 q 173 53 254 -14 q 92 254 92 119 q 106 375 92 311 l 225 939 q 239 963 228 954 q 264 972 250 972 l 331 972 q 352 963 346 972 q 356 939 358 954 l 235 372 q 222 267 222 314 q 268 143 222 183 q 413 103 314 103 q 613 169 535 103 q 719 372 690 236 l 840 939 q 854 963 843 954 q 881 972 865 972 l 947 972 q 967 963 961 972 q 971 939 974 954 l 851 375 q 701 80 808 174 q 407 -14 593 -14 m 408 1042 q 393 1057 393 1042 q 406 1078 393 1068 l 567 1211 q 593 1228 583 1225 q 617 1232 603 1232 l 658 1232 q 681 1228 672 1232 q 700 1211 689 1225 l 804 1079 q 810 1058 813 1069 q 802 1047 808 1051 q 788 1042 796 1042 l 750 1042 q 721 1051 735 1042 l 626 1131 l 499 1051 q 487 1046 496 1050 q 467 1042 478 1042 l 408 1042 z "},"Ü":{"ha":972,"x_min":92,"x_max":972,"o":"m 407 -14 q 173 53 254 -14 q 92 254 92 119 q 106 375 92 311 l 225 939 q 239 963 228 954 q 264 972 250 972 l 331 972 q 352 963 346 972 q 356 939 358 954 l 235 372 q 222 267 222 314 q 268 143 222 183 q 413 103 314 103 q 613 169 535 103 q 719 372 690 236 l 840 939 q 854 963 843 954 q 881 972 865 972 l 947 972 q 967 963 961 972 q 971 939 974 954 l 851 375 q 701 80 808 174 q 407 -14 593 -14 m 433 1042 q 413 1050 419 1042 q 410 1072 407 1058 l 425 1146 q 438 1169 428 1160 q 463 1178 449 1178 l 536 1178 q 557 1169 550 1178 q 561 1146 564 1160 l 546 1072 q 532 1050 543 1058 q 507 1042 521 1042 l 433 1042 m 708 1042 q 688 1050 694 1042 q 683 1072 681 1058 l 699 1146 q 713 1169 701 1160 q 738 1178 724 1178 l 810 1178 q 831 1169 824 1178 q 835 1146 838 1160 l 819 1072 q 806 1050 817 1058 q 781 1042 794 1042 l 708 1042 z "},"Ù":{"ha":972,"x_min":92,"x_max":972,"o":"m 407 -14 q 173 53 254 -14 q 92 254 92 119 q 106 375 92 311 l 225 939 q 239 963 228 954 q 264 972 250 972 l 331 972 q 352 963 346 972 q 356 939 358 954 l 235 372 q 222 267 222 314 q 268 143 222 183 q 413 103 314 103 q 613 169 535 103 q 719 372 690 236 l 840 939 q 854 963 843 954 q 881 972 865 972 l 947 972 q 967 963 961 972 q 971 939 974 954 l 851 375 q 701 80 808 174 q 407 -14 593 -14 m 596 1042 q 572 1044 581 1042 q 553 1057 563 1047 l 425 1185 q 418 1201 418 1192 q 427 1223 418 1214 q 450 1232 436 1232 l 546 1232 q 573 1227 565 1232 q 592 1207 581 1222 l 668 1082 q 671 1068 671 1074 q 663 1049 671 1057 q 644 1042 656 1042 l 596 1042 z "},"Ű":{"ha":972,"x_min":92,"x_max":972,"o":"m 407 -14 q 173 53 254 -14 q 92 254 92 119 q 106 375 92 311 l 225 939 q 239 963 228 954 q 264 972 250 972 l 331 972 q 352 963 346 972 q 356 939 358 954 l 235 372 q 222 267 222 314 q 268 143 222 183 q 413 103 314 103 q 613 169 535 103 q 719 372 690 236 l 840 939 q 854 963 843 954 q 881 972 865 972 l 947 972 q 967 963 961 972 q 971 939 974 954 l 851 375 q 701 80 808 174 q 407 -14 593 -14 m 454 1042 q 435 1058 435 1042 q 443 1076 435 1065 l 528 1206 q 551 1226 538 1219 q 585 1232 564 1232 l 668 1232 q 690 1211 690 1232 q 681 1189 690 1201 l 542 1061 q 496 1042 519 1042 l 454 1042 m 682 1042 q 663 1058 663 1042 q 671 1076 665 1068 l 757 1206 q 814 1232 774 1232 l 896 1232 q 913 1226 907 1232 q 918 1211 919 1221 q 908 1189 918 1199 l 771 1061 q 724 1042 749 1042 l 682 1042 z "},"Ū":{"ha":972,"x_min":92,"x_max":972,"o":"m 407 -14 q 173 53 254 -14 q 92 254 92 119 q 106 375 92 311 l 225 939 q 239 963 228 954 q 264 972 250 972 l 331 972 q 352 963 346 972 q 356 939 358 954 l 235 372 q 222 267 222 314 q 268 143 222 183 q 413 103 314 103 q 613 169 535 103 q 719 372 690 236 l 840 939 q 854 963 843 954 q 881 972 865 972 l 947 972 q 967 963 961 972 q 971 939 974 954 l 851 375 q 701 80 808 174 q 407 -14 593 -14 m 453 1042 q 433 1050 439 1042 q 429 1072 426 1058 l 439 1122 q 451 1144 440 1136 q 476 1153 463 1153 l 793 1153 q 814 1144 807 1153 q 818 1122 821 1136 l 808 1072 q 794 1050 806 1058 q 769 1042 783 1042 l 453 1042 z "},"Ų":{"ha":974,"x_min":92,"x_max":974,"o":"m 444 -306 q 321 -261 369 -306 q 272 -144 272 -217 q 276 -104 272 -125 q 317 -7 283 -51 q 92 251 92 28 q 106 375 92 310 l 225 939 q 239 963 228 954 q 264 972 250 972 l 331 972 q 352 963 346 972 q 356 939 358 954 l 235 372 q 222 267 222 314 q 268 143 222 183 q 413 103 314 103 q 613 169 535 103 q 719 372 690 236 l 840 939 q 854 963 843 954 q 881 972 865 972 l 947 972 q 967 963 961 972 q 971 939 974 954 l 851 375 q 721 94 818 186 q 479 -10 624 1 q 413 -38 442 -12 q 375 -107 385 -64 q 372 -132 372 -124 q 394 -190 372 -168 q 449 -211 417 -211 l 472 -211 q 492 -220 486 -211 q 496 -243 499 -229 l 488 -279 q 475 -299 483 -293 q 451 -306 467 -306 l 444 -306 z "},"Ů":{"ha":972,"x_min":92,"x_max":972,"o":"m 407 -14 q 173 53 254 -14 q 92 254 92 119 q 106 375 92 311 l 225 939 q 239 963 228 954 q 264 972 250 972 l 331 972 q 352 963 346 972 q 356 939 358 954 l 235 372 q 222 267 222 314 q 268 143 222 183 q 413 103 314 103 q 613 169 535 103 q 719 372 690 236 l 840 939 q 854 963 843 954 q 881 972 865 972 l 947 972 q 967 963 961 972 q 971 939 974 954 l 851 375 q 701 80 808 174 q 407 -14 593 -14 m 608 1028 q 537 1052 565 1028 q 508 1115 508 1076 q 511 1136 508 1122 q 560 1215 522 1183 q 647 1246 599 1246 q 718 1222 690 1246 q 746 1158 746 1197 q 743 1136 746 1153 q 694 1058 733 1089 q 608 1028 656 1028 m 614 1094 q 654 1110 638 1094 q 671 1149 671 1126 q 639 1178 671 1178 q 601 1163 617 1178 q 585 1125 585 1147 q 592 1103 585 1111 q 614 1094 600 1094 z "},"Ũ":{"ha":972,"x_min":92,"x_max":972,"o":"m 407 -14 q 173 53 254 -14 q 92 254 92 119 q 106 375 92 311 l 225 939 q 239 963 228 954 q 264 972 250 972 l 331 972 q 352 963 346 972 q 356 939 358 954 l 235 372 q 222 267 222 314 q 268 143 222 183 q 413 103 314 103 q 613 169 535 103 q 719 372 690 236 l 840 939 q 854 963 843 954 q 881 972 865 972 l 947 972 q 967 963 961 972 q 971 939 974 954 l 851 375 q 701 80 808 174 q 407 -14 593 -14 m 696 1035 q 653 1042 671 1035 q 613 1063 635 1049 q 589 1076 601 1069 q 564 1082 576 1082 q 537 1076 547 1082 q 517 1058 526 1069 q 489 1042 503 1042 l 446 1042 q 431 1049 436 1042 q 428 1064 426 1056 q 474 1151 435 1110 q 564 1192 513 1192 q 608 1184 589 1192 q 647 1163 626 1176 q 671 1149 658 1156 q 696 1143 683 1143 q 724 1149 714 1143 q 743 1167 733 1156 q 771 1185 756 1185 l 814 1185 q 828 1178 824 1185 q 832 1163 833 1172 q 808 1105 828 1135 q 759 1055 789 1075 q 696 1035 729 1035 z "},"V":{"ha":908,"x_min":157,"x_max":975,"o":"m 322 0 q 279 36 283 0 l 157 938 l 157 943 q 165 965 157 957 q 186 972 174 972 l 254 972 q 285 947 282 972 l 392 153 l 835 947 q 872 972 847 972 l 951 972 q 969 965 963 972 q 975 949 975 958 q 969 929 975 936 l 468 36 q 411 0 447 0 l 322 0 z "},"W":{"ha":1096,"x_min":156,"x_max":1156,"o":"m 193 0 q 158 36 156 0 l 165 943 q 174 964 165 956 q 196 972 182 972 l 260 972 q 283 964 275 972 q 290 943 290 956 l 285 236 l 539 724 q 590 757 556 757 l 638 757 q 665 747 656 757 q 675 724 674 738 l 726 225 l 1024 949 q 1063 972 1033 972 l 1132 972 q 1156 953 1156 972 q 1153 936 1156 947 l 788 36 q 736 0 771 0 l 679 0 q 640 35 643 0 l 579 568 l 300 35 q 247 0 279 0 l 193 0 z "},"Ẃ":{"ha":1096,"x_min":158,"x_max":1156,"o":"m 193 0 q 158 36 156 0 l 165 943 q 174 964 165 956 q 196 972 182 972 l 260 972 q 283 964 275 972 q 290 943 290 956 l 285 236 l 539 724 q 590 757 556 757 l 638 757 q 665 747 656 757 q 675 724 674 738 l 726 225 l 1024 949 q 1063 972 1033 972 l 1132 972 q 1156 953 1156 972 q 1153 936 1156 947 l 788 36 q 736 0 771 0 l 679 0 q 640 35 643 0 l 579 568 l 300 35 q 247 0 279 0 l 193 0 m 622 1042 q 603 1060 603 1042 q 614 1079 606 1072 l 746 1207 q 772 1226 761 1221 q 803 1232 783 1232 l 901 1232 q 918 1226 913 1232 q 924 1211 924 1219 q 911 1189 921 1194 l 722 1057 q 699 1044 708 1047 q 674 1042 689 1042 l 622 1042 z "},"Ŵ":{"ha":1107,"x_min":158,"x_max":1156,"o":"m 193 0 q 158 36 156 0 l 165 943 q 174 964 165 956 q 196 972 182 972 l 260 972 q 283 964 275 972 q 290 943 290 956 l 285 236 l 539 724 q 590 757 556 757 l 638 757 q 665 747 656 757 q 675 724 674 738 l 726 225 l 1024 949 q 1063 972 1033 972 l 1132 972 q 1156 953 1156 972 q 1153 936 1156 947 l 788 36 q 736 0 771 0 l 679 0 q 640 35 643 0 l 579 568 l 300 35 q 247 0 279 0 l 193 0 m 463 1042 q 447 1057 447 1042 q 460 1078 447 1068 l 621 1211 q 647 1228 638 1225 q 671 1232 657 1232 l 713 1232 q 735 1228 726 1232 q 754 1211 743 1225 l 858 1079 q 864 1058 867 1069 q 856 1047 863 1051 q 842 1042 850 1042 l 804 1042 q 775 1051 789 1042 l 681 1131 l 553 1051 q 541 1046 550 1050 q 521 1042 532 1042 l 463 1042 z "},"Ẅ":{"ha":1107,"x_min":158,"x_max":1156,"o":"m 193 0 q 158 36 156 0 l 165 943 q 174 964 165 956 q 196 972 182 972 l 260 972 q 283 964 275 972 q 290 943 290 956 l 285 236 l 539 724 q 590 757 556 757 l 638 757 q 665 747 656 757 q 675 724 674 738 l 726 225 l 1024 949 q 1063 972 1033 972 l 1132 972 q 1156 953 1156 972 q 1153 936 1156 947 l 788 36 q 736 0 771 0 l 679 0 q 640 35 643 0 l 579 568 l 300 35 q 247 0 279 0 l 193 0 m 488 1042 q 467 1050 474 1042 q 464 1072 461 1058 l 479 1146 q 492 1169 482 1160 q 517 1178 503 1178 l 590 1178 q 611 1169 604 1178 q 615 1146 618 1160 l 600 1072 q 586 1050 597 1058 q 561 1042 575 1042 l 488 1042 m 763 1042 q 742 1050 749 1042 q 738 1072 735 1058 l 753 1146 q 767 1169 756 1160 q 792 1178 778 1178 l 864 1178 q 885 1169 878 1178 q 889 1146 892 1160 l 874 1072 q 860 1050 871 1058 q 835 1042 849 1042 l 763 1042 z "},"Ẁ":{"ha":1107,"x_min":158,"x_max":1156,"o":"m 193 0 q 158 36 156 0 l 165 943 q 174 964 165 956 q 196 972 182 972 l 260 972 q 283 964 275 972 q 290 943 290 956 l 285 236 l 539 724 q 590 757 556 757 l 638 757 q 665 747 656 757 q 675 724 674 738 l 726 225 l 1024 949 q 1063 972 1033 972 l 1132 972 q 1156 953 1156 972 q 1153 936 1156 947 l 788 36 q 736 0 771 0 l 679 0 q 640 35 643 0 l 579 568 l 300 35 q 247 0 279 0 l 193 0 m 651 1042 q 627 1044 636 1042 q 608 1057 618 1047 l 481 1185 q 474 1201 474 1192 q 483 1223 474 1214 q 506 1232 492 1232 l 601 1232 q 628 1227 621 1232 q 647 1207 636 1222 l 724 1082 q 726 1068 726 1074 q 719 1049 726 1057 q 700 1042 711 1042 l 651 1042 z "},"X":{"ha":876,"x_min":-47,"x_max":944,"o":"m -21 0 q -40 8 -32 0 q -47 28 -47 17 q -40 46 -47 39 l 381 500 l 165 929 q 161 944 161 938 q 169 964 161 956 q 192 972 178 972 l 256 972 q 283 966 275 972 q 296 949 292 960 l 475 594 l 797 949 q 817 966 807 960 q 847 972 826 972 l 918 972 q 937 965 929 972 q 944 946 944 957 q 938 926 944 933 l 533 478 l 757 42 q 760 29 760 33 q 751 9 760 18 q 729 0 743 0 l 665 0 q 638 6 646 0 q 625 22 631 13 l 440 383 l 104 22 q 95 15 101 21 q 79 4 89 8 q 56 0 69 0 l -21 0 z "},"Y":{"ha":892,"x_min":151,"x_max":965,"o":"m 325 0 q 303 9 311 0 q 299 32 296 18 l 368 361 l 154 926 q 151 939 151 935 q 161 962 151 951 q 186 972 171 972 l 247 972 q 279 949 269 972 l 453 497 l 818 949 q 860 972 838 972 l 942 972 q 965 953 965 972 q 954 926 965 940 l 500 361 l 429 32 q 415 9 426 18 q 390 0 404 0 l 325 0 z "},"Ý":{"ha":892,"x_min":151,"x_max":965,"o":"m 325 0 q 303 9 311 0 q 299 32 296 18 l 368 361 l 154 926 q 151 939 151 935 q 161 962 151 951 q 186 972 171 972 l 247 972 q 279 949 269 972 l 453 497 l 818 949 q 860 972 838 972 l 942 972 q 965 953 965 972 q 954 926 965 940 l 500 361 l 429 32 q 415 9 426 18 q 390 0 404 0 l 325 0 m 508 1042 q 489 1060 489 1042 q 500 1079 492 1072 l 632 1207 q 658 1226 647 1221 q 689 1232 669 1232 l 788 1232 q 804 1226 799 1232 q 810 1211 810 1219 q 797 1189 807 1194 l 608 1057 q 585 1044 594 1047 q 560 1042 575 1042 l 508 1042 z "},"Ŷ":{"ha":892,"x_min":151,"x_max":965,"o":"m 325 0 q 303 9 311 0 q 299 32 296 18 l 368 361 l 154 926 q 151 939 151 935 q 161 962 151 951 q 186 972 171 972 l 247 972 q 279 949 269 972 l 453 497 l 818 949 q 860 972 838 972 l 942 972 q 965 953 965 972 q 954 926 965 940 l 500 361 l 429 32 q 415 9 426 18 q 390 0 404 0 l 325 0 m 354 1042 q 339 1057 339 1042 q 351 1078 339 1068 l 513 1211 q 539 1228 529 1225 q 563 1232 549 1232 l 604 1232 q 626 1228 618 1232 q 646 1211 635 1225 l 750 1079 q 756 1058 758 1069 q 748 1047 754 1051 q 733 1042 742 1042 l 696 1042 q 667 1051 681 1042 l 572 1131 l 444 1051 q 433 1046 442 1050 q 413 1042 424 1042 l 354 1042 z "},"Ÿ":{"ha":892,"x_min":151,"x_max":965,"o":"m 325 0 q 303 9 311 0 q 299 32 296 18 l 368 361 l 154 926 q 151 939 151 935 q 161 962 151 951 q 186 972 171 972 l 247 972 q 279 949 269 972 l 453 497 l 818 949 q 860 972 838 972 l 942 972 q 965 953 965 972 q 954 926 965 940 l 500 361 l 429 32 q 415 9 426 18 q 390 0 404 0 l 325 0 m 379 1042 q 359 1050 365 1042 q 356 1072 353 1058 l 371 1146 q 384 1169 374 1160 q 408 1178 394 1178 l 482 1178 q 503 1169 496 1178 q 507 1146 510 1160 l 492 1072 q 478 1050 489 1058 q 453 1042 467 1042 l 379 1042 m 654 1042 q 633 1050 640 1042 q 629 1072 626 1058 l 644 1146 q 658 1169 647 1160 q 683 1178 669 1178 l 756 1178 q 776 1169 769 1178 q 781 1146 783 1160 l 765 1072 q 751 1050 763 1058 q 726 1042 740 1042 l 654 1042 z "},"Ỳ":{"ha":892,"x_min":151,"x_max":965,"o":"m 325 0 q 303 9 311 0 q 299 32 296 18 l 368 361 l 154 926 q 151 939 151 935 q 161 962 151 951 q 186 972 171 972 l 247 972 q 279 949 269 972 l 453 497 l 818 949 q 860 972 838 972 l 942 972 q 965 953 965 972 q 954 926 965 940 l 500 361 l 429 32 q 415 9 426 18 q 390 0 404 0 l 325 0 m 553 1042 q 528 1044 538 1042 q 510 1057 519 1047 l 382 1185 q 375 1201 375 1192 q 384 1223 375 1214 q 407 1232 393 1232 l 503 1232 q 530 1227 522 1232 q 549 1207 538 1222 l 625 1082 q 628 1068 628 1074 q 620 1049 628 1057 q 601 1042 613 1042 l 553 1042 z "},"Z":{"ha":825,"x_min":-29,"x_max":872,"o":"m 0 0 q -22 10 -15 0 q -26 33 -29 19 l -14 89 q -2 117 -10 107 q 18 140 6 128 l 681 856 l 194 856 q 173 865 181 856 q 168 888 165 874 l 179 939 q 193 963 182 954 q 218 972 204 972 l 844 972 q 866 963 860 972 q 869 939 872 954 l 858 883 q 849 860 856 869 q 829 835 842 850 l 169 117 l 676 117 q 699 108 692 117 q 703 85 706 99 l 692 32 q 678 9 689 18 q 653 0 667 0 l 0 0 z "},"Ź":{"ha":825,"x_min":-28,"x_max":871,"o":"m 0 0 q -22 10 -15 0 q -26 33 -29 19 l -14 89 q -2 117 -10 107 q 18 140 6 128 l 681 856 l 194 856 q 173 865 181 856 q 168 888 165 874 l 179 939 q 193 963 182 954 q 218 972 204 972 l 844 972 q 866 963 860 972 q 869 939 872 954 l 858 883 q 849 860 856 869 q 829 835 842 850 l 169 117 l 676 117 q 699 108 692 117 q 703 85 706 99 l 692 32 q 678 9 689 18 q 653 0 667 0 l 0 0 m 506 1042 q 486 1060 486 1042 q 497 1079 489 1072 l 629 1207 q 656 1226 644 1221 q 686 1232 667 1232 l 785 1232 q 801 1226 796 1232 q 807 1211 807 1219 q 794 1189 804 1194 l 606 1057 q 582 1044 592 1047 q 557 1042 572 1042 l 506 1042 z "},"Ž":{"ha":825,"x_min":-28,"x_max":871,"o":"m 0 0 q -22 10 -15 0 q -26 33 -29 19 l -14 89 q -2 117 -10 107 q 18 140 6 128 l 681 856 l 194 856 q 173 865 181 856 q 168 888 165 874 l 179 939 q 193 963 182 954 q 218 972 204 972 l 844 972 q 866 963 860 972 q 869 939 872 954 l 858 883 q 849 860 856 869 q 829 835 842 850 l 169 117 l 676 117 q 699 108 692 117 q 703 85 706 99 l 692 32 q 678 9 689 18 q 653 0 667 0 l 0 0 m 528 1042 q 506 1045 514 1042 q 486 1063 497 1049 l 382 1194 q 376 1215 374 1204 q 384 1227 378 1222 q 399 1232 390 1232 l 436 1232 q 465 1222 450 1232 l 560 1143 l 688 1222 q 699 1228 690 1224 q 719 1232 708 1232 l 776 1232 q 793 1217 793 1232 q 781 1196 793 1207 l 619 1063 q 592 1045 603 1049 q 569 1042 582 1042 l 528 1042 z "},"Ż":{"ha":825,"x_min":-28,"x_max":871,"o":"m 0 0 q -22 10 -15 0 q -26 33 -29 19 l -14 89 q -2 117 -10 107 q 18 140 6 128 l 681 856 l 194 856 q 173 865 181 856 q 168 888 165 874 l 179 939 q 193 963 182 954 q 218 972 204 972 l 844 972 q 866 963 860 972 q 869 939 872 954 l 858 883 q 849 860 856 869 q 829 835 842 850 l 169 117 l 676 117 q 699 108 692 117 q 703 85 706 99 l 692 32 q 678 9 689 18 q 653 0 667 0 l 0 0 m 500 1042 q 480 1050 486 1042 q 476 1072 474 1058 l 494 1160 q 508 1183 497 1174 q 532 1192 518 1192 l 619 1192 q 640 1183 633 1192 q 644 1160 647 1174 l 626 1072 q 613 1050 624 1058 q 588 1042 601 1042 l 500 1042 z "},"a":{"ha":811,"x_min":44,"x_max":768,"o":"m 283 -14 q 102 56 160 -14 q 44 238 44 125 q 51 319 44 274 q 69 403 56 354 q 192 643 107 550 q 426 736 278 736 q 556 709 510 736 q 631 633 603 682 l 643 690 q 656 713 646 704 q 681 722 667 722 l 740 722 q 761 713 754 722 q 765 690 768 704 l 626 32 q 613 9 624 18 q 589 0 603 0 l 529 0 q 508 9 515 0 q 503 32 500 18 l 517 92 q 415 13 465 39 q 283 -14 365 -14 m 308 94 q 473 160 407 94 q 560 313 539 225 q 583 419 578 386 q 589 472 589 456 q 553 584 589 540 q 438 628 517 628 q 285 565 344 628 q 197 401 226 501 q 181 321 185 358 q 174 242 174 275 q 308 94 174 94 z "},"á":{"ha":811,"x_min":44,"x_max":767,"o":"m 283 -14 q 102 56 160 -14 q 44 238 44 125 q 51 319 44 274 q 69 403 56 354 q 192 643 107 550 q 426 736 278 736 q 556 709 510 736 q 631 633 603 682 l 643 690 q 656 713 646 704 q 681 722 667 722 l 740 722 q 761 713 754 722 q 765 690 768 704 l 626 32 q 613 9 624 18 q 589 0 603 0 l 529 0 q 508 9 515 0 q 503 32 500 18 l 517 92 q 415 13 465 39 q 283 -14 365 -14 m 308 94 q 473 160 407 94 q 560 313 539 225 q 583 419 578 386 q 589 472 589 456 q 553 584 589 540 q 438 628 517 628 q 285 565 344 628 q 197 401 226 501 q 181 321 185 358 q 174 242 174 275 q 308 94 174 94 m 432 826 q 417 833 422 826 q 415 849 413 839 q 426 867 418 858 l 557 992 q 583 1012 572 1007 q 614 1017 594 1017 l 704 1017 q 719 1010 714 1017 q 725 994 725 1004 q 714 974 725 981 l 525 842 q 501 829 511 832 q 476 826 492 826 l 432 826 z "},"ă":{"ha":811,"x_min":44,"x_max":767,"o":"m 283 -14 q 102 56 160 -14 q 44 238 44 125 q 51 319 44 274 q 69 403 56 354 q 192 643 107 550 q 426 736 278 736 q 556 709 510 736 q 631 633 603 682 l 643 690 q 656 713 646 704 q 681 722 667 722 l 740 722 q 761 713 754 722 q 765 690 768 704 l 626 32 q 613 9 624 18 q 589 0 603 0 l 529 0 q 508 9 515 0 q 503 32 500 18 l 517 92 q 415 13 465 39 q 283 -14 365 -14 m 308 94 q 473 160 407 94 q 560 313 539 225 q 583 419 578 386 q 589 472 589 456 q 553 584 589 540 q 438 628 517 628 q 285 565 344 628 q 197 401 226 501 q 181 321 185 358 q 174 242 174 275 q 308 94 174 94 m 481 821 q 372 858 408 821 q 335 953 335 894 q 339 992 335 974 q 350 1010 342 1003 q 371 1018 358 1018 l 410 1018 q 428 1010 422 1018 q 431 992 433 1003 q 426 958 426 975 q 485 903 426 903 q 582 992 557 903 q 593 1010 585 1003 q 614 1018 601 1018 l 653 1018 q 671 1010 665 1018 q 674 992 676 1003 q 614 868 658 915 q 481 821 569 821 z "},"â":{"ha":811,"x_min":44,"x_max":767,"o":"m 283 -14 q 102 56 160 -14 q 44 238 44 125 q 51 319 44 274 q 69 403 56 354 q 192 643 107 550 q 426 736 278 736 q 556 709 510 736 q 631 633 603 682 l 643 690 q 656 713 646 704 q 681 722 667 722 l 740 722 q 761 713 754 722 q 765 690 768 704 l 626 32 q 613 9 624 18 q 589 0 603 0 l 529 0 q 508 9 515 0 q 503 32 500 18 l 517 92 q 415 13 465 39 q 283 -14 365 -14 m 308 94 q 473 160 407 94 q 560 313 539 225 q 583 419 578 386 q 589 472 589 456 q 553 584 589 540 q 438 628 517 628 q 285 565 344 628 q 197 401 226 501 q 181 321 185 358 q 174 242 174 275 q 308 94 174 94 m 279 826 q 264 842 264 826 q 276 863 264 853 l 438 996 q 464 1013 454 1010 q 488 1017 474 1017 l 528 1017 q 549 1013 540 1017 q 568 996 557 1010 l 672 864 q 678 843 681 854 q 670 831 676 836 q 656 826 664 826 l 619 826 q 590 836 604 826 l 496 915 l 368 836 q 356 831 365 835 q 336 826 347 826 l 279 826 z "},"ä":{"ha":811,"x_min":44,"x_max":767,"o":"m 283 -14 q 102 56 160 -14 q 44 238 44 125 q 51 319 44 274 q 69 403 56 354 q 192 643 107 550 q 426 736 278 736 q 556 709 510 736 q 631 633 603 682 l 643 690 q 656 713 646 704 q 681 722 667 722 l 740 722 q 761 713 754 722 q 765 690 768 704 l 626 32 q 613 9 624 18 q 589 0 603 0 l 529 0 q 508 9 515 0 q 503 32 500 18 l 517 92 q 415 13 465 39 q 283 -14 365 -14 m 308 94 q 473 160 407 94 q 560 313 539 225 q 583 419 578 386 q 589 472 589 456 q 553 584 589 540 q 438 628 517 628 q 285 565 344 628 q 197 401 226 501 q 181 321 185 358 q 174 242 174 275 q 308 94 174 94 m 329 864 q 308 872 315 864 q 304 894 301 881 l 321 967 q 333 990 324 981 q 357 999 343 999 l 431 999 q 451 990 444 999 q 456 967 458 981 l 440 894 q 426 872 438 881 q 401 864 415 864 l 329 864 m 561 864 q 540 872 547 864 q 536 894 533 881 l 553 967 q 565 990 554 981 q 590 999 576 999 l 663 999 q 684 990 676 999 q 689 967 692 981 l 672 894 q 659 872 669 881 q 635 864 649 864 l 561 864 z "},"à":{"ha":811,"x_min":44,"x_max":767,"o":"m 283 -14 q 102 56 160 -14 q 44 238 44 125 q 51 319 44 274 q 69 403 56 354 q 192 643 107 550 q 426 736 278 736 q 556 709 510 736 q 631 633 603 682 l 643 690 q 656 713 646 704 q 681 722 667 722 l 740 722 q 761 713 754 722 q 765 690 768 704 l 626 32 q 613 9 624 18 q 589 0 603 0 l 529 0 q 508 9 515 0 q 503 32 500 18 l 517 92 q 415 13 465 39 q 283 -14 365 -14 m 308 94 q 473 160 407 94 q 560 313 539 225 q 583 419 578 386 q 589 472 589 456 q 553 584 589 540 q 438 628 517 628 q 285 565 344 628 q 197 401 226 501 q 181 321 185 358 q 174 242 174 275 q 308 94 174 94 m 467 826 q 442 830 451 826 q 424 842 432 833 l 296 969 q 289 986 289 976 q 298 1008 289 999 q 318 1017 307 1017 l 414 1017 q 441 1012 432 1017 q 460 992 450 1007 l 535 869 q 539 847 542 858 q 529 833 536 839 q 513 826 522 826 l 467 826 z "},"ā":{"ha":811,"x_min":44,"x_max":767,"o":"m 283 -14 q 102 56 160 -14 q 44 238 44 125 q 51 319 44 274 q 69 403 56 354 q 192 643 107 550 q 426 736 278 736 q 556 709 510 736 q 631 633 603 682 l 643 690 q 656 713 646 704 q 681 722 667 722 l 740 722 q 761 713 754 722 q 765 690 768 704 l 626 32 q 613 9 624 18 q 589 0 603 0 l 529 0 q 508 9 515 0 q 503 32 500 18 l 517 92 q 415 13 465 39 q 283 -14 365 -14 m 308 94 q 473 160 407 94 q 560 313 539 225 q 583 419 578 386 q 589 472 589 456 q 553 584 589 540 q 438 628 517 628 q 285 565 344 628 q 197 401 226 501 q 181 321 185 358 q 174 242 174 275 q 308 94 174 94 m 335 858 q 314 867 321 858 q 310 889 307 875 l 318 929 q 331 951 321 943 q 356 960 342 960 l 663 960 q 683 951 676 960 q 686 929 689 943 l 678 889 q 665 867 676 875 q 640 858 654 858 l 335 858 z "},"ą":{"ha":764,"x_min":22,"x_max":708,"o":"m 488 -306 q 389 -270 425 -306 q 353 -169 353 -235 q 358 -115 353 -142 q 409 -20 371 -61 q 489 40 447 21 q 485 50 485 44 l 494 93 q 233 -14 399 -14 q 82 35 142 -14 q 22 158 22 83 q 26 196 22 178 q 133 346 46 288 q 354 424 221 404 l 568 453 l 576 493 q 582 535 582 524 q 443 636 582 636 q 334 610 379 636 q 264 550 289 585 q 231 526 251 526 l 176 526 q 156 535 164 526 q 151 557 149 544 q 198 631 158 589 q 306 705 238 674 q 465 736 375 736 q 651 685 594 736 q 708 549 708 633 q 701 483 708 521 l 606 32 q 575 1 601 11 l 569 0 q 494 -46 521 -18 q 457 -115 467 -74 q 453 -150 453 -135 q 469 -196 453 -181 q 514 -211 485 -211 l 522 -211 q 543 -220 536 -211 q 547 -243 550 -229 l 540 -274 q 526 -297 538 -287 q 501 -306 515 -306 l 488 -306 m 283 88 q 446 147 375 88 q 542 321 517 207 l 549 360 l 381 336 q 208 281 267 319 q 149 183 149 242 q 188 113 149 138 q 283 88 226 88 z "},"å":{"ha":811,"x_min":44,"x_max":767,"o":"m 283 -14 q 102 56 160 -14 q 44 238 44 125 q 51 319 44 274 q 69 403 56 354 q 192 643 107 550 q 426 736 278 736 q 556 709 510 736 q 631 633 603 682 l 643 690 q 656 713 646 704 q 681 722 667 722 l 740 722 q 761 713 754 722 q 765 690 768 704 l 626 32 q 613 9 624 18 q 589 0 603 0 l 529 0 q 508 9 515 0 q 503 32 500 18 l 517 92 q 415 13 465 39 q 283 -14 365 -14 m 308 94 q 473 160 407 94 q 560 313 539 225 q 583 419 578 386 q 589 472 589 456 q 553 584 589 540 q 438 628 517 628 q 285 565 344 628 q 197 401 226 501 q 181 321 185 358 q 174 242 174 275 q 308 94 174 94 m 482 819 q 410 844 439 819 q 382 907 382 868 q 385 928 382 914 q 434 1006 396 975 q 521 1038 472 1038 q 592 1013 564 1038 q 619 950 619 989 q 617 928 619 944 q 568 850 607 881 q 482 819 529 819 m 488 886 q 528 902 511 886 q 544 940 544 918 q 513 969 544 969 q 474 954 490 969 q 458 917 458 939 q 466 894 458 903 q 488 886 474 886 z "},"ã":{"ha":811,"x_min":44,"x_max":767,"o":"m 283 -14 q 102 56 160 -14 q 44 238 44 125 q 51 319 44 274 q 69 403 56 354 q 192 643 107 550 q 426 736 278 736 q 556 709 510 736 q 631 633 603 682 l 643 690 q 656 713 646 704 q 681 722 667 722 l 740 722 q 761 713 754 722 q 765 690 768 704 l 626 32 q 613 9 624 18 q 589 0 603 0 l 529 0 q 508 9 515 0 q 503 32 500 18 l 517 92 q 415 13 465 39 q 283 -14 365 -14 m 308 94 q 473 160 407 94 q 560 313 539 225 q 583 419 578 386 q 589 472 589 456 q 553 584 589 540 q 438 628 517 628 q 285 565 344 628 q 197 401 226 501 q 181 321 185 358 q 174 242 174 275 q 308 94 174 94 m 565 819 q 525 826 540 819 q 488 847 510 833 q 465 860 476 854 q 440 867 453 867 q 419 860 429 867 q 401 846 410 854 q 385 831 392 836 q 368 826 378 826 l 325 826 q 310 833 315 826 q 307 849 306 840 q 352 932 314 894 q 442 969 390 969 q 482 963 467 969 q 519 942 497 956 q 531 934 522 940 q 549 925 540 928 q 567 922 558 922 q 587 928 579 922 q 604 944 594 933 q 619 958 611 951 q 638 964 628 964 l 679 964 q 695 958 690 964 q 699 942 700 951 q 654 858 692 896 q 565 819 617 819 z "},"æ":{"ha":1236,"x_min":24,"x_max":1196,"o":"m 240 -14 q 82 33 140 -14 q 24 156 24 81 q 28 196 24 175 q 135 349 47 289 q 357 426 224 408 l 571 456 l 578 493 q 583 535 583 524 q 444 636 583 636 q 335 610 381 636 q 264 550 289 585 q 231 526 251 526 l 176 526 q 156 535 164 526 q 151 557 149 544 q 198 631 158 589 q 307 705 238 674 q 467 736 376 736 q 614 706 561 736 q 685 626 667 676 q 799 707 733 678 q 946 736 865 736 q 1139 667 1082 736 q 1196 489 1196 597 q 1183 375 1196 440 l 1178 350 q 1163 327 1175 336 q 1138 318 1151 318 l 668 318 l 667 306 q 660 242 660 267 q 701 126 660 164 q 806 88 743 88 q 904 107 856 88 q 990 167 953 126 q 1014 186 1006 182 q 1038 190 1022 190 l 1096 190 q 1115 183 1108 190 q 1119 163 1121 175 q 1068 92 1113 135 q 950 18 1024 50 q 785 -14 876 -14 q 633 24 690 -14 q 553 128 576 61 q 240 -14 438 -14 m 1064 413 l 1065 418 q 1074 486 1074 456 q 1036 596 1074 556 q 925 636 999 636 q 782 581 849 636 q 690 418 715 525 l 689 413 l 1064 413 m 283 88 q 447 147 375 88 q 542 321 518 207 l 550 360 l 382 336 q 209 281 268 319 q 150 183 150 242 q 189 113 150 138 q 283 88 228 88 z "},"ǽ":{"ha":1236,"x_min":24,"x_max":1196,"o":"m 240 -14 q 82 33 140 -14 q 24 156 24 81 q 28 196 24 175 q 135 349 47 289 q 357 426 224 408 l 571 456 l 578 493 q 583 535 583 524 q 444 636 583 636 q 335 610 381 636 q 264 550 289 585 q 231 526 251 526 l 176 526 q 156 535 164 526 q 151 557 149 544 q 198 631 158 589 q 307 705 238 674 q 467 736 376 736 q 614 706 561 736 q 685 626 667 676 q 799 707 733 678 q 946 736 865 736 q 1139 667 1082 736 q 1196 489 1196 597 q 1183 375 1196 440 l 1178 350 q 1163 327 1175 336 q 1138 318 1151 318 l 668 318 l 667 306 q 660 242 660 267 q 701 126 660 164 q 806 88 743 88 q 904 107 856 88 q 990 167 953 126 q 1014 186 1006 182 q 1038 190 1022 190 l 1096 190 q 1115 183 1108 190 q 1119 163 1121 175 q 1068 92 1113 135 q 950 18 1024 50 q 785 -14 876 -14 q 633 24 690 -14 q 553 128 576 61 q 240 -14 438 -14 m 1064 413 l 1065 418 q 1074 486 1074 456 q 1036 596 1074 556 q 925 636 999 636 q 782 581 849 636 q 690 418 715 525 l 689 413 l 1064 413 m 283 88 q 447 147 375 88 q 542 321 518 207 l 550 360 l 382 336 q 209 281 268 319 q 150 183 150 242 q 189 113 150 138 q 283 88 228 88 m 676 826 q 662 833 667 826 q 660 849 657 839 q 671 867 663 858 l 801 992 q 828 1012 817 1007 q 858 1017 839 1017 l 949 1017 q 964 1010 958 1017 q 969 994 969 1004 q 958 974 969 981 l 769 842 q 746 829 756 832 q 721 826 736 826 l 676 826 z "},"b":{"ha":824,"x_min":22,"x_max":758,"o":"m 372 -14 q 239 15 292 -14 q 160 92 186 43 l 147 32 q 133 9 144 18 q 108 0 122 0 l 50 0 q 29 9 36 0 q 25 32 22 18 l 221 954 q 234 977 224 968 q 260 986 244 986 l 322 986 q 343 977 336 986 q 347 954 350 968 l 279 633 q 382 710 328 683 q 513 736 436 736 q 698 666 638 736 q 758 482 758 596 q 753 408 758 442 q 732 314 742 349 q 606 78 696 169 q 372 -14 517 -14 m 360 94 q 607 321 538 94 q 624 401 617 351 q 631 478 631 446 q 598 588 631 547 q 486 628 565 628 q 368 598 421 628 q 281 520 315 568 q 233 419 246 472 q 211 313 219 365 q 206 256 206 286 q 242 140 206 185 q 360 94 279 94 z "},"c":{"ha":763,"x_min":42,"x_max":721,"o":"m 311 -14 q 115 52 188 -14 q 42 236 42 118 q 49 306 42 264 q 72 417 65 389 q 207 653 110 569 q 453 736 304 736 q 607 704 547 736 q 694 623 667 672 q 721 522 721 574 q 719 501 721 508 q 710 478 718 488 q 688 469 701 469 l 621 469 q 599 478 606 469 q 592 506 592 486 q 447 629 592 629 q 292 575 358 629 q 199 410 226 521 l 178 313 q 171 242 171 268 q 318 93 171 93 q 531 218 467 93 q 548 241 540 235 q 569 247 556 247 l 636 247 q 656 238 649 247 q 658 215 663 229 q 601 110 643 163 q 485 22 558 57 q 311 -14 413 -14 z "},"ć":{"ha":763,"x_min":42,"x_max":721,"o":"m 311 -14 q 115 52 188 -14 q 42 236 42 118 q 49 306 42 264 q 72 417 65 389 q 207 653 110 569 q 453 736 304 736 q 607 704 547 736 q 694 623 667 672 q 721 522 721 574 q 719 501 721 508 q 710 478 718 488 q 688 469 701 469 l 621 469 q 599 478 606 469 q 592 506 592 486 q 447 629 592 629 q 292 575 358 629 q 199 410 226 521 l 178 313 q 171 242 171 268 q 318 93 171 93 q 531 218 467 93 q 548 241 540 235 q 569 247 556 247 l 636 247 q 656 238 649 247 q 658 215 663 229 q 601 110 643 163 q 485 22 558 57 q 311 -14 413 -14 m 428 826 q 413 833 418 826 q 411 849 408 839 q 422 867 414 858 l 553 992 q 579 1012 568 1007 q 610 1017 590 1017 l 700 1017 q 715 1010 710 1017 q 721 994 721 1004 q 710 974 721 981 l 521 842 q 497 829 507 832 q 472 826 488 826 l 428 826 z "},"č":{"ha":763,"x_min":42,"x_max":721,"o":"m 311 -14 q 115 52 188 -14 q 42 236 42 118 q 49 306 42 264 q 72 417 65 389 q 207 653 110 569 q 453 736 304 736 q 607 704 547 736 q 694 623 667 672 q 721 522 721 574 q 719 501 721 508 q 710 478 718 488 q 688 469 701 469 l 621 469 q 599 478 606 469 q 592 506 592 486 q 447 629 592 629 q 292 575 358 629 q 199 410 226 521 l 178 313 q 171 242 171 268 q 318 93 171 93 q 531 218 467 93 q 548 241 540 235 q 569 247 556 247 l 636 247 q 656 238 649 247 q 658 215 663 229 q 601 110 643 163 q 485 22 558 57 q 311 -14 413 -14 m 457 826 q 435 830 443 826 q 415 847 426 833 l 311 979 q 304 996 304 989 q 312 1011 306 1006 q 328 1017 318 1017 l 364 1017 q 393 1007 378 1017 l 488 928 l 615 1007 q 627 1013 618 1008 q 647 1017 636 1017 l 704 1017 q 715 1013 711 1017 q 719 1001 719 1008 q 707 981 719 992 l 546 847 q 519 830 529 833 q 496 826 510 826 l 457 826 z "},"ç":{"ha":763,"x_min":42,"x_max":721,"o":"m 178 313 q 171 242 171 268 q 318 93 171 93 q 531 218 467 93 q 548 241 540 235 q 569 247 556 247 l 636 247 q 656 238 649 247 q 658 215 663 229 q 601 110 643 163 q 485 22 558 58 q 313 -14 413 -14 l 268 -76 q 321 -67 286 -67 q 381 -92 357 -67 q 404 -158 404 -118 q 401 -187 404 -178 q 354 -274 390 -242 q 260 -306 318 -306 q 177 -287 214 -306 q 140 -249 140 -268 q 149 -235 140 -242 l 172 -215 q 185 -210 178 -210 q 202 -218 190 -210 q 226 -232 214 -226 q 261 -237 239 -237 q 308 -219 288 -237 q 329 -175 329 -201 q 316 -147 329 -157 q 282 -136 303 -136 q 244 -142 265 -136 q 215 -149 222 -149 q 199 -140 204 -149 l 179 -114 q 176 -106 176 -108 q 183 -87 176 -99 q 193 -71 190 -75 l 235 -7 q 93 76 144 13 q 42 235 42 139 q 49 306 42 264 q 72 417 65 389 q 207 653 110 569 q 453 736 304 736 q 607 704 547 736 q 694 623 667 672 q 721 522 721 574 q 719 501 721 508 q 710 478 718 488 q 688 469 701 469 l 621 469 q 599 478 606 469 q 592 506 592 486 q 447 629 592 629 q 292 575 358 629 q 199 410 226 521 l 178 313 z "},"ĉ":{"ha":763,"x_min":42,"x_max":721,"o":"m 311 -14 q 115 52 188 -14 q 42 236 42 118 q 49 306 42 264 q 72 417 65 389 q 207 653 110 569 q 453 736 304 736 q 607 704 547 736 q 694 623 667 672 q 721 522 721 574 q 719 501 721 508 q 710 478 718 488 q 688 469 701 469 l 621 469 q 599 478 606 469 q 592 506 592 486 q 447 629 592 629 q 292 575 358 629 q 199 410 226 521 l 178 313 q 171 242 171 268 q 318 93 171 93 q 531 218 467 93 q 548 241 540 235 q 569 247 556 247 l 636 247 q 656 238 649 247 q 658 215 663 229 q 601 110 643 163 q 485 22 558 57 q 311 -14 413 -14 m 275 838 q 260 853 260 838 q 272 874 260 864 l 433 1007 q 460 1024 450 1021 q 483 1028 469 1028 l 524 1028 q 544 1024 536 1028 q 564 1007 553 1021 l 668 875 q 674 854 676 865 q 666 842 672 847 q 651 838 660 838 l 615 838 q 586 847 600 838 l 492 926 l 364 847 q 352 842 361 846 q 332 838 343 838 l 275 838 z "},"ċ":{"ha":763,"x_min":42,"x_max":721,"o":"m 311 -14 q 115 52 188 -14 q 42 236 42 118 q 49 306 42 264 q 72 417 65 389 q 207 653 110 569 q 453 736 304 736 q 607 704 547 736 q 694 623 667 672 q 721 522 721 574 q 719 501 721 508 q 710 478 718 488 q 688 469 701 469 l 621 469 q 599 478 606 469 q 592 506 592 486 q 447 629 592 629 q 292 575 358 629 q 199 410 226 521 l 178 313 q 171 242 171 268 q 318 93 171 93 q 531 218 467 93 q 548 241 540 235 q 569 247 556 247 l 636 247 q 656 238 649 247 q 658 215 663 229 q 601 110 643 163 q 485 22 558 57 q 311 -14 413 -14 m 435 851 q 414 860 421 851 q 410 883 407 869 l 429 968 q 442 991 432 982 q 465 1000 451 1000 l 551 1000 q 573 991 565 1000 q 578 968 581 982 l 558 883 q 545 860 556 869 q 521 851 535 851 l 435 851 z "},"d":{"ha":824,"x_min":43,"x_max":836,"o":"m 288 -14 q 103 57 164 -14 q 43 242 43 128 q 50 319 43 275 q 68 403 54 354 q 192 642 104 549 q 429 736 281 736 q 639 633 581 736 l 707 954 q 720 977 710 968 q 744 986 731 986 l 807 986 q 828 977 821 986 q 833 954 836 968 l 636 32 q 623 9 633 18 q 599 0 613 0 l 540 0 q 519 9 526 0 q 514 32 511 18 l 526 92 q 423 13 476 39 q 288 -14 369 -14 m 314 94 q 434 126 381 94 q 522 207 488 157 q 569 313 557 257 q 593 419 581 353 q 597 468 597 444 q 560 583 597 538 q 442 628 522 628 q 286 564 347 628 q 196 401 225 500 q 179 321 186 371 q 174 250 174 288 q 314 94 174 94 z "},"ð":{"ha":785,"x_min":58,"x_max":814,"o":"m 318 -14 q 125 51 192 -14 q 58 229 58 117 q 68 321 58 276 q 205 562 100 471 q 460 653 310 653 q 607 608 551 653 q 557 761 594 693 l 407 708 q 389 704 394 704 q 371 710 376 704 q 368 729 365 717 l 374 758 q 385 781 376 774 q 411 794 393 788 l 508 829 q 428 914 472 871 q 411 944 408 932 q 424 965 414 957 q 446 972 433 972 l 513 972 q 563 954 544 972 q 632 874 607 907 l 772 922 q 790 926 782 926 q 808 920 803 926 q 811 901 814 914 l 806 872 q 794 850 803 857 q 768 836 786 843 l 679 804 q 738 554 738 699 q 714 335 738 454 l 710 317 q 573 76 676 167 q 318 -14 469 -14 m 340 90 q 495 152 432 90 q 581 311 558 214 l 585 328 q 592 392 592 365 q 553 506 592 464 q 439 549 515 549 q 282 487 344 549 q 199 328 219 425 l 193 308 q 188 249 188 281 q 226 133 188 176 q 340 90 264 90 z "},"ď":{"ha":908,"x_min":43,"x_max":1076,"o":"m 288 -14 q 103 57 164 -14 q 43 242 43 128 q 50 319 43 275 q 68 403 54 354 q 192 642 104 549 q 429 736 281 736 q 639 633 581 736 l 707 954 q 720 977 710 968 q 744 986 731 986 l 807 986 q 828 977 821 986 q 833 954 836 968 l 636 32 q 623 9 633 18 q 599 0 613 0 l 540 0 q 519 9 526 0 q 514 32 511 18 l 526 92 q 423 13 476 39 q 288 -14 369 -14 m 314 94 q 434 126 381 94 q 522 207 488 157 q 569 313 557 257 q 593 419 581 353 q 597 468 597 444 q 560 583 597 538 q 442 628 522 628 q 286 564 347 628 q 196 401 225 500 q 179 321 186 371 q 174 250 174 288 q 314 94 174 94 m 883 754 q 870 759 875 754 q 865 771 865 764 q 868 783 865 775 l 926 946 q 975 986 942 986 l 1060 986 q 1072 981 1068 986 q 1076 968 1076 976 q 1065 940 1076 956 l 975 786 q 954 762 964 769 q 928 754 944 754 l 883 754 z "},"đ":{"ha":825,"x_min":43,"x_max":921,"o":"m 278 -14 q 97 53 151 -14 q 43 225 43 119 q 51 319 43 274 q 69 403 61 371 q 192 638 103 539 q 438 736 281 736 q 640 633 582 736 l 674 788 l 600 788 q 579 797 586 788 q 575 819 572 806 l 581 847 q 593 870 582 861 q 618 879 604 879 l 693 879 l 710 954 q 723 978 713 969 q 747 986 733 986 l 810 986 q 831 977 824 986 q 835 954 838 968 l 818 879 l 893 879 q 914 871 907 879 q 918 847 921 863 l 913 819 q 899 797 910 806 q 874 788 888 788 l 800 788 l 639 32 q 626 9 636 18 q 601 0 615 0 l 542 0 q 520 9 528 0 q 515 32 513 18 l 529 93 q 278 -14 428 -14 m 328 94 q 488 159 425 94 q 572 313 551 224 q 596 419 590 386 q 600 465 600 443 q 560 581 600 535 q 440 628 521 628 q 281 565 340 628 q 197 401 222 503 q 179 321 185 361 q 172 253 172 282 q 209 138 172 181 q 328 94 246 94 z "},"e":{"ha":774,"x_min":64,"x_max":736,"o":"m 319 -14 q 130 53 196 -14 q 64 242 64 121 q 69 315 64 281 q 89 408 76 357 q 234 647 131 558 q 479 736 338 736 q 670 669 604 736 q 736 483 736 603 q 724 375 736 433 l 718 350 q 703 327 715 336 q 678 318 692 318 l 197 318 l 194 306 q 190 256 190 281 q 229 135 190 183 q 340 88 268 88 q 453 113 406 88 q 525 167 500 139 q 548 187 540 183 q 572 190 556 190 l 635 190 q 654 183 647 190 q 658 163 661 175 q 603 90 650 132 q 481 17 556 47 q 319 -14 407 -14 m 604 413 l 606 417 q 613 478 613 451 q 572 593 613 550 q 458 636 532 636 q 303 575 368 636 q 218 417 239 514 l 218 413 l 604 413 z "},"é":{"ha":774,"x_min":64,"x_max":736,"o":"m 319 -14 q 130 53 196 -14 q 64 242 64 121 q 69 315 64 281 q 89 408 76 357 q 234 647 131 558 q 479 736 338 736 q 670 669 604 736 q 736 483 736 603 q 724 375 736 433 l 718 350 q 703 327 715 336 q 678 318 692 318 l 197 318 l 194 306 q 190 256 190 281 q 229 135 190 183 q 340 88 268 88 q 453 113 406 88 q 525 167 500 139 q 548 187 540 183 q 572 190 556 190 l 635 190 q 654 183 647 190 q 658 163 661 175 q 603 90 650 132 q 481 17 556 47 q 319 -14 407 -14 m 604 413 l 606 417 q 613 478 613 451 q 572 593 613 550 q 458 636 532 636 q 303 575 368 636 q 218 417 239 514 l 218 413 l 604 413 m 432 826 q 417 833 422 826 q 415 849 413 839 q 426 867 418 858 l 557 992 q 583 1012 572 1007 q 614 1017 594 1017 l 704 1017 q 719 1010 714 1017 q 725 994 725 1004 q 714 974 725 981 l 525 842 q 501 829 511 832 q 476 826 492 826 l 432 826 z "},"ĕ":{"ha":774,"x_min":64,"x_max":736,"o":"m 319 -14 q 130 53 196 -14 q 64 242 64 121 q 69 315 64 281 q 89 408 76 357 q 234 647 131 558 q 479 736 338 736 q 670 669 604 736 q 736 483 736 603 q 724 375 736 433 l 718 350 q 703 327 715 336 q 678 318 692 318 l 197 318 l 194 306 q 190 256 190 281 q 229 135 190 183 q 340 88 268 88 q 453 113 406 88 q 525 167 500 139 q 548 187 540 183 q 572 190 556 190 l 635 190 q 654 183 647 190 q 658 163 661 175 q 603 90 650 132 q 481 17 556 47 q 319 -14 407 -14 m 604 413 l 606 417 q 613 478 613 451 q 572 593 613 550 q 458 636 532 636 q 303 575 368 636 q 218 417 239 514 l 218 413 l 604 413 m 476 819 q 367 856 404 819 q 331 951 331 893 q 335 990 331 972 q 346 1009 338 1001 q 367 1017 354 1017 l 406 1017 q 424 1009 418 1017 q 426 990 429 1001 q 422 957 422 974 q 481 901 422 901 q 578 990 553 901 q 589 1009 581 1001 q 610 1017 597 1017 l 649 1017 q 667 1009 661 1017 q 669 990 672 1001 q 610 867 654 914 q 476 819 565 819 z "},"ě":{"ha":774,"x_min":64,"x_max":736,"o":"m 319 -14 q 130 53 196 -14 q 64 242 64 121 q 69 315 64 281 q 89 408 76 357 q 234 647 131 558 q 479 736 338 736 q 670 669 604 736 q 736 483 736 603 q 724 375 736 433 l 718 350 q 703 327 715 336 q 678 318 692 318 l 197 318 l 194 306 q 190 256 190 281 q 229 135 190 183 q 340 88 268 88 q 453 113 406 88 q 525 167 500 139 q 548 187 540 183 q 572 190 556 190 l 635 190 q 654 183 647 190 q 658 163 661 175 q 603 90 650 132 q 481 17 556 47 q 319 -14 407 -14 m 604 413 l 606 417 q 613 478 613 451 q 572 593 613 550 q 458 636 532 636 q 303 575 368 636 q 218 417 239 514 l 218 413 l 604 413 m 460 826 q 438 830 446 826 q 418 847 429 833 l 314 979 q 307 996 307 989 q 315 1011 308 1006 q 331 1017 321 1017 l 367 1017 q 396 1007 381 1017 l 490 928 l 618 1007 q 630 1013 621 1008 q 650 1017 639 1017 l 707 1017 q 718 1013 714 1017 q 722 1001 722 1008 q 710 981 722 992 l 549 847 q 522 830 532 833 q 499 826 513 826 l 460 826 z "},"ê":{"ha":774,"x_min":64,"x_max":736,"o":"m 319 -14 q 130 53 196 -14 q 64 242 64 121 q 69 315 64 281 q 89 408 76 357 q 234 647 131 558 q 479 736 338 736 q 670 669 604 736 q 736 483 736 603 q 724 375 736 433 l 718 350 q 703 327 715 336 q 678 318 692 318 l 197 318 l 194 306 q 190 256 190 281 q 229 135 190 183 q 340 88 268 88 q 453 113 406 88 q 525 167 500 139 q 548 187 540 183 q 572 190 556 190 l 635 190 q 654 183 647 190 q 658 163 661 175 q 603 90 650 132 q 481 17 556 47 q 319 -14 407 -14 m 604 413 l 606 417 q 613 478 613 451 q 572 593 613 550 q 458 636 532 636 q 303 575 368 636 q 218 417 239 514 l 218 413 l 604 413 m 272 826 q 257 842 257 826 q 269 863 257 853 l 431 996 q 457 1013 447 1010 q 481 1017 467 1017 l 521 1017 q 542 1013 533 1017 q 561 996 550 1010 l 665 864 q 671 843 674 854 q 663 831 669 836 q 649 826 657 826 l 613 826 q 583 836 597 826 l 489 915 l 361 836 q 349 831 358 835 q 329 826 340 826 l 272 826 z "},"ë":{"ha":774,"x_min":64,"x_max":736,"o":"m 319 -14 q 130 53 196 -14 q 64 242 64 121 q 69 315 64 281 q 89 408 76 357 q 234 647 131 558 q 479 736 338 736 q 670 669 604 736 q 736 483 736 603 q 724 375 736 433 l 718 350 q 703 327 715 336 q 678 318 692 318 l 197 318 l 194 306 q 190 256 190 281 q 229 135 190 183 q 340 88 268 88 q 453 113 406 88 q 525 167 500 139 q 548 187 540 183 q 572 190 556 190 l 635 190 q 654 183 647 190 q 658 163 661 175 q 603 90 650 132 q 481 17 556 47 q 319 -14 407 -14 m 604 413 l 606 417 q 613 478 613 451 q 572 593 613 550 q 458 636 532 636 q 303 575 368 636 q 218 417 239 514 l 218 413 l 604 413 m 331 864 q 310 872 317 864 q 306 894 303 881 l 322 967 q 335 990 325 981 q 358 999 344 999 l 432 999 q 453 990 446 999 q 457 967 460 981 l 442 894 q 428 872 439 881 q 403 864 417 864 l 331 864 m 563 864 q 542 872 549 864 q 538 894 535 881 l 554 967 q 567 990 556 981 q 592 999 578 999 l 664 999 q 685 990 678 999 q 690 967 693 981 l 674 894 q 660 872 671 881 q 636 864 650 864 l 563 864 z "},"ė":{"ha":774,"x_min":64,"x_max":736,"o":"m 319 -14 q 130 53 196 -14 q 64 242 64 121 q 69 315 64 281 q 89 408 76 357 q 234 647 131 558 q 479 736 338 736 q 670 669 604 736 q 736 483 736 603 q 724 375 736 433 l 718 350 q 703 327 715 336 q 678 318 692 318 l 197 318 l 194 306 q 190 256 190 281 q 229 135 190 183 q 340 88 268 88 q 453 113 406 88 q 525 167 500 139 q 548 187 540 183 q 572 190 556 190 l 635 190 q 654 183 647 190 q 658 163 661 175 q 603 90 650 132 q 481 17 556 47 q 319 -14 407 -14 m 604 413 l 606 417 q 613 478 613 451 q 572 593 613 550 q 458 636 532 636 q 303 575 368 636 q 218 417 239 514 l 218 413 l 604 413 m 436 851 q 415 860 422 851 q 411 883 408 869 l 431 968 q 443 991 433 982 q 467 1000 453 1000 l 553 1000 q 574 991 567 1000 q 579 968 582 982 l 560 883 q 547 860 557 869 q 522 851 536 851 l 436 851 z "},"è":{"ha":774,"x_min":64,"x_max":736,"o":"m 319 -14 q 130 53 196 -14 q 64 242 64 121 q 69 315 64 281 q 89 408 76 357 q 234 647 131 558 q 479 736 338 736 q 670 669 604 736 q 736 483 736 603 q 724 375 736 433 l 718 350 q 703 327 715 336 q 678 318 692 318 l 197 318 l 194 306 q 190 256 190 281 q 229 135 190 183 q 340 88 268 88 q 453 113 406 88 q 525 167 500 139 q 548 187 540 183 q 572 190 556 190 l 635 190 q 654 183 647 190 q 658 163 661 175 q 603 90 650 132 q 481 17 556 47 q 319 -14 407 -14 m 604 413 l 606 417 q 613 478 613 451 q 572 593 613 550 q 458 636 532 636 q 303 575 368 636 q 218 417 239 514 l 218 413 l 604 413 m 465 826 q 440 830 450 826 q 422 842 431 833 l 294 969 q 288 986 288 976 q 297 1008 288 999 q 317 1017 306 1017 l 413 1017 q 440 1012 431 1017 q 458 992 449 1007 l 533 869 q 538 847 540 858 q 528 833 535 839 q 511 826 521 826 l 465 826 z "},"ē":{"ha":774,"x_min":64,"x_max":736,"o":"m 319 -14 q 130 53 196 -14 q 64 242 64 121 q 69 315 64 281 q 89 408 76 357 q 234 647 131 558 q 479 736 338 736 q 670 669 604 736 q 736 483 736 603 q 724 375 736 433 l 718 350 q 703 327 715 336 q 678 318 692 318 l 197 318 l 194 306 q 190 256 190 281 q 229 135 190 183 q 340 88 268 88 q 453 113 406 88 q 525 167 500 139 q 548 187 540 183 q 572 190 556 190 l 635 190 q 654 183 647 190 q 658 163 661 175 q 603 90 650 132 q 481 17 556 47 q 319 -14 407 -14 m 604 413 l 606 417 q 613 478 613 451 q 572 593 613 550 q 458 636 532 636 q 303 575 368 636 q 218 417 239 514 l 218 413 l 604 413 m 331 858 q 310 867 317 858 q 306 889 303 875 l 314 929 q 327 951 317 943 q 351 960 338 960 l 658 960 q 678 951 672 960 q 682 929 685 943 l 674 889 q 661 867 672 875 q 636 858 650 858 l 331 858 z "},"ę":{"ha":778,"x_min":64,"x_max":738,"o":"m 329 -306 q 214 -268 254 -306 q 174 -164 174 -231 q 181 -107 174 -139 q 225 -1 192 -43 q 106 84 147 22 q 64 239 64 146 q 71 315 64 271 q 90 408 74 336 q 235 647 132 558 q 479 736 339 736 q 672 669 606 736 q 738 483 738 603 q 725 375 738 433 l 719 350 q 705 327 717 336 q 679 318 693 318 l 199 318 l 196 306 q 192 256 192 281 q 230 135 192 182 q 340 88 268 88 q 453 113 406 88 q 525 167 500 139 q 549 187 542 183 q 574 190 557 190 l 636 190 q 656 183 649 190 q 660 163 663 175 q 615 101 653 136 q 519 35 578 65 q 389 -8 460 4 q 316 -40 343 -17 q 279 -107 289 -64 q 276 -136 276 -117 q 297 -192 276 -172 q 356 -211 318 -211 l 375 -211 q 396 -220 389 -211 q 400 -243 403 -229 l 393 -274 q 380 -297 390 -287 q 354 -306 369 -306 l 329 -306 m 604 413 l 606 417 q 613 478 613 451 q 572 593 613 550 q 458 636 532 636 q 303 575 368 636 q 218 417 239 514 l 218 413 l 604 413 z "},"f":{"ha":526,"x_min":69,"x_max":649,"o":"m 118 0 q 97 9 104 0 q 93 32 90 18 l 217 615 l 99 615 q 77 624 85 615 q 72 646 69 632 l 82 690 q 95 713 85 704 q 121 722 106 722 l 239 722 l 254 792 q 347 965 278 903 q 528 1028 415 1028 l 621 1028 q 642 1019 635 1028 q 646 996 649 1011 l 636 951 q 622 929 633 938 q 597 921 611 921 l 526 921 q 426 887 463 921 q 376 785 390 853 l 363 722 l 542 722 q 563 714 556 722 q 567 690 569 706 l 557 646 q 544 624 554 632 q 519 615 533 615 l 340 615 l 217 32 q 203 9 214 18 q 179 0 193 0 l 118 0 z "},"g":{"ha":824,"x_min":-26,"x_max":779,"o":"m 247 -306 q 85 -273 146 -306 q -1 -195 24 -240 q -26 -111 -26 -150 q -25 -94 -26 -99 q -14 -71 -24 -81 q 8 -61 -4 -61 l 76 -61 q 103 -90 101 -61 q 138 -167 106 -133 q 251 -201 169 -201 q 504 0 463 -201 l 524 96 q 420 20 475 47 q 290 -7 365 -7 q 104 62 164 -7 q 44 243 44 131 q 51 326 44 281 q 68 403 56 351 q 193 642 106 549 q 429 736 281 736 q 561 707 507 736 q 640 629 615 678 l 653 689 q 667 713 656 703 q 692 722 678 722 l 751 722 q 772 713 765 722 q 776 689 779 703 l 635 15 q 572 -157 613 -87 q 452 -266 531 -226 q 247 -306 374 -306 m 315 101 q 434 133 381 101 q 522 213 488 164 q 571 317 557 263 q 590 413 586 369 q 596 468 596 449 q 559 583 596 538 q 442 628 522 628 q 284 563 347 628 q 194 401 221 499 q 179 328 182 358 q 172 253 172 283 q 315 101 172 101 z "},"ğ":{"ha":824,"x_min":-26,"x_max":778,"o":"m 247 -306 q 85 -273 146 -306 q -1 -195 24 -240 q -26 -111 -26 -150 q -25 -94 -26 -99 q -14 -71 -24 -81 q 8 -61 -4 -61 l 76 -61 q 103 -90 101 -61 q 138 -167 106 -133 q 251 -201 169 -201 q 504 0 463 -201 l 524 96 q 420 20 475 47 q 290 -7 365 -7 q 104 62 164 -7 q 44 243 44 131 q 51 326 44 281 q 68 403 56 351 q 193 642 106 549 q 429 736 281 736 q 561 707 507 736 q 640 629 615 678 l 653 689 q 667 713 656 703 q 692 722 678 722 l 751 722 q 772 713 765 722 q 776 689 779 703 l 635 15 q 572 -157 613 -87 q 452 -266 531 -226 q 247 -306 374 -306 m 315 101 q 434 133 381 101 q 522 213 488 164 q 571 317 557 263 q 590 413 586 369 q 596 468 596 449 q 559 583 596 538 q 442 628 522 628 q 284 563 347 628 q 194 401 221 499 q 179 328 182 358 q 172 253 172 283 q 315 101 172 101 m 506 819 q 397 856 433 819 q 360 951 360 893 q 364 990 360 972 q 375 1009 367 1001 q 396 1017 383 1017 l 435 1017 q 453 1009 447 1017 q 456 990 458 1001 q 451 957 451 974 q 510 901 451 901 q 607 990 582 901 q 618 1009 610 1001 q 639 1017 626 1017 l 678 1017 q 696 1009 690 1017 q 699 990 701 1001 q 639 867 683 914 q 506 819 594 819 z "},"ĝ":{"ha":824,"x_min":-26,"x_max":778,"o":"m 247 -306 q 85 -273 146 -306 q -1 -195 24 -240 q -26 -111 -26 -150 q -25 -94 -26 -99 q -14 -71 -24 -81 q 8 -61 -4 -61 l 76 -61 q 103 -90 101 -61 q 138 -167 106 -133 q 251 -201 169 -201 q 504 0 463 -201 l 524 96 q 420 20 475 47 q 290 -7 365 -7 q 104 62 164 -7 q 44 243 44 131 q 51 326 44 281 q 68 403 56 351 q 193 642 106 549 q 429 736 281 736 q 561 707 507 736 q 640 629 615 678 l 653 689 q 667 713 656 703 q 692 722 678 722 l 751 722 q 772 713 765 722 q 776 689 779 703 l 635 15 q 572 -157 613 -87 q 452 -266 531 -226 q 247 -306 374 -306 m 315 101 q 434 133 381 101 q 522 213 488 164 q 571 317 557 263 q 590 413 586 369 q 596 468 596 449 q 559 583 596 538 q 442 628 522 628 q 284 563 347 628 q 194 401 221 499 q 179 328 182 358 q 172 253 172 283 q 315 101 172 101 m 299 826 q 283 842 283 826 q 296 863 283 853 l 457 996 q 483 1013 474 1010 q 507 1017 493 1017 l 547 1017 q 568 1013 560 1017 q 588 996 576 1010 l 692 864 q 697 843 700 854 q 690 831 696 836 q 675 826 683 826 l 639 826 q 610 836 624 826 l 515 915 l 388 836 q 376 831 385 835 q 356 826 367 826 l 299 826 z "},"ģ":{"ha":824,"x_min":-26,"x_max":779,"o":"m 706 1058 q 719 1053 714 1058 q 724 1042 724 1049 q 721 1029 724 1038 l 663 867 q 614 826 647 826 l 529 826 q 517 831 521 826 q 513 844 513 836 q 524 872 513 857 l 614 1026 q 635 1051 625 1043 q 661 1058 644 1058 l 706 1058 m 247 -306 q 85 -273 146 -306 q -1 -195 24 -240 q -26 -111 -26 -150 q -25 -94 -26 -99 q -14 -71 -24 -81 q 8 -61 -4 -61 l 76 -61 q 103 -90 101 -61 q 138 -167 106 -133 q 251 -201 169 -201 q 504 0 463 -201 l 524 96 q 420 20 475 47 q 290 -7 365 -7 q 104 62 164 -7 q 44 243 44 131 q 51 326 44 281 q 68 403 56 351 q 193 642 106 549 q 429 736 281 736 q 561 707 507 736 q 640 629 615 678 l 653 689 q 667 713 656 703 q 692 722 678 722 l 751 722 q 772 713 765 722 q 776 689 779 703 l 635 15 q 572 -157 613 -87 q 452 -266 531 -226 q 247 -306 374 -306 m 315 101 q 434 133 381 101 q 522 213 488 164 q 571 317 557 263 q 590 413 586 369 q 596 468 596 449 q 559 583 596 538 q 442 628 522 628 q 284 563 347 628 q 194 401 221 499 q 179 328 182 358 q 172 253 172 283 q 315 101 172 101 z "},"ġ":{"ha":824,"x_min":-26,"x_max":778,"o":"m 247 -306 q 85 -273 146 -306 q -1 -195 24 -240 q -26 -111 -26 -150 q -25 -94 -26 -99 q -14 -71 -24 -81 q 8 -61 -4 -61 l 76 -61 q 103 -90 101 -61 q 138 -167 106 -133 q 251 -201 169 -201 q 504 0 463 -201 l 524 96 q 420 20 475 47 q 290 -7 365 -7 q 104 62 164 -7 q 44 243 44 131 q 51 326 44 281 q 68 403 56 351 q 193 642 106 549 q 429 736 281 736 q 561 707 507 736 q 640 629 615 678 l 653 689 q 667 713 656 703 q 692 722 678 722 l 751 722 q 772 713 765 722 q 776 689 779 703 l 635 15 q 572 -157 613 -87 q 452 -266 531 -226 q 247 -306 374 -306 m 315 101 q 434 133 381 101 q 522 213 488 164 q 571 317 557 263 q 590 413 586 369 q 596 468 596 449 q 559 583 596 538 q 442 628 522 628 q 284 563 347 628 q 194 401 221 499 q 179 328 182 358 q 172 253 172 283 q 315 101 172 101 m 460 851 q 439 860 446 851 q 435 883 432 869 l 454 968 q 467 991 457 982 q 490 1000 476 1000 l 576 1000 q 598 991 590 1000 q 603 968 606 982 l 583 883 q 570 860 581 869 q 546 851 560 851 l 460 851 z "},"h":{"ha":843,"x_min":21,"x_max":758,"o":"m 50 0 q 28 9 36 0 q 24 32 21 18 l 221 954 q 234 977 224 968 q 258 986 244 986 l 324 986 q 344 977 338 986 q 349 954 351 968 l 279 631 q 383 709 326 682 q 517 736 439 736 q 696 675 633 736 q 758 510 758 614 q 749 425 758 465 l 664 32 q 651 9 661 18 q 626 0 640 0 l 561 0 q 540 9 547 0 q 536 32 533 18 l 617 417 q 626 494 626 456 q 486 628 626 628 q 325 571 396 628 q 233 417 254 514 l 153 32 q 140 9 150 18 q 115 0 129 0 l 50 0 z "},"ħ":{"ha":843,"x_min":21,"x_max":760,"o":"m 50 0 q 28 9 36 0 q 24 32 21 18 l 185 786 l 111 786 q 90 794 97 786 q 88 817 83 803 l 93 846 q 106 868 94 860 q 131 876 117 876 l 204 876 l 221 954 q 234 977 224 968 q 258 986 244 986 l 324 986 q 344 977 338 986 q 349 954 351 968 l 332 876 l 404 876 q 426 868 418 876 q 431 846 433 860 l 425 817 q 410 794 421 803 q 386 786 400 786 l 313 786 l 279 631 q 519 736 379 736 q 700 678 640 736 q 760 519 760 621 q 749 425 760 478 l 664 32 q 651 9 661 18 q 626 0 640 0 l 561 0 q 540 9 547 0 q 536 32 533 18 l 617 417 q 628 503 628 468 q 594 596 628 564 q 486 628 561 628 q 325 571 396 628 q 233 417 254 514 l 153 32 q 140 9 150 18 q 115 0 129 0 l 50 0 z "},"ĥ":{"ha":843,"x_min":22,"x_max":758,"o":"m 50 0 q 28 9 36 0 q 24 32 21 18 l 221 954 q 234 977 224 968 q 258 986 244 986 l 324 986 q 344 977 338 986 q 349 954 351 968 l 279 631 q 383 709 326 682 q 517 736 439 736 q 696 675 633 736 q 758 510 758 614 q 749 425 758 465 l 664 32 q 651 9 661 18 q 626 0 640 0 l 561 0 q 540 9 547 0 q 536 32 533 18 l 617 417 q 626 494 626 456 q 486 628 626 628 q 325 571 396 628 q 233 417 254 514 l 153 32 q 140 9 150 18 q 115 0 129 0 l 50 0 m 322 1042 q 307 1057 307 1042 q 319 1078 307 1068 l 481 1211 q 507 1228 497 1225 q 531 1232 517 1232 l 571 1232 q 592 1228 583 1232 q 611 1211 600 1225 l 715 1079 q 721 1058 724 1069 q 713 1047 719 1051 q 699 1042 707 1042 l 663 1042 q 633 1051 647 1042 l 539 1131 l 411 1051 q 399 1046 408 1050 q 379 1042 390 1042 l 322 1042 z "},"i":{"ha":335,"x_min":21,"x_max":361,"o":"m 221 858 q 199 867 207 858 q 194 890 192 876 l 211 963 q 224 986 214 976 q 249 996 235 996 l 332 996 q 353 986 346 996 q 358 963 361 976 l 342 890 q 329 867 340 876 q 304 858 318 858 l 221 858 m 50 0 q 28 9 36 0 q 24 32 21 18 l 164 690 q 178 713 167 704 q 203 722 189 722 l 264 722 q 285 713 278 722 q 289 690 292 704 l 149 32 q 135 9 146 18 q 111 0 125 0 l 50 0 z "},"ı":{"ha":335,"x_min":21,"x_max":292,"o":"m 50 0 q 28 9 36 0 q 24 32 21 18 l 164 690 q 178 713 167 704 q 203 722 189 722 l 264 722 q 285 713 278 722 q 289 690 292 704 l 149 32 q 135 9 146 18 q 111 0 125 0 l 50 0 z "},"í":{"ha":335,"x_min":22,"x_max":510,"o":"m 50 0 q 28 9 36 0 q 24 32 21 18 l 164 690 q 178 713 167 704 q 203 722 189 722 l 264 722 q 285 713 278 722 q 289 690 292 704 l 149 32 q 135 9 146 18 q 111 0 125 0 l 50 0 m 217 826 q 202 833 207 826 q 200 849 197 839 q 211 867 203 858 l 342 992 q 368 1012 357 1007 q 399 1017 379 1017 l 489 1017 q 504 1010 499 1017 q 510 994 510 1004 q 499 974 510 981 l 310 842 q 286 829 296 832 q 261 826 276 826 l 217 826 z "},"ĭ":{"ha":335,"x_min":22,"x_max":457,"o":"m 50 0 q 28 9 36 0 q 24 32 21 18 l 164 690 q 178 713 167 704 q 203 722 189 722 l 264 722 q 285 713 278 722 q 289 690 292 704 l 149 32 q 135 9 146 18 q 111 0 125 0 l 50 0 m 264 819 q 155 856 192 819 q 118 951 118 893 q 122 990 118 972 q 133 1009 125 1001 q 154 1017 142 1017 l 193 1017 q 211 1009 206 1017 q 214 990 217 1001 q 210 957 210 974 q 268 901 210 901 q 365 990 340 901 q 376 1009 368 1001 q 397 1017 385 1017 l 436 1017 q 454 1009 449 1017 q 457 990 460 1001 q 397 867 442 914 q 264 819 353 819 z "},"î":{"ha":335,"x_min":22,"x_max":457,"o":"m 50 0 q 28 9 36 0 q 24 32 21 18 l 164 690 q 178 713 167 704 q 203 722 189 722 l 264 722 q 285 713 278 722 q 289 690 292 704 l 149 32 q 135 9 146 18 q 111 0 125 0 l 50 0 m 58 826 q 43 842 43 826 q 56 863 43 853 l 217 996 q 243 1013 233 1010 q 267 1017 253 1017 l 307 1017 q 328 1013 319 1017 q 347 996 336 1010 l 451 864 q 457 843 460 854 q 449 831 456 836 q 435 826 443 826 l 399 826 q 369 836 383 826 l 275 915 l 147 836 q 135 831 144 835 q 115 826 126 826 l 58 826 z "},"ï":{"ha":335,"x_min":22,"x_max":471,"o":"m 50 0 q 28 9 36 0 q 24 32 21 18 l 164 690 q 178 713 167 704 q 203 722 189 722 l 264 722 q 285 713 278 722 q 289 690 292 704 l 149 32 q 135 9 146 18 q 111 0 125 0 l 50 0 m 110 864 q 89 872 96 864 q 85 894 82 881 l 101 967 q 114 990 104 981 q 138 999 124 999 l 211 999 q 232 990 225 999 q 236 967 239 981 l 221 894 q 207 872 218 881 q 182 864 196 864 l 110 864 m 342 864 q 321 872 328 864 q 317 894 314 881 l 333 967 q 346 990 335 981 q 371 999 357 999 l 443 999 q 465 990 457 999 q 469 967 472 981 l 453 894 q 440 872 450 881 q 415 864 429 864 l 342 864 z "},"ì":{"ha":335,"x_min":22,"x_max":315,"o":"m 50 0 q 28 9 36 0 q 24 32 21 18 l 164 690 q 178 713 167 704 q 203 722 189 722 l 264 722 q 285 713 278 722 q 289 690 292 704 l 149 32 q 135 9 146 18 q 111 0 125 0 l 50 0 m 243 826 q 219 829 228 826 q 200 842 210 832 l 72 969 q 65 986 65 976 q 74 1008 65 999 q 94 1017 83 1017 l 190 1017 q 217 1012 208 1017 q 236 992 226 1007 l 311 869 q 315 847 318 858 q 306 833 313 839 q 289 826 299 826 l 243 826 z "},"ĳ":{"ha":685,"x_min":22,"x_max":708,"o":"m 221 858 q 199 867 207 858 q 194 890 192 876 l 211 963 q 224 986 214 976 q 249 996 235 996 l 332 996 q 353 986 346 996 q 358 963 361 976 l 342 890 q 329 867 340 876 q 304 858 318 858 l 221 858 m 50 0 q 28 9 36 0 q 24 32 21 18 l 164 690 q 178 713 167 704 q 203 722 189 722 l 264 722 q 285 713 278 722 q 289 690 292 704 l 149 32 q 135 9 146 18 q 111 0 125 0 l 50 0 m 568 858 q 547 867 554 858 q 543 890 540 876 l 558 963 q 572 986 561 976 q 597 996 583 996 l 682 996 q 703 986 696 996 q 708 963 711 976 l 692 890 q 679 867 690 876 q 654 858 668 858 l 568 858 m 178 -264 q 158 -255 164 -264 q 154 -232 151 -246 l 163 -187 q 176 -165 165 -174 q 200 -157 186 -157 l 224 -157 q 363 -18 333 -157 l 511 690 q 525 713 514 704 q 550 722 536 722 l 614 722 q 635 713 628 722 q 639 690 642 704 l 489 -19 q 400 -200 464 -136 q 211 -264 336 -264 l 178 -264 z "},"ī":{"ha":335,"x_min":22,"x_max":463,"o":"m 50 0 q 28 9 36 0 q 24 32 21 18 l 164 690 q 178 713 167 704 q 203 722 189 722 l 264 722 q 285 713 278 722 q 289 690 292 704 l 149 32 q 135 9 146 18 q 111 0 125 0 l 50 0 m 110 858 q 89 867 96 858 q 85 889 82 875 l 93 929 q 106 951 96 943 q 131 960 117 960 l 438 960 q 458 951 451 960 q 461 929 464 943 l 453 889 q 440 867 451 875 q 415 858 429 858 l 110 858 z "},"į":{"ha":357,"x_min":-78,"x_max":404,"o":"m 263 858 q 242 867 249 858 q 239 890 236 876 l 254 963 q 268 986 257 976 q 293 996 279 996 l 375 996 q 397 986 389 996 q 401 963 404 976 l 386 890 q 372 867 383 876 q 346 858 360 858 l 263 858 m 76 -299 q -38 -261 1 -299 q -78 -158 -78 -224 q -72 -104 -78 -131 q -17 6 -58 -37 q 82 63 24 50 l 82 67 q 78 81 75 71 l 207 690 q 221 713 210 704 q 246 722 232 722 l 307 722 q 328 714 321 722 q 332 690 335 706 l 192 32 q 178 9 189 18 q 153 0 167 0 l 146 0 q 67 -28 100 0 q 24 -104 35 -56 q 21 -132 21 -114 q 42 -187 21 -167 q 101 -207 64 -207 l 122 -207 q 142 -216 136 -207 q 146 -239 149 -225 l 140 -268 q 126 -290 138 -282 q 101 -299 115 -299 l 76 -299 z "},"ĩ":{"ha":335,"x_min":22,"x_max":465,"o":"m 50 0 q 28 9 36 0 q 24 32 21 18 l 164 690 q 178 713 167 704 q 203 722 189 722 l 264 722 q 285 713 278 722 q 289 690 292 704 l 149 32 q 135 9 146 18 q 111 0 125 0 l 50 0 m 332 819 q 292 826 307 819 q 254 847 276 833 q 231 860 243 854 q 207 867 219 867 q 186 860 196 867 q 168 846 176 854 q 151 831 158 836 q 135 826 144 826 l 92 826 q 77 833 82 826 q 74 849 72 840 q 119 932 81 894 q 208 969 157 969 q 249 963 233 969 q 286 942 264 956 q 298 934 289 940 q 316 925 307 928 q 333 922 325 922 q 353 928 346 922 q 371 944 361 933 q 386 958 378 951 q 404 964 394 964 l 446 964 q 462 958 457 964 q 465 942 467 951 q 421 858 458 896 q 332 819 383 819 z "},"j":{"ha":351,"x_min":-183,"x_max":376,"o":"m 233 858 q 213 867 219 858 q 208 890 206 876 l 224 963 q 238 986 226 976 q 263 996 249 996 l 347 996 q 369 986 361 996 q 374 963 376 976 l 357 890 q 344 867 356 876 q 319 858 333 858 l 233 858 m -157 -264 q -177 -255 -171 -264 q -181 -232 -183 -246 l -172 -187 q -159 -165 -169 -174 q -135 -157 -149 -157 l -111 -157 q 28 -18 -1 -157 l 176 690 q 190 713 179 704 q 215 722 201 722 l 279 722 q 300 713 293 722 q 304 690 307 704 l 154 -19 q 65 -200 129 -136 q -124 -264 1 -264 l -157 -264 z "},"ȷ":{"ha":418,"x_min":-126,"x_max":374,"o":"m -101 -264 q -120 -255 -114 -264 q -124 -232 -126 -246 l -112 -181 q -100 -157 -110 -165 q -76 -149 -90 -149 l -49 -149 q 51 -113 21 -149 q 96 -10 81 -78 l 228 613 l 99 613 q 77 622 85 613 q 72 644 69 631 l 82 690 q 96 713 85 704 q 121 722 107 722 l 347 722 q 367 713 361 722 q 371 690 374 704 l 224 -10 q -65 -264 168 -264 l -101 -264 z "},"ĵ":{"ha":418,"x_min":-125,"x_max":463,"o":"m -101 -264 q -120 -255 -114 -264 q -124 -232 -126 -246 l -112 -181 q -100 -157 -110 -165 q -76 -149 -90 -149 l -49 -149 q 51 -113 21 -149 q 96 -10 81 -78 l 228 613 l 99 613 q 77 622 85 613 q 72 644 69 631 l 82 690 q 96 713 85 704 q 121 722 107 722 l 347 722 q 367 713 361 722 q 371 690 374 704 l 224 -10 q -65 -264 168 -264 l -101 -264 m 64 826 q 49 842 49 826 q 61 863 49 853 l 222 996 q 249 1013 239 1010 q 272 1017 258 1017 l 313 1017 q 333 1013 325 1017 q 353 996 342 1010 l 457 864 q 463 843 465 854 q 455 831 461 836 q 440 826 449 826 l 404 826 q 375 836 389 826 l 281 915 l 153 836 q 141 831 150 835 q 121 826 132 826 l 64 826 z "},"k":{"ha":713,"x_min":21,"x_max":724,"o":"m 50 0 q 28 9 36 0 q 24 32 21 18 l 221 954 q 234 977 224 968 q 258 986 244 986 l 318 986 q 340 977 333 986 q 344 954 347 968 l 243 478 l 558 699 q 590 718 581 714 q 619 722 600 722 l 700 722 q 717 716 711 722 q 724 701 724 710 q 701 667 724 683 l 319 396 l 608 49 q 615 29 615 40 q 607 8 615 17 q 586 0 599 0 l 521 0 q 496 5 504 0 q 483 15 488 10 q 476 21 478 19 l 213 335 l 147 32 q 134 9 144 18 q 110 0 124 0 l 50 0 z "},"ķ":{"ha":713,"x_min":22,"x_max":724,"o":"m 50 0 q 28 9 36 0 q 24 32 21 18 l 221 954 q 234 977 224 968 q 258 986 244 986 l 318 986 q 340 977 333 986 q 344 954 347 968 l 243 478 l 558 699 q 590 718 581 714 q 619 722 600 722 l 700 722 q 717 716 711 722 q 724 701 724 710 q 701 667 724 683 l 319 396 l 608 49 q 615 29 615 40 q 607 8 615 17 q 586 0 599 0 l 521 0 q 496 5 504 0 q 483 15 488 10 q 476 21 478 19 l 213 335 l 147 32 q 134 9 144 18 q 110 0 124 0 l 50 0 m 78 -301 q 65 -297 69 -301 q 60 -285 60 -292 q 63 -272 60 -281 l 121 -110 q 169 -69 136 -69 l 254 -69 q 267 -74 263 -69 q 271 -87 271 -79 q 260 -115 271 -100 l 169 -269 q 149 -294 158 -286 q 122 -301 139 -301 l 78 -301 z "},"ĸ":{"ha":714,"x_min":40,"x_max":747,"o":"m 68 0 q 47 9 54 0 q 43 32 40 18 l 183 690 q 197 713 186 704 q 222 722 208 722 l 282 722 q 303 714 296 722 q 307 690 310 706 l 253 433 l 599 699 q 631 718 621 714 q 660 722 640 722 l 722 722 q 741 715 735 722 q 744 693 747 707 q 722 667 742 679 l 328 363 l 622 56 q 632 29 636 39 q 620 8 631 17 q 597 0 610 0 l 528 0 q 500 5 508 0 q 478 24 492 10 l 221 289 l 167 32 q 153 9 164 18 q 128 0 142 0 l 68 0 z "},"l":{"ha":336,"x_min":21,"x_max":349,"o":"m 50 0 q 28 9 36 0 q 24 32 21 18 l 221 954 q 234 977 224 968 q 258 986 244 986 l 319 986 q 341 977 333 986 q 346 954 349 968 l 149 32 q 135 9 146 18 q 111 0 125 0 l 50 0 z "},"ĺ":{"ha":336,"x_min":22,"x_max":563,"o":"m 50 0 q 28 9 36 0 q 24 32 21 18 l 221 954 q 234 977 224 968 q 258 986 244 986 l 319 986 q 341 977 333 986 q 346 954 349 968 l 149 32 q 135 9 146 18 q 111 0 125 0 l 50 0 m 269 1042 q 255 1048 260 1042 q 253 1064 250 1054 q 264 1082 256 1074 l 394 1207 q 421 1227 410 1222 q 451 1232 432 1232 l 542 1232 q 557 1226 551 1232 q 563 1210 563 1219 q 551 1189 563 1196 l 363 1057 q 339 1044 349 1047 q 314 1042 329 1042 l 269 1042 z "},"ľ":{"ha":336,"x_min":-79,"x_max":347,"o":"m 50 0 q 28 9 36 0 q 24 32 21 18 l 221 954 q 234 977 224 968 q 258 986 244 986 l 319 986 q 341 977 333 986 q 346 954 349 968 l 149 32 q 135 9 146 18 q 111 0 125 0 l 50 0 m -61 -301 q -74 -297 -69 -301 q -79 -285 -79 -292 q -76 -272 -79 -281 l -18 -110 q 31 -69 -3 -69 l 115 -69 q 128 -74 124 -69 q 132 -87 132 -79 q 121 -115 132 -100 l 31 -269 q 10 -294 19 -286 q -17 -301 0 -301 l -61 -301 z "},"ļ":{"ha":336,"x_min":-79,"x_max":347,"o":"m 50 0 q 28 9 36 0 q 24 32 21 18 l 221 954 q 234 977 224 968 q 258 986 244 986 l 319 986 q 341 977 333 986 q 346 954 349 968 l 149 32 q 135 9 146 18 q 111 0 125 0 l 50 0 m -61 -301 q -74 -297 -69 -301 q -79 -285 -79 -292 q -76 -272 -79 -281 l -18 -110 q 31 -69 -3 -69 l 115 -69 q 128 -74 124 -69 q 132 -87 132 -79 q 121 -115 132 -100 l 31 -269 q 10 -294 19 -286 q -17 -301 0 -301 l -61 -301 z "},"ŀ":{"ha":415,"x_min":21,"x_max":478,"o":"m 50 0 q 28 9 36 0 q 24 32 21 18 l 221 954 q 234 977 224 968 q 258 986 244 986 l 319 986 q 341 977 333 986 q 346 954 349 968 l 149 32 q 135 9 146 18 q 111 0 125 0 l 50 0 m 332 425 q 311 433 318 425 q 307 456 304 442 l 326 542 q 340 565 329 556 q 364 574 350 574 l 449 574 q 470 565 463 574 q 475 542 478 556 l 456 456 q 442 433 453 442 q 418 425 432 425 l 332 425 z "},"ł":{"ha":379,"x_min":53,"x_max":406,"o":"m 92 0 q 72 9 78 0 q 68 32 65 18 l 150 421 l 96 403 q 76 399 83 399 q 58 405 64 399 q 56 424 53 411 l 65 471 q 76 493 68 486 q 104 507 85 500 l 174 532 l 263 954 q 276 977 265 968 q 301 986 288 986 l 363 986 q 383 978 376 986 q 388 954 390 969 l 308 579 l 363 599 q 382 603 375 603 q 400 597 394 603 q 403 578 406 590 l 393 531 q 382 508 390 515 q 354 494 374 501 l 285 468 l 192 32 q 178 9 189 18 q 153 0 167 0 l 92 0 z "},"m":{"ha":1235,"x_min":21,"x_max":1151,"o":"m 50 0 q 28 9 36 0 q 24 32 21 18 l 164 690 q 178 713 167 704 q 203 722 189 722 l 261 722 q 281 713 275 722 q 285 690 288 704 l 275 643 q 369 713 322 690 q 481 736 415 736 q 615 703 560 736 q 688 608 669 669 q 933 736 788 736 q 1091 680 1031 736 q 1151 519 1151 624 q 1142 433 1151 476 l 1056 32 q 1042 9 1053 18 q 1018 0 1032 0 l 958 0 q 937 9 944 0 q 932 32 929 18 l 1015 421 q 1025 503 1025 465 q 904 628 1025 628 q 772 578 835 628 q 686 421 708 529 l 603 32 q 590 9 600 18 q 565 0 579 0 l 504 0 q 483 9 490 0 q 479 32 476 18 l 561 421 q 571 501 571 464 q 538 598 571 568 q 450 628 504 628 q 317 578 381 628 q 232 422 254 529 l 149 32 q 135 9 146 18 q 111 0 125 0 l 50 0 z "},"n":{"ha":839,"x_min":21,"x_max":756,"o":"m 50 0 q 28 9 36 0 q 24 32 21 18 l 164 690 q 178 713 167 704 q 203 722 189 722 l 263 722 q 283 714 276 722 q 288 690 290 706 l 274 629 q 518 736 376 736 q 697 679 638 736 q 756 519 756 622 q 744 425 756 478 l 660 32 q 647 9 657 18 q 622 0 636 0 l 558 0 q 538 9 544 0 q 533 32 531 18 l 614 417 q 626 508 626 469 q 594 599 626 569 q 488 628 561 628 q 322 572 390 628 q 232 417 254 515 l 151 32 q 138 9 149 18 q 114 0 128 0 l 50 0 z "},"ń":{"ha":839,"x_min":22,"x_max":756,"o":"m 50 0 q 28 9 36 0 q 24 32 21 18 l 164 690 q 178 713 167 704 q 203 722 189 722 l 263 722 q 283 714 276 722 q 288 690 290 706 l 274 629 q 518 736 376 736 q 697 679 638 736 q 756 519 756 622 q 744 425 756 478 l 660 32 q 647 9 657 18 q 622 0 636 0 l 558 0 q 538 9 544 0 q 533 32 531 18 l 614 417 q 626 508 626 469 q 594 599 626 569 q 488 628 561 628 q 322 572 390 628 q 232 417 254 515 l 151 32 q 138 9 149 18 q 114 0 128 0 l 50 0 m 458 826 q 444 833 449 826 q 442 849 439 839 q 453 867 444 858 l 583 992 q 610 1012 599 1007 q 640 1017 621 1017 l 731 1017 q 746 1010 740 1017 q 751 994 751 1004 q 740 974 751 981 l 551 842 q 528 829 538 832 q 503 826 518 826 l 458 826 z "},"ŉ":{"ha":839,"x_min":22,"x_max":756,"o":"m 50 0 q 28 9 36 0 q 24 32 21 18 l 164 690 q 178 713 167 704 q 203 722 189 722 l 263 722 q 283 714 276 722 q 288 690 290 706 l 274 629 q 518 736 376 736 q 697 679 638 736 q 756 519 756 622 q 744 425 756 478 l 660 32 q 647 9 657 18 q 622 0 636 0 l 558 0 q 538 9 544 0 q 533 32 531 18 l 614 417 q 626 508 626 469 q 594 599 626 569 q 488 628 561 628 q 322 572 390 628 q 232 417 254 515 l 151 32 q 138 9 149 18 q 114 0 128 0 l 50 0 m 357 811 q 344 816 349 811 q 339 828 339 821 q 342 840 339 832 l 400 1003 q 449 1043 415 1043 l 533 1043 q 546 1038 542 1043 q 550 1025 550 1033 q 539 997 550 1013 l 449 843 q 428 819 438 826 q 401 811 418 811 l 357 811 z "},"ň":{"ha":839,"x_min":22,"x_max":756,"o":"m 50 0 q 28 9 36 0 q 24 32 21 18 l 164 690 q 178 713 167 704 q 203 722 189 722 l 263 722 q 283 714 276 722 q 288 690 290 706 l 274 629 q 518 736 376 736 q 697 679 638 736 q 756 519 756 622 q 744 425 756 478 l 660 32 q 647 9 657 18 q 622 0 636 0 l 558 0 q 538 9 544 0 q 533 32 531 18 l 614 417 q 626 508 626 469 q 594 599 626 569 q 488 628 561 628 q 322 572 390 628 q 232 417 254 515 l 151 32 q 138 9 149 18 q 114 0 128 0 l 50 0 m 486 826 q 464 830 472 826 q 444 847 456 833 l 340 979 q 333 996 333 989 q 341 1011 335 1006 q 357 1017 347 1017 l 393 1017 q 422 1007 407 1017 l 517 928 l 644 1007 q 656 1013 647 1008 q 676 1017 665 1017 l 733 1017 q 744 1013 740 1017 q 749 1001 749 1008 q 736 981 749 992 l 575 847 q 549 830 558 833 q 525 826 539 826 l 486 826 z "},"ņ":{"ha":839,"x_min":22,"x_max":756,"o":"m 50 0 q 28 9 36 0 q 24 32 21 18 l 164 690 q 178 713 167 704 q 203 722 189 722 l 263 722 q 283 714 276 722 q 288 690 290 706 l 274 629 q 518 736 376 736 q 697 679 638 736 q 756 519 756 622 q 744 425 756 478 l 660 32 q 647 9 657 18 q 622 0 636 0 l 558 0 q 538 9 544 0 q 533 32 531 18 l 614 417 q 626 508 626 469 q 594 599 626 569 q 488 628 561 628 q 322 572 390 628 q 232 417 254 515 l 151 32 q 138 9 149 18 q 114 0 128 0 l 50 0 m 118 -301 q 105 -297 110 -301 q 100 -285 100 -292 q 103 -272 100 -281 l 161 -110 q 210 -69 176 -69 l 294 -69 q 307 -74 303 -69 q 311 -87 311 -79 q 300 -115 311 -100 l 210 -269 q 189 -294 199 -286 q 163 -301 179 -301 l 118 -301 z "},"ŋ":{"ha":839,"x_min":21,"x_max":756,"o":"m 328 -312 q 306 -303 313 -312 q 301 -281 299 -294 l 313 -231 q 326 -208 315 -217 q 351 -199 336 -199 l 365 -199 q 467 -162 435 -199 q 515 -53 500 -125 l 614 417 q 626 508 626 469 q 594 599 626 569 q 488 628 561 628 q 322 572 390 628 q 232 417 254 515 l 151 32 q 138 9 149 18 q 114 0 128 0 l 50 0 q 28 9 36 0 q 24 32 21 18 l 164 690 q 178 713 167 704 q 203 722 189 722 l 263 722 q 283 714 276 722 q 288 690 290 706 l 274 629 q 518 736 376 736 q 697 679 638 736 q 756 519 756 622 q 744 425 756 478 l 642 -56 q 549 -248 615 -183 q 340 -312 483 -312 l 328 -312 z "},"ñ":{"ha":839,"x_min":22,"x_max":756,"o":"m 50 0 q 28 9 36 0 q 24 32 21 18 l 164 690 q 178 713 167 704 q 203 722 189 722 l 263 722 q 283 714 276 722 q 288 690 290 706 l 274 629 q 518 736 376 736 q 697 679 638 736 q 756 519 756 622 q 744 425 756 478 l 660 32 q 647 9 657 18 q 622 0 636 0 l 558 0 q 538 9 544 0 q 533 32 531 18 l 614 417 q 626 508 626 469 q 594 599 626 569 q 488 628 561 628 q 322 572 390 628 q 232 417 254 515 l 151 32 q 138 9 149 18 q 114 0 128 0 l 50 0 m 579 819 q 539 826 554 819 q 501 847 524 833 q 478 860 490 854 q 454 867 467 867 q 433 860 443 867 q 415 846 424 854 q 399 831 406 836 q 382 826 392 826 l 339 826 q 324 833 329 826 q 321 849 319 840 q 366 932 328 894 q 456 969 404 969 q 496 963 481 969 q 533 942 511 956 q 545 934 536 940 q 563 925 554 928 q 581 922 572 922 q 601 928 593 922 q 618 944 608 933 q 633 958 625 951 q 651 964 642 964 l 693 964 q 709 958 704 964 q 713 942 714 951 q 668 858 706 896 q 579 819 631 819 z "},"o":{"ha":792,"x_min":42,"x_max":728,"o":"m 314 -14 q 113 53 185 -14 q 42 233 42 121 q 49 301 42 263 q 74 421 56 357 q 206 651 110 565 q 456 736 303 736 q 657 668 586 736 q 728 486 728 600 q 722 421 728 450 q 696 301 710 353 q 563 72 660 157 q 314 -14 467 -14 m 319 90 q 477 147 410 90 q 571 308 544 203 q 593 414 576 331 q 600 479 600 453 q 562 593 600 554 q 450 632 524 632 q 292 575 360 632 q 200 414 225 518 q 176 308 185 363 q 171 243 171 276 q 319 90 171 90 z "},"ó":{"ha":792,"x_min":42,"x_max":733,"o":"m 314 -14 q 113 53 185 -14 q 42 233 42 121 q 49 301 42 263 q 74 421 56 357 q 206 651 110 565 q 456 736 303 736 q 657 668 586 736 q 728 486 728 600 q 722 421 728 450 q 696 301 710 353 q 563 72 660 157 q 314 -14 467 -14 m 319 90 q 477 147 410 90 q 571 308 544 203 q 593 414 576 331 q 600 479 600 453 q 562 593 600 554 q 450 632 524 632 q 292 575 360 632 q 200 414 225 518 q 176 308 185 363 q 171 243 171 276 q 319 90 171 90 m 440 826 q 426 833 431 826 q 424 849 421 839 q 435 867 426 858 l 565 992 q 592 1012 581 1007 q 622 1017 603 1017 l 713 1017 q 728 1010 722 1017 q 733 994 733 1004 q 722 974 733 981 l 533 842 q 510 829 519 832 q 485 826 500 826 l 440 826 z "},"ŏ":{"ha":792,"x_min":42,"x_max":728,"o":"m 314 -14 q 113 53 185 -14 q 42 233 42 121 q 49 301 42 263 q 74 421 56 357 q 206 651 110 565 q 456 736 303 736 q 657 668 586 736 q 728 486 728 600 q 722 421 728 450 q 696 301 710 353 q 563 72 660 157 q 314 -14 467 -14 m 319 90 q 477 147 410 90 q 571 308 544 203 q 593 414 576 331 q 600 479 600 453 q 562 593 600 554 q 450 632 524 632 q 292 575 360 632 q 200 414 225 518 q 176 308 185 363 q 171 243 171 276 q 319 90 171 90 m 490 819 q 381 856 418 819 q 344 951 344 893 q 349 990 344 972 q 360 1009 351 1001 q 381 1017 368 1017 l 419 1017 q 438 1009 432 1017 q 440 990 443 1001 q 436 957 436 974 q 494 901 436 901 q 592 990 567 901 q 603 1009 594 1001 q 624 1017 611 1017 l 663 1017 q 681 1009 675 1017 q 683 990 686 1001 q 624 867 668 914 q 490 819 579 819 z "},"ô":{"ha":792,"x_min":42,"x_max":728,"o":"m 314 -14 q 113 53 185 -14 q 42 233 42 121 q 49 301 42 263 q 74 421 56 357 q 206 651 110 565 q 456 736 303 736 q 657 668 586 736 q 728 486 728 600 q 722 421 728 450 q 696 301 710 353 q 563 72 660 157 q 314 -14 467 -14 m 319 90 q 477 147 410 90 q 571 308 544 203 q 593 414 576 331 q 600 479 600 453 q 562 593 600 554 q 450 632 524 632 q 292 575 360 632 q 200 414 225 518 q 176 308 185 363 q 171 243 171 276 q 319 90 171 90 m 286 826 q 271 842 271 826 q 283 863 271 853 l 444 996 q 471 1013 461 1010 q 494 1017 481 1017 l 535 1017 q 556 1013 547 1017 q 575 996 564 1010 l 679 864 q 685 843 688 854 q 677 831 683 836 q 663 826 671 826 l 626 826 q 597 836 611 826 l 503 915 l 375 836 q 363 831 372 835 q 343 826 354 826 l 286 826 z "},"ö":{"ha":792,"x_min":42,"x_max":728,"o":"m 314 -14 q 113 53 185 -14 q 42 233 42 121 q 49 301 42 263 q 74 421 56 357 q 206 651 110 565 q 456 736 303 736 q 657 668 586 736 q 728 486 728 600 q 722 421 728 450 q 696 301 710 353 q 563 72 660 157 q 314 -14 467 -14 m 319 90 q 477 147 410 90 q 571 308 544 203 q 593 414 576 331 q 600 479 600 453 q 562 593 600 554 q 450 632 524 632 q 292 575 360 632 q 200 414 225 518 q 176 308 185 363 q 171 243 171 276 q 319 90 171 90 m 339 864 q 318 872 325 864 q 314 894 311 881 l 331 967 q 343 990 333 981 q 367 999 353 999 l 440 999 q 461 990 454 999 q 465 967 468 981 l 450 894 q 436 872 447 881 q 411 864 425 864 l 339 864 m 571 864 q 550 872 557 864 q 546 894 543 881 l 563 967 q 575 990 564 981 q 600 999 586 999 l 672 999 q 694 990 686 999 q 699 967 701 981 l 682 894 q 669 872 679 881 q 644 864 658 864 l 571 864 z "},"ò":{"ha":792,"x_min":42,"x_max":728,"o":"m 314 -14 q 113 53 185 -14 q 42 233 42 121 q 49 301 42 263 q 74 421 56 357 q 206 651 110 565 q 456 736 303 736 q 657 668 586 736 q 728 486 728 600 q 722 421 728 450 q 696 301 710 353 q 563 72 660 157 q 314 -14 467 -14 m 319 90 q 477 147 410 90 q 571 308 544 203 q 593 414 576 331 q 600 479 600 453 q 562 593 600 554 q 450 632 524 632 q 292 575 360 632 q 200 414 225 518 q 176 308 185 363 q 171 243 171 276 q 319 90 171 90 m 476 826 q 451 830 461 826 q 433 842 442 833 l 306 969 q 299 986 299 976 q 308 1008 299 999 q 328 1017 317 1017 l 424 1017 q 451 1012 442 1017 q 469 992 460 1007 l 544 869 q 549 847 551 858 q 539 833 546 839 q 522 826 532 826 l 476 826 z "},"ő":{"ha":792,"x_min":42,"x_max":789,"o":"m 314 -14 q 113 53 185 -14 q 42 233 42 121 q 49 301 42 263 q 74 421 56 357 q 206 651 110 565 q 456 736 303 736 q 657 668 586 736 q 728 486 728 600 q 722 421 728 450 q 696 301 710 353 q 563 72 660 157 q 314 -14 467 -14 m 319 90 q 477 147 410 90 q 571 308 544 203 q 593 414 576 331 q 600 479 600 453 q 562 593 600 554 q 450 632 524 632 q 292 575 360 632 q 200 414 225 518 q 176 308 185 363 q 171 243 171 276 q 319 90 171 90 m 336 826 q 317 843 317 826 q 325 861 317 850 l 410 990 q 433 1010 419 1004 q 467 1017 446 1017 l 542 1017 q 559 1011 553 1017 q 564 996 565 1006 q 554 974 564 983 l 417 846 q 369 826 394 826 l 336 826 m 561 826 q 542 843 542 826 q 550 861 542 850 l 635 990 q 692 1017 651 1017 l 767 1017 q 789 996 789 1017 q 779 974 789 986 l 640 846 q 594 826 618 826 l 561 826 z "},"ō":{"ha":792,"x_min":42,"x_max":728,"o":"m 314 -14 q 113 53 185 -14 q 42 233 42 121 q 49 301 42 263 q 74 421 56 357 q 206 651 110 565 q 456 736 303 736 q 657 668 586 736 q 728 486 728 600 q 722 421 728 450 q 696 301 710 353 q 563 72 660 157 q 314 -14 467 -14 m 319 90 q 477 147 410 90 q 571 308 544 203 q 593 414 576 331 q 600 479 600 453 q 562 593 600 554 q 450 632 524 632 q 292 575 360 632 q 200 414 225 518 q 176 308 185 363 q 171 243 171 276 q 319 90 171 90 m 336 858 q 315 867 322 858 q 311 889 308 875 l 319 929 q 333 951 322 943 q 357 960 343 960 l 664 960 q 684 951 678 960 q 688 929 690 943 l 679 889 q 667 867 678 875 q 642 858 656 858 l 336 858 z "},"ø":{"ha":842,"x_min":-10,"x_max":869,"o":"m 350 -14 q 162 42 225 -14 q 89 190 99 99 l 32 171 q 14 167 22 167 q -4 173 1 167 q -8 192 -10 179 l 0 229 q 11 252 3 244 q 39 267 19 260 l 90 285 q 118 421 99 346 q 251 646 153 556 q 510 736 350 736 q 697 679 635 736 q 769 528 760 622 l 826 549 q 846 553 839 553 q 864 547 858 553 q 867 528 869 540 l 858 489 q 847 467 856 474 q 821 453 839 460 l 769 435 q 758 371 767 410 q 742 301 750 332 q 610 76 707 167 q 350 -14 513 -14 m 644 483 q 602 596 644 560 q 489 632 560 632 q 339 581 404 632 q 246 422 274 529 q 238 388 243 411 q 228 333 233 364 l 644 483 m 372 90 q 523 142 458 90 q 615 303 588 193 l 633 386 l 214 236 q 259 126 215 161 q 372 90 303 90 z "},"ǿ":{"ha":839,"x_min":-8,"x_max":868,"o":"m 465 826 q 451 833 456 826 q 449 849 446 839 q 460 867 451 858 l 590 992 q 617 1012 606 1007 q 647 1017 628 1017 l 738 1017 q 753 1010 747 1017 q 758 994 758 1004 q 747 974 758 981 l 558 842 q 535 829 544 832 q 510 826 525 826 l 465 826 m 350 -14 q 162 42 225 -14 q 89 190 99 99 l 32 171 q 14 167 22 167 q -4 173 1 167 q -8 192 -10 179 l 0 229 q 11 252 3 244 q 39 267 19 260 l 90 285 q 118 421 99 346 q 251 646 153 556 q 510 736 350 736 q 697 679 635 736 q 769 528 760 622 l 826 549 q 846 553 839 553 q 864 547 858 553 q 867 528 869 540 l 858 489 q 847 467 856 474 q 821 453 839 460 l 769 435 q 758 371 767 410 q 742 301 750 332 q 610 76 707 167 q 350 -14 513 -14 m 644 483 q 602 596 644 560 q 489 632 560 632 q 339 581 404 632 q 246 422 274 529 q 238 388 243 411 q 228 333 233 364 l 644 483 m 372 90 q 523 142 458 90 q 615 303 588 193 l 633 386 l 214 236 q 259 126 215 161 q 372 90 303 90 z "},"õ":{"ha":792,"x_min":42,"x_max":728,"o":"m 314 -14 q 113 53 185 -14 q 42 233 42 121 q 49 301 42 263 q 74 421 56 357 q 206 651 110 565 q 456 736 303 736 q 657 668 586 736 q 728 486 728 600 q 722 421 728 450 q 696 301 710 353 q 563 72 660 157 q 314 -14 467 -14 m 319 90 q 477 147 410 90 q 571 308 544 203 q 593 414 576 331 q 600 479 600 453 q 562 593 600 554 q 450 632 524 632 q 292 575 360 632 q 200 414 225 518 q 176 308 185 363 q 171 243 171 276 q 319 90 171 90 m 561 819 q 521 826 536 819 q 483 847 506 833 q 460 860 472 854 q 436 867 449 867 q 415 860 425 867 q 397 846 406 854 q 381 831 388 836 q 364 826 374 826 l 321 826 q 306 833 311 826 q 303 849 301 840 q 348 932 310 894 q 438 969 386 969 q 478 963 463 969 q 515 942 493 956 q 527 934 518 940 q 545 925 536 928 q 563 922 554 922 q 583 928 575 922 q 600 944 590 933 q 615 958 607 951 q 633 964 624 964 l 675 964 q 691 958 686 964 q 694 942 696 951 q 650 858 688 896 q 561 819 613 819 z "},"œ":{"ha":1300,"x_min":64,"x_max":1264,"o":"m 328 -14 q 131 51 197 -14 q 64 226 64 115 q 71 301 64 257 q 96 421 86 385 q 234 649 132 563 q 488 736 336 736 q 638 700 579 736 q 722 599 697 664 q 849 700 776 664 q 1007 736 922 736 q 1198 669 1132 736 q 1264 483 1264 603 q 1251 375 1264 433 l 1246 350 q 1231 327 1243 336 q 1206 318 1219 318 l 725 318 l 722 306 q 718 256 718 281 q 757 135 718 183 q 868 88 796 88 q 975 113 929 88 q 1046 167 1021 139 q 1070 187 1063 183 q 1094 190 1078 190 l 1157 190 q 1176 183 1169 190 q 1181 163 1183 175 q 1125 90 1172 132 q 1005 17 1078 47 q 847 -14 932 -14 q 704 22 763 -14 q 621 122 646 57 q 328 -14 510 -14 m 1132 413 l 1133 417 q 1140 478 1140 451 q 1100 593 1140 550 q 986 636 1060 636 q 831 575 896 636 q 746 417 767 514 l 746 413 l 1132 413 m 350 90 q 502 147 438 90 q 593 308 567 203 q 615 414 610 372 q 621 475 621 443 q 581 592 621 551 q 465 632 540 632 q 313 576 376 632 q 221 414 249 519 q 200 308 208 364 q 194 246 194 279 q 235 130 194 169 q 350 90 275 90 z "},"p":{"ha":824,"x_min":-35,"x_max":758,"o":"m -6 -264 q -28 -255 -21 -264 q -32 -232 -35 -246 l 165 690 q 178 713 168 704 q 203 722 189 722 l 261 722 q 283 713 276 722 q 288 690 290 704 l 275 629 q 378 709 324 682 q 514 736 432 736 q 698 665 638 736 q 758 481 758 594 q 751 403 758 447 q 733 319 747 368 q 608 80 697 174 q 372 -14 519 -14 q 164 92 219 -14 l 94 -232 q 81 -255 92 -246 q 57 -264 71 -264 l -6 -264 m 360 94 q 515 158 454 94 q 606 321 576 222 q 622 401 615 351 q 628 472 628 435 q 488 628 628 628 q 367 597 421 628 q 280 515 314 565 q 232 411 246 465 q 208 303 221 368 q 203 253 203 269 q 241 140 203 185 q 360 94 279 94 z "},"þ":{"ha":824,"x_min":-35,"x_max":758,"o":"m -6 -264 q -28 -255 -21 -264 q -32 -232 -35 -246 l 222 954 q 235 978 225 969 q 260 986 246 986 l 322 986 q 343 977 336 986 q 347 954 350 968 l 278 632 q 377 708 322 681 q 514 736 432 736 q 698 665 638 736 q 758 481 758 594 q 751 403 758 447 q 733 319 747 368 q 608 80 697 174 q 372 -14 519 -14 q 164 92 221 -14 l 94 -232 q 81 -255 92 -246 q 57 -264 71 -264 l -6 -264 m 360 94 q 515 158 454 94 q 606 321 576 222 q 622 401 615 351 q 628 472 628 435 q 488 628 628 628 q 367 597 421 628 q 280 515 314 565 q 232 411 246 465 q 208 303 221 368 q 203 253 203 269 q 241 140 203 185 q 360 94 279 94 z "},"q":{"ha":825,"x_min":44,"x_max":781,"o":"m 481 -264 q 460 -255 467 -264 q 456 -232 453 -246 l 525 92 q 422 13 476 40 q 290 -14 367 -14 q 105 56 165 -14 q 44 240 44 126 q 50 314 44 281 q 71 408 60 368 q 197 644 107 553 q 431 736 286 736 q 564 707 511 736 q 642 629 617 678 l 656 690 q 669 713 658 704 q 694 722 679 722 l 753 722 q 774 713 767 722 q 778 690 781 704 l 582 -232 q 568 -255 579 -246 q 543 -264 557 -264 l 481 -264 m 317 94 q 435 124 382 94 q 522 202 488 154 q 569 303 557 250 q 592 411 585 357 q 597 468 597 438 q 560 583 597 538 q 443 628 524 628 q 286 565 347 628 q 196 401 225 501 q 179 321 186 371 q 172 244 172 276 q 205 135 172 175 q 317 94 238 94 z "},"r":{"ha":525,"x_min":21,"x_max":569,"o":"m 50 0 q 28 9 36 0 q 24 32 21 18 l 164 689 q 178 713 167 703 q 203 722 189 722 l 261 722 q 283 713 276 722 q 288 689 290 703 l 274 628 q 483 722 340 722 l 542 722 q 563 714 556 722 q 567 690 569 706 l 556 639 q 543 616 554 625 q 518 607 532 607 l 438 607 q 308 563 361 607 q 239 442 254 518 l 151 32 q 138 9 149 18 q 113 0 126 0 l 50 0 z "},"ŕ":{"ha":525,"x_min":22,"x_max":629,"o":"m 50 0 q 28 9 36 0 q 24 32 21 18 l 164 689 q 178 713 167 703 q 203 722 189 722 l 261 722 q 283 713 276 722 q 288 689 290 703 l 274 628 q 483 722 340 722 l 542 722 q 563 714 556 722 q 567 690 569 706 l 556 639 q 543 616 554 625 q 518 607 532 607 l 438 607 q 308 563 361 607 q 239 442 254 518 l 151 32 q 138 9 149 18 q 113 0 126 0 l 50 0 m 336 826 q 322 833 326 826 q 319 849 317 839 q 331 867 322 858 l 461 992 q 488 1012 476 1007 q 518 1017 499 1017 l 608 1017 q 624 1010 618 1017 q 629 994 629 1004 q 618 974 629 981 l 429 842 q 406 829 415 832 q 381 826 396 826 l 336 826 z "},"ř":{"ha":525,"x_min":22,"x_max":618,"o":"m 50 0 q 28 9 36 0 q 24 32 21 18 l 164 689 q 178 713 167 703 q 203 722 189 722 l 261 722 q 283 713 276 722 q 288 689 290 703 l 274 628 q 483 722 340 722 l 542 722 q 563 714 556 722 q 567 690 569 706 l 556 639 q 543 616 554 625 q 518 607 532 607 l 438 607 q 308 563 361 607 q 239 442 254 518 l 151 32 q 138 9 149 18 q 113 0 126 0 l 50 0 m 356 826 q 333 830 342 826 q 314 847 325 833 l 210 979 q 203 996 203 989 q 210 1011 204 1006 q 226 1017 217 1017 l 263 1017 q 292 1007 276 1017 l 386 928 l 514 1007 q 526 1013 517 1008 q 546 1017 535 1017 l 603 1017 q 614 1013 610 1017 q 618 1001 618 1008 q 606 981 618 992 l 444 847 q 418 830 428 833 q 394 826 408 826 l 356 826 z "},"ŗ":{"ha":525,"x_min":-169,"x_max":568,"o":"m 50 0 q 28 9 36 0 q 24 32 21 18 l 164 689 q 178 713 167 703 q 203 722 189 722 l 261 722 q 283 713 276 722 q 288 689 290 703 l 274 628 q 483 722 340 722 l 542 722 q 563 714 556 722 q 567 690 569 706 l 556 639 q 543 616 554 625 q 518 607 532 607 l 438 607 q 308 563 361 607 q 239 442 254 518 l 151 32 q 138 9 149 18 q 113 0 126 0 l 50 0 m -151 -301 q -165 -297 -160 -301 q -169 -285 -169 -292 q -167 -272 -169 -281 l -108 -110 q -60 -69 -93 -69 l 25 -69 q 38 -74 33 -69 q 42 -87 42 -79 q 31 -115 42 -100 l -60 -269 q -81 -294 -71 -286 q -107 -301 -90 -301 l -151 -301 z "},"s":{"ha":706,"x_min":25,"x_max":678,"o":"m 281 -14 q 134 14 192 -14 q 51 78 76 42 q 25 146 25 115 q 37 174 25 163 q 61 185 49 185 l 119 185 q 133 182 128 185 q 142 169 138 179 q 202 108 168 129 q 303 86 236 86 q 429 114 378 86 q 492 194 481 142 q 494 215 494 211 q 453 276 494 254 q 300 324 411 297 q 160 386 203 347 q 118 482 118 425 q 124 529 118 496 q 176 629 135 582 q 283 706 217 676 q 433 736 350 736 q 575 708 519 736 q 654 641 631 679 q 672 576 678 603 q 660 553 671 563 q 636 544 650 544 l 582 544 q 558 560 565 544 q 526 601 539 588 q 486 626 514 615 q 413 636 458 636 q 302 608 344 636 q 249 532 260 579 q 246 511 246 518 q 284 456 246 478 q 425 410 322 433 q 579 344 532 386 q 626 242 626 303 q 622 199 626 222 q 512 47 603 107 q 281 -14 421 -14 z "},"ś":{"ha":704,"x_min":25,"x_max":681,"o":"m 281 -14 q 134 14 192 -14 q 51 78 76 42 q 25 146 25 115 q 37 174 25 163 q 61 185 49 185 l 119 185 q 133 182 128 185 q 142 169 138 179 q 202 108 168 129 q 303 86 236 86 q 429 114 378 86 q 492 194 481 142 q 494 215 494 211 q 453 276 494 254 q 300 324 411 297 q 160 386 203 347 q 118 482 118 425 q 124 529 118 496 q 176 629 135 582 q 283 706 217 676 q 433 736 350 736 q 575 708 519 736 q 654 641 631 679 q 672 576 678 603 q 660 553 671 563 q 636 544 650 544 l 582 544 q 558 560 565 544 q 526 601 539 588 q 486 626 514 615 q 413 636 458 636 q 302 608 344 636 q 249 532 260 579 q 246 511 246 518 q 284 456 246 478 q 425 410 322 433 q 579 344 532 386 q 626 242 626 303 q 622 199 626 222 q 512 47 603 107 q 281 -14 421 -14 m 388 826 q 373 833 378 826 q 371 849 368 839 q 382 867 374 858 l 513 992 q 539 1012 528 1007 q 569 1017 550 1017 l 660 1017 q 675 1010 669 1017 q 681 994 681 1004 q 669 974 681 981 l 481 842 q 457 829 467 832 q 432 826 447 826 l 388 826 z "},"š":{"ha":704,"x_min":25,"x_max":678,"o":"m 281 -14 q 134 14 192 -14 q 51 78 76 42 q 25 146 25 115 q 37 174 25 163 q 61 185 49 185 l 119 185 q 133 182 128 185 q 142 169 138 179 q 202 108 168 129 q 303 86 236 86 q 429 114 378 86 q 492 194 481 142 q 494 215 494 211 q 453 276 494 254 q 300 324 411 297 q 160 386 203 347 q 118 482 118 425 q 124 529 118 496 q 176 629 135 582 q 283 706 217 676 q 433 736 350 736 q 575 708 519 736 q 654 641 631 679 q 672 576 678 603 q 660 553 671 563 q 636 544 650 544 l 582 544 q 558 560 565 544 q 526 601 539 588 q 486 626 514 615 q 413 636 458 636 q 302 608 344 636 q 249 532 260 579 q 246 511 246 518 q 284 456 246 478 q 425 410 322 433 q 579 344 532 386 q 626 242 626 303 q 622 199 626 222 q 512 47 603 107 q 281 -14 421 -14 m 415 826 q 393 830 401 826 q 374 847 385 833 l 269 979 q 263 996 263 989 q 270 1011 264 1006 q 286 1017 276 1017 l 322 1017 q 351 1007 336 1017 l 446 928 l 574 1007 q 585 1013 576 1008 q 606 1017 594 1017 l 663 1017 q 674 1013 669 1017 q 678 1001 678 1008 q 665 981 678 992 l 504 847 q 478 830 488 833 q 454 826 468 826 l 415 826 z "},"ş":{"ha":706,"x_min":21,"x_max":678,"o":"m 218 -306 q 142 -287 174 -306 q 110 -250 110 -269 q 118 -235 110 -242 l 143 -215 q 157 -210 150 -210 q 174 -218 163 -210 q 197 -232 185 -226 q 229 -237 208 -237 q 278 -219 257 -237 q 299 -174 299 -201 q 285 -146 299 -156 q 251 -136 272 -136 q 215 -142 236 -136 q 186 -149 193 -149 q 169 -140 175 -149 l 151 -115 q 149 -107 149 -110 q 156 -87 149 -99 q 165 -74 164 -76 l 208 -7 q 97 33 140 4 q 38 97 54 63 q 25 153 21 131 q 38 176 26 167 q 61 185 50 185 l 118 185 q 131 182 126 185 q 142 169 136 179 q 203 108 169 129 q 303 86 236 86 q 429 114 378 86 q 492 194 481 142 q 494 215 494 211 q 453 276 494 254 q 300 324 411 297 q 160 386 203 347 q 118 482 118 425 q 124 529 118 496 q 176 629 135 582 q 283 706 217 676 q 433 736 350 736 q 575 708 519 736 q 654 641 631 679 q 672 576 678 603 q 660 553 671 563 q 636 544 650 544 l 582 544 q 558 560 565 544 q 526 601 539 588 q 486 626 514 615 q 413 636 458 636 q 302 608 344 636 q 249 532 260 579 q 246 511 246 518 q 284 456 246 478 q 425 410 322 433 q 579 344 532 386 q 626 242 626 303 q 622 199 626 222 q 565 91 610 139 q 447 15 519 43 q 282 -14 375 -14 l 239 -78 q 263 -69 247 -72 q 292 -67 278 -67 q 353 -90 331 -67 q 376 -154 376 -114 q 374 -183 376 -174 q 320 -271 361 -236 q 218 -306 279 -306 z "},"ŝ":{"ha":704,"x_min":25,"x_max":674,"o":"m 281 -14 q 134 14 192 -14 q 51 78 76 42 q 25 146 25 115 q 37 174 25 163 q 61 185 49 185 l 119 185 q 133 182 128 185 q 142 169 138 179 q 202 108 168 129 q 303 86 236 86 q 429 114 378 86 q 492 194 481 142 q 494 215 494 211 q 453 276 494 254 q 300 324 411 297 q 160 386 203 347 q 118 482 118 425 q 124 529 118 496 q 176 629 135 582 q 283 706 217 676 q 433 736 350 736 q 575 708 519 736 q 654 641 631 679 q 672 576 678 603 q 660 553 671 563 q 636 544 650 544 l 582 544 q 558 560 565 544 q 526 601 539 588 q 486 626 514 615 q 413 636 458 636 q 302 608 344 636 q 249 532 260 579 q 246 511 246 518 q 284 456 246 478 q 425 410 322 433 q 579 344 532 386 q 626 242 626 303 q 622 199 626 222 q 512 47 603 107 q 281 -14 421 -14 m 228 826 q 213 842 213 826 q 225 863 213 853 l 386 996 q 413 1013 403 1010 q 436 1017 422 1017 l 476 1017 q 497 1013 489 1017 q 517 996 506 1010 l 621 864 q 626 843 629 854 q 619 831 625 836 q 604 826 613 826 l 568 826 q 539 836 553 826 l 444 915 l 317 836 q 305 831 314 835 q 285 826 296 826 l 228 826 z "},"ș":{"ha":704,"x_min":25,"x_max":674,"o":"m 281 -14 q 134 14 192 -14 q 51 78 76 42 q 25 146 25 115 q 37 174 25 163 q 61 185 49 185 l 119 185 q 133 182 128 185 q 142 169 138 179 q 202 108 168 129 q 303 86 236 86 q 429 114 378 86 q 492 194 481 142 q 494 215 494 211 q 453 276 494 254 q 300 324 411 297 q 160 386 203 347 q 118 482 118 425 q 124 529 118 496 q 176 629 135 582 q 283 706 217 676 q 433 736 350 736 q 575 708 519 736 q 654 641 631 679 q 672 576 678 603 q 660 553 671 563 q 636 544 650 544 l 582 544 q 558 560 565 544 q 526 601 539 588 q 486 626 514 615 q 413 636 458 636 q 302 608 344 636 q 249 532 260 579 q 246 511 246 518 q 284 456 246 478 q 425 410 322 433 q 579 344 532 386 q 626 242 626 303 q 622 199 626 222 q 512 47 603 107 q 281 -14 421 -14 m 79 -301 q 66 -297 71 -301 q 61 -285 61 -292 q 64 -272 61 -281 l 122 -110 q 171 -69 138 -69 l 256 -69 q 268 -74 264 -69 q 272 -87 272 -79 q 261 -115 272 -100 l 171 -269 q 150 -294 160 -286 q 124 -301 140 -301 l 79 -301 z "},"ß":{"ha":815,"x_min":42,"x_max":801,"o":"m 69 0 q 49 9 56 0 q 44 32 42 18 l 183 686 q 303 901 211 817 q 549 986 396 986 q 740 928 678 986 q 801 785 801 871 q 794 728 801 760 q 733 599 778 650 q 633 524 688 547 q 750 354 750 481 q 742 283 750 319 q 679 150 726 215 q 552 42 632 85 q 367 0 472 0 l 271 0 q 250 9 257 0 q 246 32 243 18 l 254 75 q 269 98 257 89 q 294 106 281 107 l 371 106 q 533 157 468 106 q 614 286 597 208 q 618 329 618 310 q 574 430 618 392 q 446 468 531 468 l 369 468 q 349 476 356 468 q 344 500 342 485 l 353 539 q 366 562 356 553 q 392 571 376 571 l 456 571 q 603 611 549 572 q 672 725 657 650 q 676 758 676 742 q 636 847 676 814 q 526 881 596 881 q 386 830 444 881 q 307 682 328 779 l 169 32 q 156 9 167 18 q 131 0 144 0 l 69 0 z "},"ſ":{"ha":401,"x_min":67,"x_max":646,"o":"m 214 32 q 201 9 211 18 q 176 0 190 0 l 117 0 q 95 9 103 0 q 90 32 88 18 l 215 615 l 96 615 q 74 624 82 615 q 69 646 67 632 l 79 690 q 93 713 82 704 q 118 722 104 722 l 238 722 l 251 792 q 344 965 275 901 q 526 1028 414 1028 l 619 1028 q 640 1019 633 1028 q 643 996 646 1010 l 635 951 q 621 929 632 938 q 596 921 610 921 l 525 921 q 424 887 460 921 q 374 785 389 853 l 214 32 z "},"t":{"ha":529,"x_min":65,"x_max":549,"o":"m 301 0 q 156 38 200 0 q 113 150 113 76 q 124 243 113 190 l 203 615 l 94 615 q 73 624 81 615 q 68 646 65 632 l 78 690 q 92 713 81 704 q 117 722 103 722 l 225 722 l 275 954 q 288 977 278 968 q 313 986 299 986 l 372 986 q 394 977 388 986 q 399 954 401 968 l 349 722 l 521 722 q 542 714 535 722 q 546 690 549 706 l 536 646 q 523 624 533 632 q 499 615 513 615 l 326 615 l 249 253 q 236 171 236 196 q 253 125 236 140 q 314 110 271 110 l 406 110 q 426 101 419 110 q 429 78 432 92 l 419 32 q 406 9 417 18 q 382 0 396 0 l 301 0 z "},"ŧ":{"ha":539,"x_min":31,"x_max":556,"o":"m 307 0 q 163 38 206 0 q 119 149 119 76 q 131 243 119 188 l 167 414 l 58 414 q 38 422 44 414 q 33 444 31 431 l 39 474 q 53 496 43 488 q 78 504 64 504 l 186 504 l 214 631 l 106 631 q 84 640 92 631 q 79 663 76 649 l 85 690 q 99 713 88 704 q 124 722 110 722 l 232 722 l 282 954 q 295 977 285 968 q 319 986 306 986 l 381 986 q 401 977 394 986 q 406 954 408 968 l 356 722 l 529 722 q 549 713 543 722 q 553 690 556 704 l 547 663 q 535 640 546 649 q 510 631 524 631 l 338 631 l 310 504 l 482 504 q 503 496 496 504 q 508 474 511 488 l 501 444 q 488 422 499 431 q 463 414 476 414 l 290 414 l 257 253 q 244 171 244 193 q 262 124 244 139 q 322 110 279 110 l 413 110 q 433 101 426 110 q 438 78 440 92 l 426 32 q 413 9 424 18 q 389 0 403 0 l 307 0 z "},"ť":{"ha":551,"x_min":68,"x_max":735,"o":"m 301 0 q 156 38 200 0 q 113 150 113 76 q 124 243 113 190 l 203 615 l 94 615 q 73 624 81 615 q 68 646 65 632 l 78 690 q 92 713 81 704 q 117 722 103 722 l 225 722 l 275 954 q 288 977 278 968 q 313 986 299 986 l 372 986 q 394 977 388 986 q 399 954 401 968 l 349 722 l 521 722 q 542 714 535 722 q 546 690 549 706 l 536 646 q 523 624 533 632 q 499 615 513 615 l 326 615 l 249 253 q 236 171 236 196 q 253 125 236 140 q 314 110 271 110 l 406 110 q 426 101 419 110 q 429 78 432 92 l 419 32 q 406 9 417 18 q 382 0 396 0 l 301 0 m 542 764 q 528 769 533 764 q 524 781 524 774 q 526 793 524 785 l 585 956 q 633 996 600 996 l 718 996 q 731 991 726 996 q 735 978 735 986 q 724 950 735 965 l 633 796 q 613 772 622 779 q 586 764 603 764 l 542 764 z "},"ț":{"ha":529,"x_min":17,"x_max":547,"o":"m 301 0 q 156 38 200 0 q 113 150 113 76 q 124 243 113 190 l 203 615 l 94 615 q 73 624 81 615 q 68 646 65 632 l 78 690 q 92 713 81 704 q 117 722 103 722 l 225 722 l 275 954 q 288 977 278 968 q 313 986 299 986 l 372 986 q 394 977 388 986 q 399 954 401 968 l 349 722 l 521 722 q 542 714 535 722 q 546 690 549 706 l 536 646 q 523 624 533 632 q 499 615 513 615 l 326 615 l 249 253 q 236 171 236 196 q 253 125 236 140 q 314 110 271 110 l 406 110 q 426 101 419 110 q 429 78 432 92 l 419 32 q 406 9 417 18 q 382 0 396 0 l 301 0 m 35 -301 q 22 -297 26 -301 q 17 -285 17 -292 q 19 -272 17 -281 l 78 -110 q 126 -69 93 -69 l 211 -69 q 224 -74 219 -69 q 228 -87 228 -79 q 217 -115 228 -100 l 126 -269 q 106 -294 115 -286 q 79 -301 96 -301 l 35 -301 z "},"u":{"ha":835,"x_min":63,"x_max":792,"o":"m 299 -14 q 121 43 179 -14 q 63 203 63 100 q 74 299 63 243 l 157 690 q 170 713 160 704 q 196 722 181 722 l 260 722 q 280 713 274 722 q 283 690 286 704 l 203 306 q 190 211 190 251 q 222 124 190 153 q 328 94 254 94 q 490 151 422 94 q 579 306 558 208 l 661 690 q 675 713 664 704 q 700 722 686 722 l 764 722 q 785 713 778 722 q 789 690 792 704 l 649 32 q 635 9 646 18 q 611 0 625 0 l 551 0 q 530 9 538 0 q 525 32 522 18 l 538 94 q 435 12 485 38 q 299 -14 385 -14 z "},"ú":{"ha":835,"x_min":63,"x_max":790,"o":"m 299 -14 q 121 43 179 -14 q 63 203 63 100 q 74 299 63 243 l 157 690 q 170 713 160 704 q 196 722 181 722 l 260 722 q 280 713 274 722 q 283 690 286 704 l 203 306 q 190 211 190 251 q 222 124 190 153 q 328 94 254 94 q 490 151 422 94 q 579 306 558 208 l 661 690 q 675 713 664 704 q 700 722 686 722 l 764 722 q 785 713 778 722 q 789 690 792 704 l 649 32 q 635 9 646 18 q 611 0 625 0 l 551 0 q 530 9 538 0 q 525 32 522 18 l 538 94 q 435 12 485 38 q 299 -14 385 -14 m 446 826 q 431 833 436 826 q 429 849 426 839 q 440 867 432 858 l 571 992 q 597 1012 586 1007 q 628 1017 608 1017 l 718 1017 q 733 1010 728 1017 q 739 994 739 1004 q 728 974 739 981 l 539 842 q 515 829 525 832 q 490 826 506 826 l 446 826 z "},"ŭ":{"ha":835,"x_min":63,"x_max":790,"o":"m 299 -14 q 121 43 179 -14 q 63 203 63 100 q 74 299 63 243 l 157 690 q 170 713 160 704 q 196 722 181 722 l 260 722 q 280 713 274 722 q 283 690 286 704 l 203 306 q 190 211 190 251 q 222 124 190 153 q 328 94 254 94 q 490 151 422 94 q 579 306 558 208 l 661 690 q 675 713 664 704 q 700 722 686 722 l 764 722 q 785 713 778 722 q 789 690 792 704 l 649 32 q 635 9 646 18 q 611 0 625 0 l 551 0 q 530 9 538 0 q 525 32 522 18 l 538 94 q 435 12 485 38 q 299 -14 385 -14 m 496 819 q 387 856 424 819 q 350 951 350 893 q 354 990 350 972 q 365 1009 357 1001 q 386 1017 374 1017 l 425 1017 q 443 1009 438 1017 q 446 990 449 1001 q 442 957 442 974 q 500 901 442 901 q 597 990 572 901 q 608 1009 600 1001 q 629 1017 617 1017 l 668 1017 q 686 1009 681 1017 q 689 990 692 1001 q 629 867 674 914 q 496 819 585 819 z "},"û":{"ha":835,"x_min":63,"x_max":790,"o":"m 299 -14 q 121 43 179 -14 q 63 203 63 100 q 74 299 63 243 l 157 690 q 170 713 160 704 q 196 722 181 722 l 260 722 q 280 713 274 722 q 283 690 286 704 l 203 306 q 190 211 190 251 q 222 124 190 153 q 328 94 254 94 q 490 151 422 94 q 579 306 558 208 l 661 690 q 675 713 664 704 q 700 722 686 722 l 764 722 q 785 713 778 722 q 789 690 792 704 l 649 32 q 635 9 646 18 q 611 0 625 0 l 551 0 q 530 9 538 0 q 525 32 522 18 l 538 94 q 435 12 485 38 q 299 -14 385 -14 m 283 826 q 268 842 268 826 q 281 863 268 853 l 442 996 q 468 1013 458 1010 q 492 1017 478 1017 l 532 1017 q 553 1013 544 1017 q 572 996 561 1010 l 676 864 q 682 843 685 854 q 674 831 681 836 q 660 826 668 826 l 624 826 q 594 836 608 826 l 500 915 l 372 836 q 360 831 369 835 q 340 826 351 826 l 283 826 z "},"ü":{"ha":835,"x_min":63,"x_max":790,"o":"m 299 -14 q 121 43 179 -14 q 63 203 63 100 q 74 299 63 243 l 157 690 q 170 713 160 704 q 196 722 181 722 l 260 722 q 280 713 274 722 q 283 690 286 704 l 203 306 q 190 211 190 251 q 222 124 190 153 q 328 94 254 94 q 490 151 422 94 q 579 306 558 208 l 661 690 q 675 713 664 704 q 700 722 686 722 l 764 722 q 785 713 778 722 q 789 690 792 704 l 649 32 q 635 9 646 18 q 611 0 625 0 l 551 0 q 530 9 538 0 q 525 32 522 18 l 538 94 q 435 12 485 38 q 299 -14 385 -14 m 344 864 q 324 872 331 864 q 319 894 317 881 l 336 967 q 349 990 339 981 q 372 999 358 999 l 446 999 q 467 990 460 999 q 471 967 474 981 l 456 894 q 442 872 453 881 q 417 864 431 864 l 344 864 m 576 864 q 556 872 563 864 q 551 894 549 881 l 568 967 q 581 990 569 981 q 606 999 592 999 l 678 999 q 699 990 692 999 q 704 967 707 981 l 688 894 q 674 872 685 881 q 650 864 664 864 l 576 864 z "},"ù":{"ha":835,"x_min":63,"x_max":790,"o":"m 299 -14 q 121 43 179 -14 q 63 203 63 100 q 74 299 63 243 l 157 690 q 170 713 160 704 q 196 722 181 722 l 260 722 q 280 713 274 722 q 283 690 286 704 l 203 306 q 190 211 190 251 q 222 124 190 153 q 328 94 254 94 q 490 151 422 94 q 579 306 558 208 l 661 690 q 675 713 664 704 q 700 722 686 722 l 764 722 q 785 713 778 722 q 789 690 792 704 l 649 32 q 635 9 646 18 q 611 0 625 0 l 551 0 q 530 9 538 0 q 525 32 522 18 l 538 94 q 435 12 485 38 q 299 -14 385 -14 m 486 826 q 461 830 471 826 q 443 842 451 833 l 315 969 q 308 986 308 976 q 317 1008 308 999 q 338 1017 326 1017 l 433 1017 q 460 1012 451 1017 q 479 992 469 1007 l 554 869 q 558 847 561 858 q 549 833 556 839 q 532 826 542 826 l 486 826 z "},"ű":{"ha":835,"x_min":63,"x_max":792,"o":"m 299 -14 q 121 43 179 -14 q 63 203 63 100 q 74 299 63 243 l 157 690 q 170 713 160 704 q 196 722 181 722 l 260 722 q 280 713 274 722 q 283 690 286 704 l 203 306 q 190 211 190 251 q 222 124 190 153 q 328 94 254 94 q 490 151 422 94 q 579 306 558 208 l 661 690 q 675 713 664 704 q 700 722 686 722 l 764 722 q 785 713 778 722 q 789 690 792 704 l 649 32 q 635 9 646 18 q 611 0 625 0 l 551 0 q 530 9 538 0 q 525 32 522 18 l 538 94 q 435 12 485 38 q 299 -14 385 -14 m 339 826 q 319 843 319 826 q 328 861 319 850 l 413 990 q 435 1010 422 1004 q 469 1017 449 1017 l 544 1017 q 562 1011 556 1017 q 567 996 568 1006 q 557 974 567 983 l 419 846 q 372 826 397 826 l 339 826 m 564 826 q 544 843 544 826 q 553 861 544 850 l 638 990 q 694 1017 654 1017 l 769 1017 q 792 996 792 1017 q 782 974 792 986 l 643 846 q 597 826 621 826 l 564 826 z "},"ū":{"ha":835,"x_min":63,"x_max":790,"o":"m 299 -14 q 121 43 179 -14 q 63 203 63 100 q 74 299 63 243 l 157 690 q 170 713 160 704 q 196 722 181 722 l 260 722 q 280 713 274 722 q 283 690 286 704 l 203 306 q 190 211 190 251 q 222 124 190 153 q 328 94 254 94 q 490 151 422 94 q 579 306 558 208 l 661 690 q 675 713 664 704 q 700 722 686 722 l 764 722 q 785 713 778 722 q 789 690 792 704 l 649 32 q 635 9 646 18 q 611 0 625 0 l 551 0 q 530 9 538 0 q 525 32 522 18 l 538 94 q 435 12 485 38 q 299 -14 385 -14 m 343 858 q 322 867 329 858 q 318 889 315 875 l 326 929 q 340 951 329 943 q 364 960 350 960 l 671 960 q 691 951 685 960 q 694 929 697 943 l 686 889 q 674 867 685 875 q 649 858 663 858 l 343 858 z "},"ų":{"ha":833,"x_min":82,"x_max":811,"o":"m 550 -306 q 451 -270 488 -306 q 415 -172 415 -235 q 422 -115 415 -150 q 472 -21 433 -62 q 551 40 510 21 q 549 56 549 44 l 558 94 q 447 14 507 42 q 303 -14 386 -14 q 138 44 194 -14 q 82 204 82 103 q 93 299 82 246 l 176 690 q 190 713 179 704 q 215 722 201 722 l 279 722 q 300 713 293 722 q 304 690 307 704 l 222 306 q 214 232 214 264 q 361 94 214 94 q 513 151 449 94 q 600 306 578 207 l 681 690 q 694 713 683 704 q 719 722 706 722 l 783 722 q 804 713 797 722 q 808 690 811 704 l 668 32 q 636 0 664 11 l 629 -3 q 556 -46 582 -19 q 521 -115 531 -72 q 517 -150 517 -135 q 533 -196 517 -181 q 576 -211 549 -211 l 585 -211 q 606 -220 599 -211 q 610 -243 613 -229 l 603 -274 q 589 -297 600 -287 q 564 -306 578 -306 l 550 -306 z "},"ů":{"ha":835,"x_min":63,"x_max":790,"o":"m 299 -14 q 121 43 179 -14 q 63 203 63 100 q 74 299 63 243 l 157 690 q 170 713 160 704 q 196 722 181 722 l 260 722 q 280 713 274 722 q 283 690 286 704 l 203 306 q 190 211 190 251 q 222 124 190 153 q 328 94 254 94 q 490 151 422 94 q 579 306 558 208 l 661 690 q 675 713 664 704 q 700 722 686 722 l 764 722 q 785 713 778 722 q 789 690 792 704 l 649 32 q 635 9 646 18 q 611 0 625 0 l 551 0 q 530 9 538 0 q 525 32 522 18 l 538 94 q 435 12 485 38 q 299 -14 385 -14 m 489 819 q 417 844 446 819 q 389 907 389 868 q 392 928 389 914 q 441 1006 403 975 q 528 1038 479 1038 q 599 1013 571 1038 q 626 950 626 989 q 624 928 626 944 q 575 850 614 881 q 489 819 536 819 m 494 886 q 535 902 518 886 q 551 940 551 918 q 519 969 551 969 q 481 954 497 969 q 465 917 465 939 q 473 894 465 903 q 494 886 481 886 z "},"ũ":{"ha":835,"x_min":63,"x_max":790,"o":"m 299 -14 q 121 43 179 -14 q 63 203 63 100 q 74 299 63 243 l 157 690 q 170 713 160 704 q 196 722 181 722 l 260 722 q 280 713 274 722 q 283 690 286 704 l 203 306 q 190 211 190 251 q 222 124 190 153 q 328 94 254 94 q 490 151 422 94 q 579 306 558 208 l 661 690 q 675 713 664 704 q 700 722 686 722 l 764 722 q 785 713 778 722 q 789 690 792 704 l 649 32 q 635 9 646 18 q 611 0 625 0 l 551 0 q 530 9 538 0 q 525 32 522 18 l 538 94 q 435 12 485 38 q 299 -14 385 -14 m 567 819 q 526 826 542 819 q 489 847 511 833 q 466 860 478 854 q 442 867 454 867 q 421 860 431 867 q 403 846 411 854 q 386 831 393 836 q 369 826 379 826 l 326 826 q 312 833 317 826 q 308 849 307 840 q 353 932 315 894 q 443 969 392 969 q 483 963 468 969 q 521 942 499 956 q 533 934 524 940 q 551 925 542 928 q 568 922 560 922 q 588 928 581 922 q 606 944 596 933 q 621 958 613 951 q 639 964 629 964 l 681 964 q 697 958 692 964 q 700 942 701 951 q 656 858 693 896 q 567 819 618 819 z "},"v":{"ha":764,"x_min":101,"x_max":781,"o":"m 264 0 q 235 9 244 0 q 222 35 226 18 l 103 688 l 101 696 q 110 715 101 708 q 132 722 118 722 l 190 722 q 224 692 218 722 l 318 146 l 650 700 q 688 722 665 722 l 757 722 q 774 716 768 722 q 781 700 781 710 q 774 679 781 690 l 381 35 q 357 9 369 18 q 325 0 344 0 l 264 0 z "},"w":{"ha":1111,"x_min":106,"x_max":1121,"o":"m 206 0 q 179 8 188 0 q 168 35 171 17 l 107 689 q 115 713 106 703 q 140 722 124 722 l 194 722 q 225 700 222 722 l 271 169 l 546 693 q 589 722 563 722 l 639 722 q 671 693 668 722 l 728 169 l 997 700 q 1010 715 1000 708 q 1032 722 1019 722 l 1097 722 q 1121 701 1121 722 q 1117 683 1121 694 l 783 35 q 762 8 774 17 q 732 0 750 0 l 678 0 q 639 35 642 0 l 579 538 l 313 35 q 258 0 293 0 l 206 0 z "},"ẃ":{"ha":1111,"x_min":107,"x_max":1121,"o":"m 206 0 q 179 8 188 0 q 168 35 171 17 l 107 689 q 115 713 106 703 q 140 722 124 722 l 194 722 q 225 700 222 722 l 271 169 l 546 693 q 589 722 563 722 l 639 722 q 671 693 668 722 l 728 169 l 997 700 q 1010 715 1000 708 q 1032 722 1019 722 l 1097 722 q 1121 701 1121 722 q 1117 683 1121 694 l 783 35 q 762 8 774 17 q 732 0 750 0 l 678 0 q 639 35 642 0 l 579 538 l 313 35 q 258 0 293 0 l 206 0 m 600 826 q 585 833 590 826 q 583 849 581 839 q 594 867 586 858 l 725 992 q 751 1012 740 1007 q 782 1017 763 1017 l 872 1017 q 888 1010 882 1017 q 893 994 893 1004 q 882 974 893 981 l 693 842 q 669 829 679 832 q 644 826 660 826 l 600 826 z "},"ŵ":{"ha":1111,"x_min":107,"x_max":1121,"o":"m 206 0 q 179 8 188 0 q 168 35 171 17 l 107 689 q 115 713 106 703 q 140 722 124 722 l 194 722 q 225 700 222 722 l 271 169 l 546 693 q 589 722 563 722 l 639 722 q 671 693 668 722 l 728 169 l 997 700 q 1010 715 1000 708 q 1032 722 1019 722 l 1097 722 q 1121 701 1121 722 q 1117 683 1121 694 l 783 35 q 762 8 774 17 q 732 0 750 0 l 678 0 q 639 35 642 0 l 579 538 l 313 35 q 258 0 293 0 l 206 0 m 426 826 q 411 842 411 826 q 424 863 411 853 l 585 996 q 611 1013 601 1010 q 635 1017 621 1017 l 675 1017 q 696 1013 688 1017 q 715 996 704 1010 l 819 864 q 825 843 828 854 q 817 831 824 836 q 803 826 811 826 l 767 826 q 738 836 751 826 l 643 915 l 515 836 q 503 831 513 835 q 483 826 494 826 l 426 826 z "},"ẅ":{"ha":1111,"x_min":107,"x_max":1121,"o":"m 206 0 q 179 8 188 0 q 168 35 171 17 l 107 689 q 115 713 106 703 q 140 722 124 722 l 194 722 q 225 700 222 722 l 271 169 l 546 693 q 589 722 563 722 l 639 722 q 671 693 668 722 l 728 169 l 997 700 q 1010 715 1000 708 q 1032 722 1019 722 l 1097 722 q 1121 701 1121 722 q 1117 683 1121 694 l 783 35 q 762 8 774 17 q 732 0 750 0 l 678 0 q 639 35 642 0 l 579 538 l 313 35 q 258 0 293 0 l 206 0 m 479 864 q 458 872 465 864 q 454 894 451 881 l 471 967 q 483 990 474 981 q 507 999 493 999 l 581 999 q 601 990 594 999 q 606 967 608 981 l 590 894 q 576 872 588 881 q 551 864 565 864 l 479 864 m 711 864 q 690 872 697 864 q 686 894 683 881 l 703 967 q 715 990 704 981 q 740 999 726 999 l 813 999 q 834 990 826 999 q 839 967 842 981 l 822 894 q 809 872 819 881 q 785 864 799 864 l 711 864 z "},"ẁ":{"ha":1111,"x_min":107,"x_max":1121,"o":"m 206 0 q 179 8 188 0 q 168 35 171 17 l 107 689 q 115 713 106 703 q 140 722 124 722 l 194 722 q 225 700 222 722 l 271 169 l 546 693 q 589 722 563 722 l 639 722 q 671 693 668 722 l 728 169 l 997 700 q 1010 715 1000 708 q 1032 722 1019 722 l 1097 722 q 1121 701 1121 722 q 1117 683 1121 694 l 783 35 q 762 8 774 17 q 732 0 750 0 l 678 0 q 639 35 642 0 l 579 538 l 313 35 q 258 0 293 0 l 206 0 m 615 826 q 590 830 600 826 q 572 842 581 833 l 444 969 q 438 986 438 976 q 447 1008 438 999 q 467 1017 456 1017 l 563 1017 q 590 1012 581 1017 q 608 992 599 1007 l 683 869 q 688 847 690 858 q 678 833 685 839 q 661 826 671 826 l 615 826 z "},"x":{"ha":744,"x_min":-39,"x_max":761,"o":"m -12 0 q -32 8 -25 0 q -39 28 -39 17 q -32 49 -39 42 l 285 372 l 117 678 q 113 693 113 685 q 121 714 113 706 q 142 722 129 722 l 204 722 q 239 700 226 722 l 378 451 l 624 700 q 644 717 635 711 q 671 722 653 722 l 733 722 q 752 715 743 724 q 761 694 761 706 q 751 674 761 683 l 440 354 l 608 44 q 613 26 613 36 q 606 8 613 15 q 585 0 599 0 l 519 0 q 485 21 497 0 l 346 272 l 100 21 q 81 6 90 11 q 54 0 72 0 l -12 0 z "},"y":{"ha":768,"x_min":61,"x_max":792,"o":"m 83 -264 q 67 -258 74 -264 q 61 -242 61 -251 q 68 -218 61 -229 l 239 49 l 103 685 q 108 711 100 700 q 135 722 115 722 l 192 722 q 222 700 217 722 l 331 188 l 660 700 q 699 722 674 722 l 768 722 q 785 716 778 722 q 792 700 792 710 q 786 682 792 692 l 190 -242 q 150 -264 174 -264 l 83 -264 z "},"ý":{"ha":768,"x_min":61,"x_max":792,"o":"m 83 -264 q 67 -258 74 -264 q 61 -242 61 -251 q 68 -218 61 -229 l 239 49 l 103 685 q 108 711 100 700 q 135 722 115 722 l 192 722 q 222 700 217 722 l 331 188 l 660 700 q 699 722 674 722 l 768 722 q 785 716 778 722 q 792 700 792 710 q 786 682 792 692 l 190 -242 q 150 -264 174 -264 l 83 -264 m 417 826 q 402 833 407 826 q 400 849 397 839 q 411 867 403 858 l 542 992 q 568 1012 557 1007 q 599 1017 579 1017 l 689 1017 q 704 1010 699 1017 q 710 994 710 1004 q 699 974 710 981 l 510 842 q 486 829 496 832 q 461 826 476 826 l 417 826 z "},"ŷ":{"ha":768,"x_min":61,"x_max":792,"o":"m 83 -264 q 67 -258 74 -264 q 61 -242 61 -251 q 68 -218 61 -229 l 239 49 l 103 685 q 108 711 100 700 q 135 722 115 722 l 192 722 q 222 700 217 722 l 331 188 l 660 700 q 699 722 674 722 l 768 722 q 785 716 778 722 q 792 700 792 710 q 786 682 792 692 l 190 -242 q 150 -264 174 -264 l 83 -264 m 254 826 q 239 842 239 826 q 251 863 239 853 l 413 996 q 439 1013 429 1010 q 463 1017 449 1017 l 503 1017 q 524 1013 515 1017 q 543 996 532 1010 l 647 864 q 653 843 656 854 q 645 831 651 836 q 631 826 639 826 l 594 826 q 565 836 579 826 l 471 915 l 343 836 q 331 831 340 835 q 311 826 322 826 l 254 826 z "},"ÿ":{"ha":768,"x_min":61,"x_max":792,"o":"m 83 -264 q 67 -258 74 -264 q 61 -242 61 -251 q 68 -218 61 -229 l 239 49 l 103 685 q 108 711 100 700 q 135 722 115 722 l 192 722 q 222 700 217 722 l 331 188 l 660 700 q 699 722 674 722 l 768 722 q 785 716 778 722 q 792 700 792 710 q 786 682 792 692 l 190 -242 q 150 -264 174 -264 l 83 -264 m 308 864 q 288 872 294 864 q 283 894 281 881 l 300 967 q 313 990 303 981 q 336 999 322 999 l 410 999 q 431 990 424 999 q 435 967 438 981 l 419 894 q 406 872 417 881 q 381 864 394 864 l 308 864 m 540 864 q 519 872 526 864 q 515 894 513 881 l 532 967 q 544 990 533 981 q 569 999 556 999 l 642 999 q 663 990 656 999 q 668 967 671 981 l 651 894 q 638 872 649 881 q 614 864 628 864 l 540 864 z "},"ỳ":{"ha":768,"x_min":61,"x_max":792,"o":"m 83 -264 q 67 -258 74 -264 q 61 -242 61 -251 q 68 -218 61 -229 l 239 49 l 103 685 q 108 711 100 700 q 135 722 115 722 l 192 722 q 222 700 217 722 l 331 188 l 660 700 q 699 722 674 722 l 768 722 q 785 716 778 722 q 792 700 792 710 q 786 682 792 692 l 190 -242 q 150 -264 174 -264 l 83 -264 m 451 826 q 426 830 436 826 q 408 842 417 833 l 281 969 q 274 986 274 976 q 283 1008 274 999 q 303 1017 292 1017 l 399 1017 q 426 1012 417 1017 q 444 992 435 1007 l 519 869 q 524 847 526 858 q 514 833 521 839 q 497 826 507 826 l 451 826 z "},"z":{"ha":700,"x_min":-29,"x_max":685,"o":"m 0 0 q -22 9 -14 0 q -26 32 -29 18 l -15 78 q 0 108 -11 97 l 503 615 l 144 615 q 123 624 131 615 q 118 647 115 633 l 128 690 q 141 713 131 704 q 167 722 151 722 l 657 722 q 678 714 671 722 q 682 690 685 706 l 672 642 q 656 613 671 628 l 157 107 l 556 107 q 576 98 569 107 q 579 75 582 89 l 571 32 q 558 9 568 18 q 533 0 547 0 l 0 0 z "},"ź":{"ha":700,"x_min":-28,"x_max":689,"o":"m 0 0 q -22 9 -14 0 q -26 32 -29 18 l -15 78 q 0 108 -11 97 l 503 615 l 144 615 q 123 624 131 615 q 118 647 115 633 l 128 690 q 141 713 131 704 q 167 722 151 722 l 657 722 q 678 714 671 722 q 682 690 685 706 l 672 642 q 656 613 671 628 l 157 107 l 556 107 q 576 98 569 107 q 579 75 582 89 l 571 32 q 558 9 568 18 q 533 0 547 0 l 0 0 m 396 826 q 381 833 386 826 q 379 849 376 839 q 390 867 382 858 l 521 992 q 547 1012 536 1007 q 578 1017 558 1017 l 668 1017 q 683 1010 678 1017 q 689 994 689 1004 q 678 974 689 981 l 489 842 q 465 829 475 832 q 440 826 456 826 l 396 826 z "},"ž":{"ha":700,"x_min":-28,"x_max":683,"o":"m 0 0 q -22 9 -14 0 q -26 32 -29 18 l -15 78 q 0 108 -11 97 l 503 615 l 144 615 q 123 624 131 615 q 118 647 115 633 l 128 690 q 141 713 131 704 q 167 722 151 722 l 657 722 q 678 714 671 722 q 682 690 685 706 l 672 642 q 656 613 671 628 l 157 107 l 556 107 q 576 98 569 107 q 579 75 582 89 l 571 32 q 558 9 568 18 q 533 0 547 0 l 0 0 m 408 826 q 386 830 394 826 q 367 847 378 833 l 263 979 q 256 996 256 989 q 263 1011 257 1006 q 279 1017 269 1017 l 315 1017 q 344 1007 329 1017 l 439 928 l 567 1007 q 578 1013 569 1008 q 599 1017 588 1017 l 656 1017 q 667 1013 663 1017 q 671 1001 671 1008 q 658 981 671 992 l 497 847 q 471 830 481 833 q 447 826 461 826 l 408 826 z "},"ż":{"ha":700,"x_min":-28,"x_max":683,"o":"m 0 0 q -22 9 -14 0 q -26 32 -29 18 l -15 78 q 0 108 -11 97 l 503 615 l 144 615 q 123 624 131 615 q 118 647 115 633 l 128 690 q 141 713 131 704 q 167 722 151 722 l 657 722 q 678 714 671 722 q 682 690 685 706 l 672 642 q 656 613 671 628 l 157 107 l 556 107 q 576 98 569 107 q 579 75 582 89 l 571 32 q 558 9 568 18 q 533 0 547 0 l 0 0 m 399 851 q 378 860 385 851 q 374 883 371 869 l 393 968 q 406 991 396 982 q 429 1000 415 1000 l 515 1000 q 537 991 529 1000 q 542 968 544 982 l 522 883 q 509 860 519 869 q 485 851 499 851 l 399 851 z "},"ﬀ":{"ha":947,"x_min":69,"x_max":1071,"o":"m 964 722 q 985 713 978 722 q 989 690 992 704 l 979 646 q 967 624 978 632 q 942 615 956 615 l 763 615 l 638 32 q 624 9 635 18 q 600 0 614 0 l 540 0 q 519 9 526 0 q 514 32 511 18 l 639 615 l 340 615 l 217 32 q 203 9 214 18 q 179 0 193 0 l 118 0 q 97 9 104 0 q 93 32 90 18 l 217 615 l 99 615 q 77 624 85 615 q 72 646 69 632 l 82 690 q 95 713 85 704 q 121 722 106 722 l 239 722 l 254 792 q 347 965 278 903 q 528 1028 415 1028 l 621 1028 q 642 1019 635 1028 q 646 996 649 1011 l 636 951 q 622 929 633 938 q 597 921 611 921 l 526 921 q 426 887 463 921 q 376 785 390 853 l 363 722 l 661 722 l 676 792 q 768 965 699 901 q 950 1028 838 1028 l 1043 1028 q 1064 1019 1057 1028 q 1068 996 1071 1010 l 1058 951 q 1044 929 1056 938 q 1019 921 1033 921 l 949 921 q 849 887 885 921 q 799 785 813 853 l 785 722 l 964 722 z "},"ﬃ":{"ha":1174,"x_min":69,"x_max":1196,"o":"m 118 0 q 97 9 104 0 q 93 32 90 18 l 217 615 l 99 615 q 77 624 85 615 q 72 646 69 632 l 82 690 q 95 713 85 704 q 121 722 106 722 l 239 722 l 254 792 q 347 965 278 903 q 528 1028 415 1028 l 621 1028 q 642 1019 635 1028 q 646 996 649 1011 l 636 951 q 622 929 633 938 q 597 921 611 921 l 526 921 q 426 887 463 921 q 376 785 390 853 l 363 722 l 661 722 l 676 792 q 768 965 699 901 q 950 1028 838 1028 l 1169 1028 q 1190 1019 1183 1028 q 1193 996 1196 1010 l 1185 951 q 1171 929 1182 938 q 1146 921 1160 921 l 949 921 q 849 887 885 921 q 799 785 813 853 l 785 722 l 1104 722 q 1124 713 1118 722 q 1128 690 1131 704 l 989 32 q 976 9 986 18 q 951 0 965 0 l 890 0 q 869 9 876 0 q 865 32 863 18 l 988 615 l 763 615 l 638 32 q 624 9 635 18 q 600 0 614 0 l 540 0 q 519 9 526 0 q 514 32 511 18 l 639 615 l 340 615 l 217 32 q 203 9 214 18 q 179 0 193 0 l 118 0 z "},"ﬄ":{"ha":1247,"x_min":69,"x_max":1268,"o":"m 118 0 q 97 9 104 0 q 93 32 90 18 l 217 615 l 99 615 q 77 624 85 615 q 72 646 69 632 l 82 690 q 95 713 85 704 q 121 722 106 722 l 239 722 l 254 792 q 347 965 278 903 q 528 1028 415 1028 l 621 1028 q 642 1019 635 1028 q 646 996 649 1011 l 636 951 q 622 929 633 938 q 597 921 611 921 l 526 921 q 426 887 463 921 q 376 785 390 853 l 363 722 l 661 722 l 676 792 q 768 965 699 901 q 950 1028 838 1028 l 1039 1028 q 1059 1019 1053 1028 q 1063 996 1065 1010 l 1054 951 q 1040 929 1051 938 q 1015 921 1029 921 l 949 921 q 849 887 885 921 q 799 785 813 853 l 785 722 l 1083 722 l 1142 996 q 1155 1019 1144 1011 q 1179 1028 1165 1028 l 1239 1028 q 1260 1019 1253 1028 q 1265 996 1268 1010 l 1060 32 q 1047 9 1057 18 q 1022 0 1036 0 l 963 0 q 941 9 949 0 q 936 32 933 18 l 1060 615 l 763 615 l 638 32 q 624 9 635 18 q 600 0 614 0 l 540 0 q 519 9 526 0 q 514 32 511 18 l 639 615 l 340 615 l 217 32 q 203 9 214 18 q 179 0 193 0 l 118 0 z "},"ﬁ":{"ha":753,"x_min":69,"x_max":775,"o":"m 118 0 q 97 9 104 0 q 93 32 90 18 l 217 615 l 99 615 q 77 624 85 615 q 72 646 69 632 l 82 690 q 95 713 85 704 q 121 722 106 722 l 239 722 l 254 792 q 347 965 278 903 q 528 1028 415 1028 l 747 1028 q 768 1019 761 1028 q 772 996 775 1010 l 763 951 q 749 929 760 938 q 724 921 738 921 l 526 921 q 426 887 463 921 q 376 785 390 853 l 363 722 l 682 722 q 703 713 696 722 q 707 690 710 704 l 567 32 q 553 9 564 18 q 529 0 543 0 l 469 0 q 448 9 456 0 q 443 32 440 18 l 567 615 l 340 615 l 217 32 q 203 9 214 18 q 179 0 193 0 l 118 0 z "},"ﬂ":{"ha":825,"x_min":69,"x_max":846,"o":"m 118 0 q 97 9 104 0 q 93 32 90 18 l 217 615 l 99 615 q 77 624 85 615 q 72 646 69 632 l 82 690 q 96 713 85 704 q 121 722 107 722 l 239 722 l 254 792 q 347 965 278 903 q 528 1028 415 1028 l 617 1028 q 638 1019 631 1028 q 642 996 644 1010 l 632 951 q 618 929 629 938 q 593 921 607 921 l 526 921 q 426 887 463 921 q 376 785 390 853 l 363 722 l 661 722 l 719 996 q 733 1019 722 1010 q 757 1028 743 1028 l 817 1028 q 839 1019 832 1028 q 843 996 846 1010 l 638 32 q 624 9 635 18 q 600 0 614 0 l 540 0 q 519 9 526 0 q 514 32 511 18 l 638 615 l 340 615 l 217 32 q 203 9 214 18 q 179 0 193 0 l 118 0 z "},"ª":{"ha":503,"x_min":129,"x_max":503,"o":"m 251 596 q 163 622 196 596 q 129 690 129 649 q 180 785 129 747 q 318 835 231 822 l 403 847 q 406 867 406 856 q 361 896 406 896 q 288 878 318 896 q 257 868 268 868 l 217 868 q 193 892 189 868 q 245 950 201 921 q 363 979 289 979 q 467 949 431 979 q 503 867 503 919 q 499 829 503 849 l 456 632 q 444 611 453 619 q 422 603 435 603 l 382 603 q 362 611 368 603 q 358 632 356 619 l 361 643 q 315 609 343 622 q 251 596 286 596 m 263 676 q 345 704 311 676 q 386 774 379 732 l 321 764 q 229 707 233 750 q 235 685 226 693 q 263 676 243 676 z "},"º":{"ha":494,"x_min":140,"x_max":507,"o":"m 290 596 q 181 628 221 596 q 140 722 140 660 q 143 756 140 733 q 158 819 144 775 q 232 939 179 899 q 360 979 285 979 q 466 947 425 979 q 507 851 507 914 q 504 819 507 842 q 499 788 503 806 q 490 756 494 769 q 290 596 447 596 m 299 682 q 357 701 333 682 q 390 757 381 719 q 404 818 401 796 q 406 840 406 826 q 393 880 406 867 q 350 893 381 893 q 291 873 315 893 q 257 818 267 853 q 243 757 246 779 q 242 735 242 749 q 255 695 242 708 q 299 682 268 682 z "},"А":{"ha":932,"x_min":-56,"x_max":829,"o":"m -29 0 q -49 8 -42 0 q -56 26 -56 15 q -51 43 -56 35 l 485 942 q 535 972 504 972 l 635 972 q 672 942 668 972 l 826 43 q 822 11 829 22 q 799 0 814 0 l 733 0 q 710 8 718 0 q 699 31 701 15 l 661 224 l 203 224 l 81 24 q 42 0 67 0 l -29 0 m 267 339 l 647 339 l 563 838 l 267 339 z "},"Б":{"ha":888,"x_min":22,"x_max":888,"o":"m 50 0 q 29 9 36 0 q 25 32 22 18 l 218 939 q 231 963 221 954 q 256 972 242 972 l 857 972 q 880 963 872 972 q 885 939 888 954 l 872 888 q 860 865 871 874 q 833 856 849 856 l 332 856 l 269 564 l 547 564 q 741 508 675 564 q 807 358 807 453 q 799 289 807 326 q 735 151 783 217 q 608 42 686 85 q 429 0 529 0 l 50 0 m 435 110 q 587 163 524 110 q 667 292 650 215 q 671 335 671 315 q 631 428 671 394 q 511 463 590 463 l 247 463 l 172 110 l 435 110 z "},"В":{"ha":931,"x_min":40,"x_max":900,"o":"m 67 0 q 46 9 53 0 q 42 32 39 18 l 233 939 q 247 963 236 954 q 272 972 258 972 l 647 972 q 833 915 765 972 q 900 768 900 858 q 894 717 900 740 q 831 583 876 632 q 731 511 785 533 q 801 439 775 483 q 828 335 828 394 q 822 281 828 307 q 706 78 794 156 q 463 0 618 0 l 67 0 m 538 560 q 685 601 625 560 q 760 715 744 643 q 765 758 765 746 q 619 863 765 863 l 350 863 l 285 560 l 538 560 m 460 110 q 609 158 546 110 q 688 281 672 207 q 693 331 693 304 q 535 451 693 451 l 261 451 l 189 110 l 460 110 z "},"Г":{"ha":724,"x_min":22,"x_max":818,"o":"m 50 0 q 29 9 36 0 q 25 32 22 18 l 218 939 q 231 963 221 954 q 256 972 242 972 l 789 972 q 810 963 803 972 q 815 939 818 954 l 804 888 q 791 865 801 874 q 765 856 781 856 l 332 856 l 156 32 q 142 9 153 18 q 117 0 131 0 l 50 0 z "},"Ѓ":{"ha":724,"x_min":25,"x_max":815,"o":"m 50 0 q 29 9 36 0 q 25 32 22 18 l 218 939 q 231 963 221 954 q 256 972 242 972 l 789 972 q 810 963 803 972 q 815 939 818 954 l 804 888 q 791 865 801 874 q 765 856 781 856 l 332 856 l 156 32 q 142 9 153 18 q 117 0 131 0 l 50 0 m 499 1042 q 479 1060 479 1042 q 490 1079 482 1072 l 622 1207 q 649 1226 638 1221 q 679 1232 660 1232 l 778 1232 q 794 1226 789 1232 q 800 1211 800 1219 q 788 1189 797 1194 l 599 1057 q 575 1044 585 1047 q 550 1042 565 1042 l 499 1042 z "},"Ґ":{"ha":739,"x_min":38,"x_max":875,"o":"m 846 1167 q 867 1158 860 1167 q 872 1135 875 1150 l 819 888 q 806 865 817 874 q 781 856 796 856 l 347 856 l 171 32 q 157 9 168 18 q 132 0 146 0 l 65 0 q 44 9 51 0 q 40 32 38 18 l 233 939 q 247 963 236 954 q 272 972 258 972 l 707 972 l 742 1135 q 754 1158 743 1149 q 779 1167 765 1167 l 846 1167 z "},"Д":{"ha":985,"x_min":-89,"x_max":949,"o":"m -61 -193 q -82 -184 -75 -193 q -86 -161 -89 -175 l -33 89 q -19 112 -31 103 q 6 121 -8 121 l 36 121 q 282 640 169 121 l 344 940 q 358 963 347 954 q 383 972 369 972 l 921 972 q 942 963 936 972 q 946 939 949 954 l 772 121 l 840 121 q 862 112 854 121 q 867 89 869 103 l 814 -161 q 800 -185 811 -176 q 774 -193 789 -193 l 708 -193 q 688 -185 694 -193 q 683 -161 681 -176 l 717 0 l 79 0 l 46 -161 q 32 -184 43 -175 q 6 -193 21 -193 l -61 -193 m 642 121 l 797 851 l 454 851 l 407 624 q 317 304 365 426 q 208 121 268 182 l 642 121 z "},"Е":{"ha":839,"x_min":39,"x_max":871,"o":"m 67 0 q 46 9 53 0 q 42 32 39 18 l 233 939 q 247 963 236 954 q 272 972 258 972 l 843 972 q 865 963 858 972 q 868 939 871 954 l 858 889 q 844 867 856 875 q 819 858 833 858 l 346 858 l 279 549 l 722 549 q 743 540 736 549 q 747 515 750 531 l 738 468 q 724 445 735 454 q 699 436 714 436 l 256 436 l 188 115 l 672 115 q 693 106 686 115 q 697 82 700 97 l 688 32 q 674 9 685 18 q 649 0 663 0 l 67 0 z "},"Ѐ":{"ha":839,"x_min":40,"x_max":869,"o":"m 67 0 q 46 9 53 0 q 42 32 39 18 l 233 939 q 247 963 236 954 q 272 972 258 972 l 843 972 q 865 963 858 972 q 868 939 871 954 l 858 889 q 844 867 856 875 q 819 858 833 858 l 346 858 l 279 549 l 722 549 q 743 540 736 549 q 747 515 750 531 l 738 468 q 724 445 735 454 q 699 436 714 436 l 256 436 l 188 115 l 672 115 q 693 106 686 115 q 697 82 700 97 l 688 32 q 674 9 685 18 q 649 0 663 0 l 67 0 m 538 1042 q 513 1044 522 1042 q 494 1057 504 1047 l 367 1185 q 360 1201 360 1192 q 369 1223 360 1214 q 392 1232 378 1232 l 488 1232 q 515 1227 507 1232 q 533 1207 522 1222 l 610 1082 q 613 1068 613 1074 q 605 1049 613 1057 q 586 1042 597 1042 l 538 1042 z "},"Ё":{"ha":839,"x_min":40,"x_max":869,"o":"m 67 0 q 46 9 53 0 q 42 32 39 18 l 233 939 q 247 963 236 954 q 272 972 258 972 l 843 972 q 865 963 858 972 q 868 939 871 954 l 858 889 q 844 867 856 875 q 819 858 833 858 l 346 858 l 279 549 l 722 549 q 743 540 736 549 q 747 515 750 531 l 738 468 q 724 445 735 454 q 699 436 714 436 l 256 436 l 188 115 l 672 115 q 693 106 686 115 q 697 82 700 97 l 688 32 q 674 9 685 18 q 649 0 663 0 l 67 0 m 428 1114 q 407 1122 414 1114 q 403 1144 400 1131 l 419 1217 q 432 1240 422 1231 q 456 1249 442 1249 l 529 1249 q 550 1240 543 1249 q 554 1217 557 1231 l 539 1144 q 525 1122 536 1131 q 500 1114 514 1114 l 428 1114 m 660 1114 q 639 1122 646 1114 q 635 1144 632 1131 l 651 1217 q 664 1240 653 1231 q 689 1249 675 1249 l 761 1249 q 783 1240 775 1249 q 788 1217 790 1231 l 771 1144 q 758 1122 768 1131 q 733 1114 747 1114 l 660 1114 z "},"Ж":{"ha":1447,"x_min":8,"x_max":1457,"o":"m 1432 972 q 1451 965 1446 972 q 1454 944 1457 957 q 1443 926 1453 939 l 1086 501 l 1296 49 q 1297 42 1297 47 q 1285 13 1297 25 q 1258 0 1274 0 l 1193 0 q 1161 21 1169 0 l 968 432 l 792 432 l 706 31 q 693 8 704 17 q 668 0 682 0 l 603 0 q 582 9 589 0 q 576 32 575 18 l 663 432 l 517 432 l 160 21 q 142 6 150 11 q 121 0 133 0 l 36 0 q 15 10 22 0 q 11 33 8 19 q 13 40 11 35 q 17 49 14 46 l 408 501 l 231 926 q 228 944 226 938 q 239 965 231 957 q 263 972 247 972 l 324 972 q 367 950 358 972 l 531 551 l 688 553 l 771 940 q 783 963 772 954 q 808 972 794 972 l 874 972 q 894 963 888 972 q 900 940 901 954 l 817 553 l 975 551 l 1303 950 q 1356 972 1322 972 l 1432 972 z "},"З":{"ha":843,"x_min":1,"x_max":807,"o":"m 319 -14 q 146 15 218 -14 q 38 94 74 44 q 1 207 1 144 q 3 232 1 224 q 15 252 4 244 q 38 260 25 260 l 101 260 q 125 253 117 260 q 135 229 133 247 q 189 135 139 169 q 331 100 239 100 q 467 126 403 100 q 572 201 532 153 q 611 314 611 250 q 561 413 611 378 q 421 449 511 449 l 321 449 q 301 458 307 449 q 297 482 294 467 l 307 526 q 321 551 310 542 q 346 560 332 560 l 439 560 q 590 599 529 560 q 668 719 651 639 q 671 749 671 729 q 623 839 671 806 q 500 872 575 872 q 347 840 410 872 q 256 740 283 808 q 238 719 247 725 q 215 713 229 713 l 147 713 q 128 721 135 713 q 124 742 121 729 q 256 920 157 854 q 514 986 356 986 q 675 957 608 986 q 774 879 742 928 q 807 771 807 831 q 803 726 807 750 q 646 511 768 575 q 746 335 746 456 q 739 272 746 310 q 599 65 711 143 q 319 -14 486 -14 z "},"И":{"ha":1029,"x_min":39,"x_max":1021,"o":"m 67 0 q 46 10 53 0 q 42 33 39 19 l 235 939 q 247 963 236 954 q 274 972 258 972 l 340 972 q 361 963 354 972 q 365 939 368 954 l 211 211 l 893 953 q 907 966 897 960 q 929 972 917 972 l 994 972 q 1015 963 1008 972 q 1019 939 1021 954 l 826 32 q 813 9 824 18 q 789 0 803 0 l 722 0 q 699 9 707 0 q 694 32 692 18 l 849 753 l 169 19 q 156 6 165 13 q 132 0 146 0 l 67 0 z "},"Й":{"ha":1029,"x_min":40,"x_max":1019,"o":"m 67 0 q 46 10 53 0 q 42 33 39 19 l 235 939 q 247 963 236 954 q 274 972 258 972 l 340 972 q 361 963 354 972 q 365 939 368 954 l 211 211 l 893 953 q 907 966 897 960 q 929 972 917 972 l 994 972 q 1015 963 1008 972 q 1019 939 1021 954 l 826 32 q 813 9 824 18 q 789 0 803 0 l 722 0 q 699 9 707 0 q 694 32 692 18 l 849 753 l 169 19 q 156 6 165 13 q 132 0 146 0 l 67 0 m 642 1028 q 502 1063 544 1028 q 460 1157 460 1099 q 464 1200 460 1179 q 475 1219 467 1211 q 496 1226 483 1226 l 540 1226 q 558 1219 553 1226 q 561 1200 564 1211 q 558 1178 558 1186 q 658 1113 558 1113 q 755 1138 724 1113 q 793 1200 786 1163 q 804 1219 796 1211 q 825 1226 813 1226 l 869 1226 q 888 1219 882 1226 q 890 1200 893 1211 q 816 1076 875 1125 q 642 1028 757 1028 z "},"Ѝ":{"ha":1029,"x_min":40,"x_max":1019,"o":"m 67 0 q 46 10 53 0 q 42 33 39 19 l 235 939 q 247 963 236 954 q 274 972 258 972 l 340 972 q 361 963 354 972 q 365 939 368 954 l 211 211 l 893 953 q 907 966 897 960 q 929 972 917 972 l 994 972 q 1015 963 1008 972 q 1019 939 1021 954 l 826 32 q 813 9 824 18 q 789 0 803 0 l 722 0 q 699 9 707 0 q 694 32 692 18 l 849 753 l 169 19 q 156 6 165 13 q 132 0 146 0 l 67 0 m 615 1042 q 591 1044 600 1042 q 572 1057 582 1047 l 444 1185 q 438 1201 438 1192 q 447 1223 438 1214 q 469 1232 456 1232 l 565 1232 q 592 1227 585 1232 q 611 1207 600 1222 l 688 1082 q 690 1068 690 1074 q 683 1049 690 1057 q 664 1042 675 1042 l 615 1042 z "},"К":{"ha":900,"x_min":38,"x_max":925,"o":"m 897 972 q 919 944 925 972 q 908 926 918 939 l 551 501 l 750 49 q 751 42 751 47 q 739 13 751 25 q 711 0 726 0 l 647 0 q 626 6 633 0 q 614 21 619 11 l 431 432 l 257 432 l 171 32 q 157 9 168 18 q 132 0 146 0 l 65 0 q 44 8 51 0 q 40 32 38 17 l 233 939 q 247 963 236 954 q 271 972 257 972 l 338 972 q 360 963 353 972 q 365 939 367 954 l 282 553 l 439 551 l 768 950 q 821 972 788 972 l 897 972 z "},"Ќ":{"ha":885,"x_min":40,"x_max":919,"o":"m 897 972 q 919 944 925 972 q 908 926 918 939 l 551 501 l 750 49 q 751 42 751 47 q 739 13 751 25 q 711 0 726 0 l 647 0 q 626 6 633 0 q 614 21 619 11 l 431 432 l 257 432 l 171 32 q 157 9 168 18 q 132 0 146 0 l 65 0 q 44 8 51 0 q 40 32 38 17 l 233 939 q 247 963 236 954 q 271 972 257 972 l 338 972 q 360 963 353 972 q 365 939 367 954 l 282 553 l 439 551 l 768 950 q 821 972 788 972 l 897 972 m 488 1042 q 468 1060 468 1042 q 479 1079 471 1072 l 611 1207 q 638 1226 626 1221 q 668 1232 649 1232 l 767 1232 q 783 1226 778 1232 q 789 1211 789 1219 q 776 1189 786 1194 l 588 1057 q 564 1044 574 1047 q 539 1042 554 1042 l 488 1042 z "}}}
